<svg width="200" height="200" viewBox="0 0 200 200" fill="none" xmlns="http://www.w3.org/2000/svg">
<path d="M26 105C26 102.239 28.2386 100 31 100H169C171.761 100 174 102.239 174 105V154H26V105Z" fill="#6B7778"/>
<path fill-rule="evenodd" clip-rule="evenodd" d="M183 48.7697V67H14.3301V50.2649L99.9917 2L183 48.7697Z" fill="#C6D2D4"/>
<circle cx="100.33" cy="99" r="16" fill="#2AAD72"/>
<path d="M167.33 99.5H154.33H147.83H146.33H144.58H141.33H134.83H131.58L129.83 100.5L128.33 99.5H115.33" stroke="#D9D9D9"/>
<path d="M171.33 97.5C172.435 97.5 173.33 98.3954 173.33 99.5V100H165.33V99.5C165.33 98.3954 166.226 97.5 167.33 97.5H171.33Z" fill="#D9D9D9"/>
<path d="M167.084 104.755L154.124 103.735L147.644 103.225L146.149 103.108L144.404 102.97L141.164 102.715L134.684 102.205L131.444 101.95L129.621 102.81L128.204 101.695L115.244 100.675" stroke="#D9D9D9"/>
<path d="M171.229 103.075C172.33 103.162 173.152 104.125 173.066 105.226L173.027 105.724L165.051 105.097L165.09 104.598C165.177 103.497 166.14 102.675 167.241 102.761L171.229 103.075Z" fill="#D9D9D9"/>
<path d="M166.427 109.975L153.587 107.941L147.167 106.925L145.685 106.69L143.957 106.416L140.747 105.908L134.327 104.891L131.117 104.382L129.232 105.096L127.907 103.874L115.067 101.84" stroke="#D9D9D9"/>
<path d="M170.691 108.625C171.782 108.798 172.526 109.823 172.353 110.914L172.275 111.407L164.373 110.156L164.452 109.662C164.624 108.571 165.649 107.827 166.74 108L170.691 108.625Z" fill="#D9D9D9"/>
<path d="M165.362 115.127L152.721 112.092L146.401 110.575L144.943 110.225L143.241 109.816L140.081 109.057L133.76 107.54L130.6 106.781L128.665 107.345L127.44 106.023L114.799 102.988" stroke="#D9D9D9"/>
<path d="M169.718 114.116C170.792 114.374 171.454 115.454 171.196 116.528L171.079 117.014L163.301 115.146L163.417 114.66C163.675 113.586 164.755 112.924 165.829 113.182L169.718 114.116Z" fill="#D9D9D9"/>
<path d="M163.896 120.18L151.533 116.162L145.351 114.154L143.924 113.69L142.26 113.149L139.169 112.145L132.987 110.137L129.896 109.132L127.923 109.543L126.805 108.128L114.442 104.111" stroke="#D9D9D9"/>
<path d="M168.319 119.514C169.369 119.855 169.944 120.983 169.603 122.034L169.448 122.509L161.84 120.037L161.994 119.562C162.336 118.511 163.464 117.936 164.514 118.277L168.319 119.514Z" fill="#D9D9D9"/>
<path d="M162.039 125.102L150.029 120.127L144.023 117.639L142.638 117.065L141.021 116.396L138.018 115.152L132.013 112.664L129.01 111.421L127.011 111.675L126.008 110.177L113.997 105.202" stroke="#D9D9D9"/>
<path d="M166.5 124.785C167.52 125.207 168.005 126.377 167.582 127.398L167.391 127.86L160 124.798L160.191 124.336C160.614 123.316 161.784 122.831 162.804 123.254L166.5 124.785Z" fill="#D9D9D9"/>
<path d="M159.801 129.863L148.218 123.961L142.426 121.01L141.09 120.329L139.53 119.535L136.635 118.059L130.843 115.108L127.947 113.633L125.934 113.729L125.052 112.157L113.468 106.255" stroke="#D9D9D9"/>
<path d="M164.273 129.897C165.257 130.398 165.648 131.603 165.147 132.587L164.92 133.032L157.792 129.4L158.019 128.955C158.52 127.971 159.724 127.579 160.709 128.081L164.273 129.897Z" fill="#D9D9D9"/>
<path d="M157.195 134.434L146.111 127.641L140.569 124.245L139.29 123.461L137.798 122.547L135.027 120.849L129.485 117.452L126.713 115.754L124.699 115.693L123.942 114.056L112.858 107.264" stroke="#D9D9D9"/>
<path d="M161.651 134.818C162.593 135.396 162.889 136.627 162.311 137.569L162.05 137.995L155.229 133.815L155.49 133.389C156.067 132.447 157.299 132.151 158.241 132.728L161.651 134.818Z" fill="#D9D9D9"/>
<path d="M154.24 138.786L143.723 131.145L138.464 127.324L137.251 126.443L135.835 125.414L133.206 123.504L127.947 119.683L125.318 117.773L123.314 117.553L122.689 115.863L112.171 108.221" stroke="#D9D9D9"/>
<path d="M158.651 139.519C159.545 140.169 159.743 141.419 159.094 142.313L158.8 142.717L152.328 138.015L152.622 137.611C153.271 136.717 154.522 136.519 155.415 137.168L158.651 139.519Z" fill="#D9D9D9"/>
<path d="M150.952 142.893L141.067 134.45L136.124 130.229L134.984 129.255L133.653 128.118L131.182 126.008L126.239 121.786L123.768 119.675L121.787 119.299L121.296 117.565L111.411 109.122" stroke="#D9D9D9"/>
<path d="M155.293 143.97C156.133 144.688 156.232 145.95 155.515 146.79L155.19 147.17L149.107 141.974L149.431 141.594C150.149 140.754 151.411 140.655 152.251 141.372L155.293 143.97Z" fill="#D9D9D9"/>
<path d="M147.354 146.73L138.161 137.537L133.565 132.941L132.504 131.88L131.267 130.643L128.969 128.345L124.373 123.749L122.074 121.451L120.13 120.92L119.776 119.153L110.584 109.96" stroke="#D9D9D9"/>
<path d="M151.596 148.144C152.377 148.925 152.377 150.191 151.596 150.972L151.242 151.326L145.585 145.669L145.939 145.315C146.72 144.534 147.986 144.534 148.767 145.315L151.596 148.144Z" fill="#D9D9D9"/>
<path d="M143.464 150.272L135.021 140.387L130.8 135.444L129.825 134.303L128.689 132.973L126.578 130.501L122.357 125.559L120.246 123.087L118.349 122.406L118.135 120.616L109.693 110.731" stroke="#D9D9D9"/>
<path d="M147.582 152.015C148.299 152.855 148.2 154.117 147.36 154.834L146.98 155.159L141.784 149.076L142.164 148.751C143.004 148.034 144.267 148.133 144.984 148.973L147.582 152.015Z" fill="#D9D9D9"/>
<path d="M139.308 153.498L131.666 142.981L127.846 137.722L126.964 136.509L125.936 135.093L124.025 132.464L120.205 127.205L118.294 124.576L116.457 123.748L116.384 121.946L108.743 111.429" stroke="#D9D9D9"/>
<path d="M143.277 155.558C143.926 156.452 143.728 157.703 142.834 158.352L142.43 158.646L137.727 152.174L138.132 151.88C139.025 151.231 140.276 151.429 140.925 152.322L143.277 155.558Z" fill="#D9D9D9"/>
<path d="M134.912 156.388L128.12 145.304L124.723 139.762L123.94 138.483L123.025 136.991L121.327 134.219L117.931 128.677L116.233 125.906L114.466 124.937L114.535 123.135L107.742 112.051" stroke="#D9D9D9"/>
<path d="M138.707 158.754C139.284 159.696 138.988 160.927 138.047 161.504L137.62 161.765L133.44 154.944L133.867 154.683C134.808 154.106 136.04 154.401 136.617 155.343L138.707 158.754Z" fill="#D9D9D9"/>
<path d="M130.302 158.924L124.4 147.341L121.449 141.55L120.768 140.213L119.973 138.654L118.498 135.758L115.547 129.967L114.072 127.071L112.386 125.966L112.596 124.175L106.694 112.592" stroke="#D9D9D9"/>
<path d="M133.9 161.581C134.401 162.565 134.01 163.769 133.026 164.271L132.58 164.498L128.948 157.369L129.394 157.142C130.378 156.641 131.582 157.032 132.084 158.017L133.9 161.581Z" fill="#D9D9D9"/>
<path d="M125.508 161.091L120.533 149.081L118.045 143.076L117.471 141.69L116.802 140.073L115.558 137.07L113.071 131.065L111.827 128.063L110.233 126.828L110.583 125.06L105.608 113.049" stroke="#D9D9D9"/>
<path d="M128.886 164.021C129.309 165.042 128.824 166.212 127.804 166.635L127.342 166.826L124.28 159.435L124.742 159.243C125.763 158.821 126.933 159.305 127.355 160.326L128.886 164.021Z" fill="#D9D9D9"/>
<path d="M120.559 162.875L116.541 150.512L114.533 144.33L114.069 142.903L113.528 141.239L112.524 138.148L110.516 131.966L109.511 128.875L108.019 127.52L108.507 125.784L104.49 113.42" stroke="#D9D9D9"/>
<path d="M123.696 166.062C124.038 167.112 123.463 168.24 122.412 168.582L121.937 168.736L119.465 161.128L119.94 160.973C120.991 160.632 122.119 161.207 122.46 162.257L123.696 166.062Z" fill="#D9D9D9"/>
<path d="M115.484 164.265L112.45 151.625L110.932 145.304L110.582 143.846L110.173 142.144L109.415 138.984L107.897 132.663L107.139 129.503L105.758 128.035L106.38 126.343L103.345 113.702" stroke="#D9D9D9"/>
<path d="M118.363 167.688C118.621 168.762 117.959 169.842 116.885 170.1L116.399 170.216L114.532 162.437L115.018 162.321C116.092 162.063 117.172 162.725 117.429 163.799L118.363 167.688Z" fill="#D9D9D9"/>
<path d="M110.317 165.253L108.284 152.413L107.267 145.993L107.032 144.512L106.758 142.783L106.25 139.573L105.233 133.153L104.725 129.943L103.463 128.371L104.216 126.733L102.183 113.894" stroke="#D9D9D9"/>
<path d="M112.919 168.891C113.091 169.982 112.347 171.007 111.256 171.179L110.762 171.258L109.511 163.356L110.005 163.278C111.096 163.105 112.12 163.849 112.293 164.94L112.919 168.891Z" fill="#D9D9D9"/>
<path d="M105.088 165.833L104.068 152.873L103.558 146.393L103.44 144.897L103.303 143.153L103.048 139.913L102.538 133.433L102.283 130.193L101.149 128.527L102.028 126.953L101.008 113.993" stroke="#D9D9D9"/>
<path d="M107.396 169.663C107.482 170.765 106.66 171.727 105.559 171.814L105.06 171.853L104.433 163.878L104.931 163.839C106.032 163.752 106.995 164.575 107.082 165.676L107.396 169.663Z" fill="#D9D9D9"/>
<path d="M99.8301 166V153V146.5V145V143.25V140V133.5V130.25L98.8301 128.5L99.8301 127V114" stroke="#D9D9D9"/>
<path d="M101.83 170C101.83 171.105 100.935 172 99.8301 172H99.3301V164H99.8301C100.935 164 101.83 164.895 101.83 166V170Z" fill="#D9D9D9"/>
<path d="M94.5752 165.754L95.5952 152.794L96.1051 146.314L96.2228 144.819L96.3601 143.074L96.6151 139.834L97.1251 133.354L97.3801 130.114L96.5205 128.291L97.6351 126.874L98.6551 113.915" stroke="#D9D9D9"/>
<path d="M96.2546 169.899C96.1679 171 95.205 171.822 94.1038 171.736L93.6054 171.697L94.233 163.721L94.7315 163.76C95.8327 163.847 96.6551 164.81 96.5684 165.911L96.2546 169.899Z" fill="#D9D9D9"/>
<path d="M89.3545 165.097L91.3881 152.257L92.405 145.837L92.6396 144.355L92.9134 142.627L93.4218 139.417L94.4386 132.997L94.947 129.787L94.2331 127.902L95.4554 126.577L97.4891 113.737" stroke="#D9D9D9"/>
<path d="M90.7045 169.361C90.5317 170.452 89.5072 171.196 88.4162 171.023L87.9224 170.945L89.1739 163.043L89.6677 163.122C90.7587 163.294 91.503 164.319 91.3302 165.41L90.7045 169.361Z" fill="#D9D9D9"/>
<path d="M84.2031 164.032L87.2379 151.391L88.7553 145.071L89.1055 143.612L89.514 141.911L90.2727 138.751L91.7901 132.43L92.5488 129.27L91.985 127.335L93.3075 126.11L96.3423 113.469" stroke="#D9D9D9"/>
<path d="M85.214 168.389C84.9561 169.463 83.8764 170.124 82.8023 169.866L82.3161 169.75L84.1837 161.971L84.6699 162.087C85.7439 162.345 86.4056 163.425 86.1477 164.499L85.214 168.389Z" fill="#D9D9D9"/>
<path d="M79.1504 162.566L83.1676 150.203L85.1762 144.021L85.6397 142.594L86.1805 140.93L87.1848 137.839L89.1934 131.657L90.1977 128.566L89.7875 126.593L91.2021 125.475L95.2193 113.111" stroke="#D9D9D9"/>
<path d="M79.8163 166.989C79.4749 168.039 78.3466 168.614 77.2961 168.273L76.8206 168.118L79.2927 160.51L79.7683 160.664C80.8188 161.005 81.3937 162.134 81.0523 163.184L79.8163 166.989Z" fill="#D9D9D9"/>
<path d="M74.2285 160.709L79.2034 148.698L81.6908 142.693L82.2649 141.307L82.9346 139.69L84.1783 136.688L86.6657 130.683L87.9095 127.68L87.6553 125.681L89.1532 124.677L94.1281 112.667" stroke="#D9D9D9"/>
<path d="M74.5456 165.17C74.1229 166.19 72.953 166.675 71.9325 166.252L71.4706 166.061L74.532 158.67L74.994 158.861C76.0145 159.284 76.4991 160.454 76.0764 161.474L74.5456 165.17Z" fill="#D9D9D9"/>
<path d="M69.4668 158.47L75.3687 146.887L78.3196 141.096L79.0006 139.759L79.7951 138.2L81.2706 135.304L84.2215 129.513L85.697 126.617L85.6004 124.604L87.1724 123.721L93.0743 112.138" stroke="#D9D9D9"/>
<path d="M69.4334 162.942C68.9319 163.927 67.7276 164.318 66.7434 163.816L66.2979 163.589L69.9298 156.461L70.3753 156.688C71.3595 157.19 71.7508 158.394 71.2493 159.378L69.4334 162.942Z" fill="#D9D9D9"/>
<path d="M64.8965 155.866L71.689 144.781L75.0852 139.239L75.869 137.96L76.7833 136.468L78.4814 133.697L81.8777 128.155L83.5758 125.384L83.6375 123.369L85.2739 122.613L92.0664 111.528" stroke="#D9D9D9"/>
<path d="M64.5118 160.321C63.9347 161.263 62.7033 161.559 61.7615 160.981L61.3352 160.72L65.5152 153.899L65.9415 154.16C66.8833 154.738 67.1789 155.969 66.6018 156.911L64.5118 160.321Z" fill="#D9D9D9"/>
<path d="M60.5439 152.91L68.1852 142.393L72.0058 137.134L72.8874 135.921L73.9161 134.505L75.8264 131.876L79.647 126.617L81.5573 123.988L81.7769 121.984L83.4676 121.359L91.1088 110.841" stroke="#D9D9D9"/>
<path d="M59.8103 157.322C59.1611 158.216 57.9103 158.414 57.0167 157.764L56.6122 157.47L61.3145 150.998L61.719 151.292C62.6126 151.941 62.8107 153.192 62.1615 154.086L59.8103 157.322Z" fill="#D9D9D9"/>
<path d="M56.4365 149.623L64.8793 139.737L69.1008 134.795L70.0749 133.654L71.2115 132.323L73.3222 129.852L77.5436 124.909L79.6543 122.438L80.0304 120.458L81.765 119.967L90.2078 110.081" stroke="#D9D9D9"/>
<path d="M55.3594 153.963C54.6421 154.803 53.3797 154.902 52.5397 154.185L52.1595 153.86L57.3551 147.777L57.7353 148.102C58.5752 148.819 58.6746 150.082 57.9572 150.921L55.3594 153.963Z" fill="#D9D9D9"/>
<path d="M52.5996 146.023L61.792 136.83L66.3882 132.234L67.4489 131.173L68.6863 129.936L70.9844 127.638L75.5806 123.042L77.8787 120.744L78.409 118.799L80.1768 118.445L89.3692 109.253" stroke="#D9D9D9"/>
<path d="M51.1857 150.265C50.4046 151.046 49.1383 151.046 48.3573 150.265L48.0037 149.912L53.6606 144.255L54.0141 144.608C54.7952 145.389 54.7952 146.656 54.0141 147.437L51.1857 150.265Z" fill="#D9D9D9"/>
<path d="M49.0586 142.133L58.9439 133.69L63.8865 129.469L65.0271 128.494L66.3578 127.358L68.8292 125.247L73.7718 121.026L76.2431 118.915L76.9244 117.018L78.7144 116.804L88.5997 108.361" stroke="#D9D9D9"/>
<path d="M47.3157 146.251C46.4758 146.969 45.2134 146.869 44.496 146.029L44.1713 145.649L50.2545 140.454L50.5793 140.834C51.2966 141.674 51.1973 142.936 50.3574 143.654L47.3157 146.251Z" fill="#D9D9D9"/>
<path d="M45.832 137.977L56.3493 130.336L61.6079 126.515L62.8214 125.634L64.2372 124.605L66.8665 122.695L72.1251 118.874L74.7544 116.964L75.5824 115.126L77.3837 115.053L87.9009 107.412" stroke="#D9D9D9"/>
<path d="M43.7714 141.946C42.8777 142.596 41.627 142.397 40.9777 141.504L40.6839 141.099L47.156 136.397L47.4499 136.802C48.0991 137.695 47.901 138.946 47.0074 139.595L43.7714 141.946Z" fill="#D9D9D9"/>
<path d="M42.9424 133.581L54.0267 126.789L59.5689 123.392L60.8478 122.609L62.3399 121.694L65.111 119.996L70.6532 116.6L73.4243 114.902L74.3939 113.135L76.1954 113.204L87.2797 106.411" stroke="#D9D9D9"/>
<path d="M40.5764 137.376C39.6346 137.954 38.4032 137.658 37.8261 136.716L37.5648 136.29L44.386 132.11L44.6472 132.536C45.2244 133.478 44.9287 134.709 43.9869 135.286L40.5764 137.376Z" fill="#D9D9D9"/>
<path d="M40.4062 128.972L51.9893 123.07L57.7809 120.119L59.1174 119.438L60.6767 118.644L63.5724 117.168L69.364 114.217L72.2597 112.742L73.365 111.056L75.1555 111.266L86.7386 105.364" stroke="#D9D9D9"/>
<path d="M37.7498 132.57C36.7656 133.071 35.5613 132.68 35.0598 131.696L34.8328 131.25L41.9608 127.618L42.1878 128.064C42.6893 129.048 42.298 130.252 41.3138 130.754L37.7498 132.57Z" fill="#D9D9D9"/>
<path d="M38.2393 124.178L50.2497 119.203L56.2549 116.716L57.6407 116.142L59.2575 115.472L62.2601 114.228L68.2653 111.741L71.268 110.497L72.5021 108.903L74.2706 109.253L86.281 104.278" stroke="#D9D9D9"/>
<path d="M35.3087 127.556C34.2882 127.979 33.1183 127.495 32.6956 126.474L32.5042 126.012L39.8953 122.951L40.0866 123.413C40.5093 124.433 40.0247 125.603 39.0042 126.026L35.3087 127.556Z" fill="#D9D9D9"/>
<path d="M36.4541 119.229L48.8178 115.211L54.9997 113.203L56.4263 112.739L58.0906 112.199L61.1816 111.194L67.3634 109.186L70.4544 108.181L71.8097 106.689L73.5453 107.177L85.909 103.16" stroke="#D9D9D9"/>
<path d="M33.2683 122.367C32.2178 122.708 31.0895 122.133 30.7482 121.083L30.5937 120.607L38.2021 118.135L38.3566 118.611C38.698 119.661 38.1231 120.789 37.0726 121.131L33.2683 122.367Z" fill="#D9D9D9"/>
<path d="M35.0645 114.155L47.7053 111.12L54.0257 109.602L55.4842 109.252L57.1859 108.844L60.3461 108.085L66.6665 106.568L69.8267 105.809L71.2949 104.428L72.9869 105.05L85.6277 102.015" stroke="#D9D9D9"/>
<path d="M31.642 117.033C30.568 117.291 29.4882 116.629 29.2304 115.555L29.1137 115.069L36.8926 113.202L37.0093 113.688C37.2672 114.762 36.6055 115.841 35.5315 116.099L31.642 117.033Z" fill="#D9D9D9"/>
<path d="M34.0771 108.987L46.9171 106.954L53.3371 105.937L54.8186 105.702L56.5471 105.428L59.757 104.92L66.177 103.903L69.387 103.395L70.959 102.133L72.597 102.886L85.4369 100.853" stroke="#D9D9D9"/>
<path d="M30.4392 111.588C29.3483 111.761 28.3238 111.017 28.151 109.926L28.0728 109.432L35.9743 108.181L36.0525 108.674C36.2253 109.765 35.481 110.79 34.39 110.963L30.4392 111.588Z" fill="#D9D9D9"/>
<path d="M33.4971 103.758L46.457 102.738L52.937 102.228L54.4323 102.111L56.1769 101.973L59.4169 101.718L65.8969 101.208L69.1369 100.953L70.803 99.8192L72.3769 100.698L85.3368 99.6784" stroke="#D9D9D9"/>
<path d="M29.6667 106.066C28.5655 106.153 27.6026 105.33 27.5159 104.229L27.4767 103.731L35.452 103.103L35.4913 103.601C35.5779 104.703 34.7555 105.665 33.6544 105.752L29.6667 106.066Z" fill="#D9D9D9"/>
<path d="M33.3301 98.5H46.3301H52.8301H54.3301H56.0801H59.3301L65.8301 98.5H69.0801L70.8301 97.5L72.3301 98.5H85.3301" stroke="#D9D9D9"/>
<path d="M29.3301 100.5C28.2255 100.5 27.3301 99.6046 27.3301 98.5V98H35.3301V98.5C35.3301 99.6046 34.4346 100.5 33.3301 100.5H29.3301Z" fill="#D9D9D9"/>
<path d="M20.3301 67C20.3301 62.5817 23.9118 59 28.3301 59H172.33C176.748 59 180.33 62.5817 180.33 67V104H20.3301V67Z" fill="#2A3A3C"/>
<path d="M26.3301 69C26.3301 66.2386 28.5687 64 31.3301 64H169.33C172.092 64 174.33 66.2386 174.33 69V83H26.3301V69Z" fill="#6B7778"/>
<rect x="26.3301" y="94" width="148" height="4" fill="#6B7778"/>
<circle cx="100.33" cy="99" r="16" fill="#D9D9D9"/>
<circle cx="100.33" cy="99" r="11.75" stroke="#999A9E" stroke-width="0.5"/>
<rect x="26" y="86" width="148" height="5" fill="#D9D9D9"/>
<rect x="31" y="89" width="1" height="2" fill="#999A9E"/>
<rect x="33" y="89" width="1" height="2" fill="#999A9E"/>
<rect x="35" y="89" width="1" height="2" fill="#999A9E"/>
<rect x="39" y="89" width="1" height="2" fill="#999A9E"/>
<rect x="47" y="88" width="1" height="3" fill="#999A9E"/>
<rect x="41" y="89" width="1" height="2" fill="#999A9E"/>
<rect x="43" y="89" width="1" height="2" fill="#999A9E"/>
<rect x="45" y="89" width="1" height="2" fill="#999A9E"/>
<rect x="49" y="89" width="1" height="2" fill="#999A9E"/>
<rect x="57" y="88" width="1" height="3" fill="#999A9E"/>
<rect x="51" y="89" width="1" height="2" fill="#999A9E"/>
<rect x="53" y="89" width="1" height="2" fill="#999A9E"/>
<rect x="55" y="89" width="1" height="2" fill="#999A9E"/>
<rect x="59" y="89" width="1" height="2" fill="#999A9E"/>
<rect x="67" y="88" width="1" height="3" fill="#999A9E"/>
<rect x="61" y="89" width="1" height="2" fill="#999A9E"/>
<rect x="63" y="89" width="1" height="2" fill="#999A9E"/>
<rect x="65" y="89" width="1" height="2" fill="#999A9E"/>
<rect x="69" y="89" width="1" height="2" fill="#999A9E"/>
<rect x="77" y="88" width="1" height="3" fill="#999A9E"/>
<rect x="71" y="89" width="1" height="2" fill="#999A9E"/>
<rect x="73" y="89" width="1" height="2" fill="#999A9E"/>
<rect x="75" y="89" width="1" height="2" fill="#999A9E"/>
<rect x="79" y="89" width="1" height="2" fill="#999A9E"/>
<rect x="87" y="88" width="1" height="3" fill="#999A9E"/>
<rect x="81" y="89" width="1" height="2" fill="#999A9E"/>
<rect x="83" y="89" width="1" height="2" fill="#999A9E"/>
<rect x="85" y="89" width="1" height="2" fill="#999A9E"/>
<rect x="89" y="89" width="1" height="2" fill="#999A9E"/>
<rect x="97" y="88" width="1" height="3" fill="#999A9E"/>
<rect x="91" y="89" width="1" height="2" fill="#999A9E"/>
<rect x="93" y="89" width="1" height="2" fill="#999A9E"/>
<rect x="95" y="89" width="1" height="2" fill="#999A9E"/>
<rect x="99" y="89" width="1" height="2" fill="#999A9E"/>
<rect x="107" y="88" width="1" height="3" fill="#999A9E"/>
<rect x="101" y="89" width="1" height="2" fill="#999A9E"/>
<rect x="103" y="89" width="1" height="2" fill="#999A9E"/>
<rect x="105" y="89" width="1" height="2" fill="#999A9E"/>
<rect x="109" y="89" width="1" height="2" fill="#999A9E"/>
<rect x="117" y="88" width="1" height="3" fill="#999A9E"/>
<rect x="111" y="89" width="1" height="2" fill="#999A9E"/>
<rect x="113" y="89" width="1" height="2" fill="#999A9E"/>
<rect x="115" y="89" width="1" height="2" fill="#999A9E"/>
<rect x="119" y="89" width="1" height="2" fill="#999A9E"/>
<rect x="127" y="88" width="1" height="3" fill="#999A9E"/>
<rect x="121" y="89" width="1" height="2" fill="#999A9E"/>
<rect x="123" y="89" width="1" height="2" fill="#999A9E"/>
<rect x="125" y="89" width="1" height="2" fill="#999A9E"/>
<rect x="129" y="89" width="1" height="2" fill="#999A9E"/>
<rect x="137" y="88" width="1" height="3" fill="#999A9E"/>
<rect x="131" y="89" width="1" height="2" fill="#999A9E"/>
<rect x="133" y="89" width="1" height="2" fill="#999A9E"/>
<rect x="135" y="89" width="1" height="2" fill="#999A9E"/>
<rect x="139" y="89" width="1" height="2" fill="#999A9E"/>
<rect x="147" y="88" width="1" height="3" fill="#999A9E"/>
<rect x="141" y="89" width="1" height="2" fill="#999A9E"/>
<rect x="143" y="89" width="1" height="2" fill="#999A9E"/>
<rect x="145" y="89" width="1" height="2" fill="#999A9E"/>
<rect x="149" y="89" width="1" height="2" fill="#999A9E"/>
<rect x="157" y="88" width="1" height="3" fill="#999A9E"/>
<rect x="151" y="89" width="1" height="2" fill="#999A9E"/>
<rect x="153" y="89" width="1" height="2" fill="#999A9E"/>
<rect x="155" y="89" width="1" height="2" fill="#999A9E"/>
<rect x="159" y="89" width="1" height="2" fill="#999A9E"/>
<rect x="167" y="88" width="1" height="3" fill="#999A9E"/>
<rect x="161" y="89" width="1" height="2" fill="#999A9E"/>
<rect x="163" y="89" width="1" height="2" fill="#999A9E"/>
<rect x="165" y="89" width="1" height="2" fill="#999A9E"/>
<rect x="169" y="89" width="1" height="2" fill="#999A9E"/>
<rect x="37" y="88" width="1" height="3" fill="#999A9E"/>
<rect x="29" y="89" width="1" height="2" fill="#999A9E"/>
<path d="M51 32L100 6L149 32V102H51V32Z" fill="#FFFBFC"/>
<rect x="93" y="98" width="14" height="4" fill="#D9D9D9"/>
<path fill-rule="evenodd" clip-rule="evenodd" d="M97 93H98V96H102V93H103V96V98V103H97V98V96V93Z" fill="#999A9E"/>
<rect x="72.3301" y="101" width="54" height="3" fill="#1E1E1E"/>
<path fill-rule="evenodd" clip-rule="evenodd" d="M186.675 98V149.25L100.505 199L14.3359 149.25V98H21.0014H28.0014H68.8774H74.3433C75.4686 98 77.7197 98.4726 77.7197 101.714V107.791C77.7197 115.556 73.1957 122.038 64.553 123.658C63.0154 123.946 61.651 124.196 60.3783 124.429C54.4968 125.506 50.5743 126.224 40.5829 128.722C37.882 129.397 37.3419 131.356 37.882 136.487C38.5573 142.902 40.5826 148.979 48.3475 148.979C51.2299 148.979 56.0195 148.746 62.0429 148.454C72.2464 147.958 85.9904 147.291 100.001 147.291C114.012 147.291 127.756 147.958 137.96 148.454C143.983 148.746 148.773 148.979 151.655 148.979C159.42 148.979 161.445 142.902 162.121 136.487C162.661 131.356 162.121 129.397 159.42 128.722C149.428 126.224 145.506 125.506 139.625 124.429C138.352 124.196 136.987 123.946 135.45 123.658C126.807 122.038 122.283 115.556 122.283 107.791V101.714C122.283 98.4726 124.534 98 125.66 98H131.125H169.001H179.001H186.675Z" fill="#2A3A3C"/>
<path d="M63.1776 56.7273V58.6591H57.5934V56.7273H63.1776ZM58.8611 54.5057H61.4329V63.1506C61.4329 63.388 61.4691 63.5732 61.5415 63.706C61.614 63.8348 61.7146 63.9253 61.8434 63.9776C61.9762 64.0299 62.1291 64.0561 62.3022 64.0561C62.4229 64.0561 62.5437 64.046 62.6644 64.0259C62.7852 64.0018 62.8777 63.9837 62.9421 63.9716L63.3466 65.8853C63.2178 65.9255 63.0367 65.9718 62.8033 66.0241C62.5698 66.0805 62.2861 66.1147 61.9521 66.1268C61.3323 66.1509 60.7889 66.0684 60.3221 65.8793C59.8593 65.6901 59.499 65.3963 59.2415 64.9979C58.9839 64.5994 58.8571 64.0964 58.8611 63.4886V54.5057ZM66.2705 69.4773C65.9445 69.4773 65.6386 69.4511 65.3529 69.3988C65.0712 69.3505 64.8377 69.2881 64.6526 69.2116L65.2322 67.2919C65.534 67.3845 65.8057 67.4348 66.0471 67.4428C66.2926 67.4509 66.5039 67.3945 66.681 67.2738C66.8621 67.1531 67.009 66.9478 67.1217 66.658L67.2726 66.2656L63.9463 56.7273H66.6508L68.5706 63.5369H68.6672L70.605 56.7273H73.3277L69.7236 67.0021C69.5506 67.5012 69.3151 67.9358 69.0173 68.3061C68.7235 68.6804 68.3512 68.9682 67.9005 69.1694C67.4497 69.3746 66.9064 69.4773 66.2705 69.4773ZM74.4737 69.4773V56.7273H77.0092V58.2848H77.124C77.2366 58.0353 77.3996 57.7817 77.6129 57.5241C77.8303 57.2625 78.112 57.0452 78.4581 56.8722C78.8083 56.6951 79.2429 56.6065 79.7621 56.6065C80.4382 56.6065 81.062 56.7836 81.6335 57.1378C82.205 57.4879 82.6618 58.0172 83.0039 58.7255C83.346 59.4298 83.5171 60.3132 83.5171 61.3757C83.5171 62.41 83.35 63.2834 83.016 63.9957C82.686 64.7041 82.2352 65.2414 81.6637 65.6076C81.0963 65.9698 80.4604 66.1509 79.7561 66.1509C79.257 66.1509 78.8324 66.0684 78.4823 65.9034C78.1361 65.7384 77.8524 65.5311 77.6311 65.2816C77.4097 65.0281 77.2407 64.7725 77.124 64.5149H77.0455V69.4773H74.4737ZM76.9911 61.3636C76.9911 61.915 77.0676 62.396 77.2205 62.8065C77.3735 63.217 77.5948 63.5369 77.8846 63.7663C78.1744 63.9917 78.5265 64.1044 78.9411 64.1044C79.3596 64.1044 79.7138 63.9897 80.0036 63.7603C80.2933 63.5269 80.5127 63.2049 80.6616 62.7944C80.8145 62.3799 80.891 61.9029 80.891 61.3636C80.891 60.8284 80.8165 60.3575 80.6676 59.951C80.5187 59.5445 80.2994 59.2266 80.0096 58.9972C79.7198 58.7678 79.3637 58.6531 78.9411 58.6531C78.5225 58.6531 78.1683 58.7637 77.8786 58.9851C77.5928 59.2064 77.3735 59.5204 77.2205 59.9268C77.0676 60.3333 76.9911 60.8123 76.9911 61.3636ZM89.2874 66.1811C88.3336 66.1811 87.5125 65.9879 86.8243 65.6016C86.1401 65.2112 85.6129 64.6598 85.2427 63.9474C84.8724 63.2311 84.6873 62.3839 84.6873 61.4059C84.6873 60.4521 84.8724 59.6149 85.2427 58.8945C85.6129 58.1741 86.1341 57.6127 86.8062 57.2102C87.4824 56.8078 88.2752 56.6065 89.1848 56.6065C89.7965 56.6065 90.366 56.7051 90.8932 56.9023C91.4245 57.0955 91.8873 57.3873 92.2817 57.7777C92.6802 58.1681 92.9901 58.6591 93.2114 59.2507C93.4328 59.8383 93.5434 60.5265 93.5434 61.3153V62.0217H85.7135V60.4279H91.1226C91.1226 60.0576 91.0421 59.7296 90.8812 59.4439C90.7202 59.1581 90.4968 58.9348 90.2111 58.7738C89.9293 58.6088 89.6013 58.5263 89.227 58.5263C88.8366 58.5263 88.4905 58.6168 88.1887 58.7979C87.8909 58.975 87.6574 59.2145 87.4884 59.5163C87.3194 59.8142 87.2328 60.1462 87.2288 60.5124V62.0277C87.2288 62.4865 87.3133 62.8829 87.4824 63.217C87.6554 63.551 87.8989 63.8086 88.2128 63.9897C88.5267 64.1708 88.899 64.2614 89.3297 64.2614C89.6154 64.2614 89.877 64.2211 90.1145 64.1406C90.3519 64.0601 90.5552 63.9394 90.7242 63.7784C90.8932 63.6174 91.022 63.4202 91.1106 63.1868L93.4891 63.3438C93.3684 63.9152 93.1209 64.4143 92.7466 64.8409C92.3763 65.2635 91.8974 65.5935 91.3098 65.831C90.7262 66.0644 90.0521 66.1811 89.2874 66.1811ZM96.8145 66L94.2911 56.7273H96.893L98.3298 62.9574H98.4143L99.9114 56.7273H102.465L103.986 62.9212H104.065L105.477 56.7273H108.073L105.556 66H102.833L101.24 60.1683H101.125L99.5311 66H96.8145ZM109.275 66V56.7273H111.769V58.3452H111.865C112.034 57.7696 112.318 57.335 112.716 57.0412C113.115 56.7434 113.574 56.5945 114.093 56.5945C114.222 56.5945 114.36 56.6025 114.509 56.6186C114.658 56.6347 114.789 56.6568 114.902 56.685V58.967C114.781 58.9308 114.614 58.8986 114.401 58.8704C114.187 58.8422 113.992 58.8281 113.815 58.8281C113.437 58.8281 113.099 58.9106 112.801 59.0756C112.507 59.2366 112.274 59.462 112.101 59.7518C111.932 60.0415 111.847 60.3756 111.847 60.7539V66H109.275ZM116.061 66V56.7273H118.633V66H116.061ZM117.353 55.532C116.971 55.532 116.643 55.4052 116.369 55.1516C116.1 54.8941 115.965 54.5862 115.965 54.228C115.965 53.8738 116.1 53.57 116.369 53.3164C116.643 53.0588 116.971 52.93 117.353 52.93C117.736 52.93 118.062 53.0588 118.331 53.3164C118.605 53.57 118.742 53.8738 118.742 54.228C118.742 54.5862 118.605 54.8941 118.331 55.1516C118.062 55.4052 117.736 55.532 117.353 55.532ZM125.455 56.7273V58.6591H119.871V56.7273H125.455ZM121.139 54.5057H123.711V63.1506C123.711 63.388 123.747 63.5732 123.819 63.706C123.892 63.8348 123.992 63.9253 124.121 63.9776C124.254 64.0299 124.407 64.0561 124.58 64.0561C124.701 64.0561 124.821 64.046 124.942 64.0259C125.063 64.0018 125.155 63.9837 125.22 63.9716L125.624 65.8853C125.496 65.9255 125.314 65.9718 125.081 66.0241C124.848 66.0805 124.564 66.1147 124.23 66.1268C123.61 66.1509 123.067 66.0684 122.6 65.8793C122.137 65.6901 121.777 65.3963 121.519 64.9979C121.262 64.5994 121.135 64.0964 121.139 63.4886V54.5057ZM131.087 66.1811C130.133 66.1811 129.312 65.9879 128.624 65.6016C127.94 65.2112 127.412 64.6598 127.042 63.9474C126.672 63.2311 126.487 62.3839 126.487 61.4059C126.487 60.4521 126.672 59.6149 127.042 58.8945C127.412 58.1741 127.934 57.6127 128.606 57.2102C129.282 56.8078 130.075 56.6065 130.984 56.6065C131.596 56.6065 132.165 56.7051 132.693 56.9023C133.224 57.0955 133.687 57.3873 134.081 57.7777C134.48 58.1681 134.789 58.6591 135.011 59.2507C135.232 59.8383 135.343 60.5265 135.343 61.3153V62.0217H127.513V60.4279H132.922C132.922 60.0576 132.842 59.7296 132.681 59.4439C132.52 59.1581 132.296 58.9348 132.01 58.7738C131.729 58.6088 131.401 58.5263 131.026 58.5263C130.636 58.5263 130.29 58.6168 129.988 58.7979C129.69 58.975 129.457 59.2145 129.288 59.5163C129.119 59.8142 129.032 60.1462 129.028 60.5124V62.0277C129.028 62.4865 129.113 62.8829 129.282 63.217C129.455 63.551 129.698 63.8086 130.012 63.9897C130.326 64.1708 130.698 64.2614 131.129 64.2614C131.415 64.2614 131.676 64.2211 131.914 64.1406C132.151 64.0601 132.355 63.9394 132.524 63.7784C132.693 63.6174 132.821 63.4202 132.91 63.1868L135.289 63.3438C135.168 63.9152 134.92 64.4143 134.546 64.8409C134.176 65.2635 133.697 65.5935 133.109 65.831C132.526 66.0644 131.851 66.1811 131.087 66.1811ZM136.851 66V56.7273H139.344V58.3452H139.441C139.61 57.7696 139.894 57.335 140.292 57.0412C140.691 56.7434 141.149 56.5945 141.669 56.5945C141.797 56.5945 141.936 56.6025 142.085 56.6186C142.234 56.6347 142.365 56.6568 142.478 56.685V58.967C142.357 58.9308 142.19 58.8986 141.976 58.8704C141.763 58.8422 141.568 58.8281 141.391 58.8281C141.013 58.8281 140.675 58.9106 140.377 59.0756C140.083 59.2366 139.849 59.462 139.676 59.7518C139.507 60.0415 139.423 60.3756 139.423 60.7539V66H136.851Z" fill="#1E1E1E"/>
<rect x="30" y="78" width="1" height="7" fill="#D9D9D9"/>
<rect x="30" y="77" width="144" height="1" fill="#D9D9D9"/>
<rect x="173" y="78" width="1" height="7" fill="#D9D9D9"/>
<rect x="143" y="76" width="7" height="3" rx="1" fill="#999A9E"/>
<rect x="57" y="76" width="7" height="3" rx="1" fill="#999A9E"/>
<rect x="169" y="84" width="6" height="9" fill="#999A9E"/>
<path d="M169 84L175 81V84H169Z" fill="#999A9E"/>
<path d="M32 84L26 81V84H32Z" fill="#999A9E"/>
<rect x="26" y="84" width="6" height="9" fill="#999A9E"/>
<rect x="25" y="78" width="3" height="16" rx="1.5" fill="#D9D9D9"/>
<rect x="27.0508" y="77.25" width="3" height="13.4609" rx="1.5" transform="rotate(60 27.0508 77.25)" fill="#6B7778"/>
<circle cx="26.5" cy="79.25" r="0.5" fill="#D9D9D9"/>
<path d="M17.3975 52.3094L100 4.6188L182.603 52.3094V147.691L100 195.381L17.3975 147.691V52.3094Z" stroke="black" stroke-width="8"/>
</svg>
