<svg width="354" height="283" viewBox="0 0 354 283" fill="none" xmlns="http://www.w3.org/2000/svg">
<path d="M17 0C7.61116 0 0 7.61116 0 17V266C0 275.389 7.61117 283 17 283H337C346.389 283 354 275.389 354 266V47C354 37.6112 346.389 30 337 30H190C182 30 175 26.5 173 17C171.066 7.81255 165.389 0 156 0H17Z" fill="#FFFBFC"/>
<path d="M0.5 17C0.5 7.8873 7.8873 0.5 17 0.5H156C165.037 0.5 170.597 8.01105 172.511 17.103C173.534 21.9644 175.85 25.3314 178.967 27.4745C182.074 29.6105 185.932 30.5 190 30.5H337C346.113 30.5 353.5 37.8873 353.5 47V266C353.5 275.113 346.113 282.5 337 282.5H17C7.88731 282.5 0.5 275.113 0.5 266V17Z" stroke="#1E1E1E" stroke-opacity="0.6"/>
</svg>
