<?xml version="1.0" encoding="UTF-8"?>
<svg xmlns="http://www.w3.org/2000/svg" xmlns:xlink="http://www.w3.org/1999/xlink" width="504pt" height="504pt" viewBox="0 0 504 504" version="1.1">
<g id="surface79">
<path style=" stroke:none;fill-rule:nonzero;fill:rgb(21.960784%,72.156863%,45.098039%);fill-opacity:0.501961;" d="M 22.910156 478.167969 L 23.804688 478.0625 L 24.703125 477.941406 L 25.597656 477.808594 L 26.496094 477.664062 L 27.390625 477.507812 L 28.289062 477.328125 L 29.1875 477.136719 L 30.082031 476.929688 L 30.980469 476.699219 L 31.875 476.445312 L 32.773438 476.171875 L 33.667969 475.878906 L 34.566406 475.550781 L 35.460938 475.195312 L 36.359375 474.8125 L 37.253906 474.402344 L 38.152344 473.945312 L 39.046875 473.453125 L 39.945312 472.925781 L 40.84375 472.355469 L 41.738281 471.730469 L 42.636719 471.0625 L 43.53125 470.351562 L 44.429688 469.570312 L 45.324219 468.730469 L 46.222656 467.835938 L 47.117188 466.886719 L 48.015625 465.84375 L 48.910156 464.734375 L 49.808594 463.554688 L 50.703125 462.296875 L 51.601562 460.933594 L 52.5 459.492188 L 53.394531 457.96875 L 54.292969 456.328125 L 55.1875 454.578125 L 56.085938 452.734375 L 56.980469 450.792969 L 57.878906 448.695312 L 58.773438 446.488281 L 59.671875 444.171875 L 60.566406 441.726562 L 61.464844 439.109375 L 62.359375 436.367188 L 63.257812 433.503906 L 64.15625 430.46875 L 65.050781 427.265625 L 65.949219 423.925781 L 66.84375 420.445312 L 67.742188 416.75 L 68.636719 412.894531 L 69.535156 408.894531 L 70.429688 404.722656 L 71.328125 400.328125 L 72.222656 395.777344 L 73.121094 391.066406 L 74.015625 386.152344 L 74.914062 381.03125 L 75.8125 375.753906 L 76.707031 370.3125 L 77.605469 364.636719 L 78.5 358.785156 L 79.398438 352.777344 L 80.292969 346.601562 L 81.191406 340.195312 L 82.085938 333.636719 L 82.984375 326.933594 L 83.878906 320.050781 L 84.777344 312.984375 L 85.671875 305.785156 L 86.570312 298.460938 L 87.46875 290.960938 L 88.363281 283.332031 L 89.261719 275.597656 L 90.15625 267.761719 L 91.054688 259.789062 L 91.949219 251.738281 L 92.847656 243.621094 L 93.742188 235.425781 L 94.640625 227.171875 L 95.535156 218.882812 L 96.433594 210.566406 L 97.328125 202.234375 L 98.226562 193.90625 L 99.125 185.597656 L 100.019531 177.3125 L 100.917969 169.097656 L 101.8125 160.941406 L 102.710938 152.859375 L 103.605469 144.878906 L 104.503906 137.039062 L 105.398438 129.320312 L 106.296875 121.730469 L 107.191406 114.34375 L 108.089844 107.152344 L 108.984375 100.140625 L 109.882812 93.3125 L 110.78125 86.804688 L 111.675781 80.527344 L 112.574219 74.480469 L 113.46875 68.714844 L 114.367188 63.316406 L 115.261719 58.195312 L 116.160156 53.351562 L 117.054688 48.898438 L 117.953125 44.824219 L 118.847656 41.058594 L 119.746094 37.613281 L 120.644531 34.671875 L 121.539062 32.085938 L 122.4375 29.839844 L 123.332031 27.984375 L 124.230469 26.640625 L 125.125 25.652344 L 126.023438 25.019531 L 126.917969 24.855469 L 127.816406 25.144531 L 128.710938 25.796875 L 129.609375 26.800781 L 130.503906 28.335938 L 131.402344 30.25 L 132.300781 32.507812 L 133.195312 35.144531 L 134.09375 38.273438 L 134.988281 41.730469 L 135.886719 45.503906 L 136.78125 49.679688 L 137.679688 54.242188 L 138.574219 59.09375 L 139.472656 64.226562 L 140.367188 69.757812 L 141.265625 75.566406 L 142.160156 81.617188 L 143.058594 87.917969 L 143.957031 94.546875 L 144.851562 101.375 L 145.75 108.390625 L 146.644531 115.625 L 147.542969 123.070312 L 148.4375 130.65625 L 149.335938 138.375 L 150.230469 146.257812 L 151.128906 154.253906 L 152.023438 162.332031 L 152.921875 170.484375 L 153.816406 178.726562 L 154.714844 187 L 155.613281 195.304688 L 156.507812 203.628906 L 157.40625 211.953125 L 158.300781 220.257812 L 159.199219 228.539062 L 160.09375 236.773438 L 160.992188 244.945312 L 161.886719 253.054688 L 162.785156 261.101562 L 163.679688 269.019531 L 164.578125 276.839844 L 165.472656 284.566406 L 166.371094 292.171875 L 167.269531 299.613281 L 168.164062 306.929688 L 169.0625 314.121094 L 169.957031 321.132812 L 170.855469 327.976562 L 171.75 334.671875 L 172.648438 341.226562 L 173.542969 347.546875 L 174.441406 353.707031 L 175.335938 359.710938 L 176.234375 365.535156 L 177.128906 371.132812 L 178.027344 376.570312 L 178.925781 381.847656 L 179.820312 386.914062 L 180.71875 391.777344 L 181.613281 396.488281 L 182.511719 401.039062 L 183.40625 405.355469 L 184.304688 409.507812 L 185.199219 413.511719 L 186.097656 417.34375 L 186.992188 420.96875 L 187.890625 424.449219 L 188.785156 427.789062 L 189.683594 430.949219 L 190.582031 433.945312 L 191.476562 436.808594 L 192.375 439.550781 L 193.269531 442.109375 L 194.167969 444.539062 L 195.0625 446.859375 L 195.960938 449.054688 L 196.855469 451.097656 L 197.753906 453.039062 L 198.648438 454.882812 L 199.546875 456.605469 L 200.441406 458.214844 L 201.339844 459.738281 L 202.238281 461.179688 L 203.132812 462.507812 L 204.03125 463.753906 L 204.925781 464.933594 L 205.824219 466.035156 L 206.71875 467.046875 L 207.617188 467.996094 L 208.511719 468.886719 L 209.410156 469.714844 L 210.304688 470.472656 L 211.203125 471.1875 L 212.101562 471.851562 L 212.996094 472.460938 L 213.894531 473.023438 L 214.789062 473.546875 L 215.6875 474.035156 L 216.582031 474.476562 L 217.480469 474.882812 L 218.375 475.265625 L 219.273438 475.613281 L 220.167969 475.929688 L 221.066406 476.222656 L 221.960938 476.496094 L 222.859375 476.742188 L 223.757812 476.964844 L 224.652344 477.171875 L 225.550781 477.363281 L 226.445312 477.53125 L 227.34375 477.6875 L 228.238281 477.832031 L 229.136719 477.960938 L 230.03125 478.078125 L 230.929688 478.183594 L 231.824219 478.28125 L 232.722656 478.367188 L 233.617188 478.445312 L 234.515625 478.515625 L 235.414062 478.582031 L 236.308594 478.640625 L 237.207031 478.691406 L 238.101562 478.738281 L 239 478.777344 L 239.894531 478.8125 L 240.792969 478.847656 L 241.6875 478.875 L 242.585938 478.898438 L 243.480469 478.921875 L 244.378906 478.9375 L 245.273438 478.953125 L 246.171875 478.96875 L 247.070312 478.976562 L 247.964844 478.984375 L 248.863281 478.992188 L 251.550781 478.992188 L 252.449219 478.988281 L 253.34375 478.980469 L 254.242188 478.972656 L 255.136719 478.960938 L 256.035156 478.945312 L 256.929688 478.929688 L 257.828125 478.910156 L 258.726562 478.886719 L 259.621094 478.859375 L 260.519531 478.828125 L 261.414062 478.792969 L 262.3125 478.753906 L 263.207031 478.707031 L 264.105469 478.660156 L 265 478.605469 L 265.898438 478.542969 L 266.792969 478.472656 L 267.691406 478.394531 L 268.585938 478.3125 L 269.484375 478.21875 L 270.382812 478.113281 L 271.277344 478 L 272.175781 477.875 L 273.070312 477.734375 L 273.96875 477.582031 L 274.863281 477.414062 L 275.761719 477.230469 L 276.65625 477.027344 L 277.554688 476.808594 L 278.449219 476.570312 L 279.347656 476.304688 L 280.242188 476.015625 L 281.140625 475.707031 L 282.039062 475.367188 L 282.933594 474.992188 L 283.832031 474.589844 L 284.726562 474.160156 L 285.625 473.683594 L 286.519531 473.167969 L 287.417969 472.613281 L 288.3125 472.023438 L 289.210938 471.367188 L 290.105469 470.664062 L 291.003906 469.917969 L 291.898438 469.113281 L 292.796875 468.234375 L 293.695312 467.296875 L 294.589844 466.304688 L 295.488281 465.226562 L 296.382812 464.066406 L 297.28125 462.835938 L 298.175781 461.535156 L 299.074219 460.117188 L 299.96875 458.617188 L 300.867188 457.027344 L 301.761719 455.34375 L 302.660156 453.523438 L 303.558594 451.609375 L 304.453125 449.59375 L 305.351562 447.441406 L 306.246094 445.152344 L 307.144531 442.75 L 308.039062 440.234375 L 308.9375 437.539062 L 309.832031 434.707031 L 310.730469 431.746094 L 311.625 428.644531 L 312.523438 425.34375 L 313.417969 421.902344 L 314.316406 418.316406 L 315.214844 414.550781 L 316.109375 410.589844 L 317.007812 406.480469 L 317.902344 402.21875 L 318.800781 397.730469 L 319.695312 393.066406 L 320.59375 388.246094 L 321.488281 383.257812 L 322.386719 378.027344 L 323.28125 372.640625 L 324.179688 367.089844 L 325.074219 361.34375 L 325.972656 355.386719 L 326.871094 349.277344 L 327.765625 343.011719 L 328.664062 336.527344 L 329.558594 329.878906 L 330.457031 323.085938 L 331.351562 316.144531 L 332.25 308.996094 L 333.144531 301.722656 L 334.042969 294.324219 L 334.9375 286.785156 L 335.835938 279.097656 L 336.730469 271.308594 L 337.628906 263.429688 L 338.527344 255.433594 L 339.421875 247.351562 L 340.320312 239.207031 L 341.214844 231.007812 L 342.113281 222.746094 L 343.007812 214.457031 L 343.90625 206.152344 L 344.800781 197.839844 L 345.699219 189.542969 L 346.59375 181.269531 L 347.492188 173.035156 L 348.386719 164.863281 L 349.285156 156.777344 L 350.183594 148.769531 L 351.078125 140.851562 L 351.976562 133.105469 L 352.871094 125.492188 L 353.769531 118.019531 L 354.664062 110.714844 L 355.5625 103.660156 L 356.457031 96.785156 L 357.355469 90.109375 L 358.25 83.710938 L 359.148438 77.601562 L 360.042969 71.726562 L 360.941406 66.101562 L 361.839844 60.875 L 362.734375 55.949219 L 363.632812 51.304688 L 364.527344 46.988281 L 365.425781 43.125 L 366.320312 39.578125 L 367.21875 36.355469 L 368.113281 33.558594 L 369.011719 31.199219 L 369.90625 29.183594 L 370.804688 27.511719 L 371.699219 26.363281 L 372.597656 25.605469 L 373.496094 25.207031 L 374.390625 25.191406 L 375.289062 25.714844 L 376.183594 26.589844 L 377.082031 27.824219 L 377.976562 29.5 L 378.875 31.636719 L 379.769531 34.113281 L 380.667969 36.925781 L 381.5625 40.21875 L 382.460938 43.875 L 383.355469 47.847656 L 384.253906 52.140625 L 385.152344 56.886719 L 386.046875 61.914062 L 386.945312 67.214844 L 387.839844 72.84375 L 388.738281 78.804688 L 389.632812 85 L 390.53125 91.421875 L 391.425781 98.140625 L 392.324219 105.082031 L 393.21875 112.207031 L 394.117188 119.503906 L 395.015625 127.039062 L 395.910156 134.703125 L 396.808594 142.492188 L 397.703125 150.414062 L 398.601562 158.460938 L 399.496094 166.578125 L 400.394531 174.765625 L 401.289062 183.019531 L 402.1875 191.3125 L 403.082031 199.621094 L 403.980469 207.945312 L 404.875 216.257812 L 405.773438 224.546875 L 406.671875 232.804688 L 407.566406 241.015625 L 408.464844 249.148438 L 409.359375 257.210938 L 410.257812 265.203125 L 411.152344 273.082031 L 412.050781 280.84375 L 412.945312 288.5 L 413.84375 296.050781 L 414.738281 303.417969 L 415.636719 310.65625 L 416.53125 317.761719 L 417.429688 324.714844 L 418.328125 331.464844 L 419.222656 338.066406 L 420.121094 344.523438 L 421.015625 350.777344 L 421.914062 356.835938 L 422.808594 362.738281 L 423.707031 368.484375 L 424.601562 373.992188 L 425.5 379.324219 L 426.394531 384.5 L 427.292969 389.496094 L 428.1875 394.257812 L 429.085938 398.863281 L 429.984375 403.3125 L 430.878906 407.566406 L 431.777344 411.617188 L 432.671875 415.523438 L 433.570312 419.28125 L 434.464844 422.824219 L 435.363281 426.210938 L 436.257812 429.460938 L 437.15625 432.566406 L 438.050781 435.472656 L 438.949219 438.257812 L 439.84375 440.914062 L 440.742188 443.421875 L 441.640625 445.777344 L 442.535156 448.023438 L 443.433594 450.160156 L 444.328125 452.148438 L 445.226562 454.023438 L 446.121094 455.804688 L 447.019531 457.488281 L 447.914062 459.039062 L 448.8125 460.507812 L 449.707031 461.898438 L 450.605469 463.195312 L 451.5 464.390625 L 452.398438 465.523438 L 453.296875 466.589844 L 454.191406 467.566406 L 455.089844 468.476562 L 455.984375 469.335938 L 456.882812 470.136719 L 457.777344 470.863281 L 458.675781 471.546875 L 459.570312 472.183594 L 460.46875 472.773438 L 461.363281 473.308594 L 462.261719 473.8125 L 463.15625 474.28125 L 464.054688 474.703125 L 464.953125 475.09375 L 465.847656 475.457031 L 466.746094 475.792969 L 467.640625 476.09375 L 468.539062 476.375 L 469.433594 476.632812 L 470.332031 476.871094 L 471.226562 477.082031 L 472.125 477.277344 L 473.019531 477.460938 L 473.917969 477.621094 L 474.8125 477.769531 L 475.710938 477.90625 L 476.609375 478.03125 L 477.503906 478.140625 L 478.402344 478.242188 L 479.296875 478.335938 L 480.195312 478.417969 L 481.089844 478.492188 L 481.089844 479.144531 L 22.910156 479.144531 Z M 22.910156 478.167969 "/>
<path style="fill:none;stroke-width:2.133957;stroke-linecap:round;stroke-linejoin:round;stroke:rgb(21.960784%,72.156863%,45.098039%);stroke-opacity:1;stroke-miterlimit:10;" d="M 22.910156 478.167969 L 23.804688 478.0625 L 24.703125 477.941406 L 25.597656 477.808594 L 26.496094 477.664062 L 27.390625 477.507812 L 28.289062 477.328125 L 29.1875 477.136719 L 30.082031 476.929688 L 30.980469 476.699219 L 31.875 476.445312 L 32.773438 476.171875 L 33.667969 475.878906 L 34.566406 475.550781 L 35.460938 475.195312 L 36.359375 474.8125 L 37.253906 474.402344 L 38.152344 473.945312 L 39.046875 473.453125 L 39.945312 472.925781 L 40.84375 472.355469 L 41.738281 471.730469 L 42.636719 471.0625 L 43.53125 470.351562 L 44.429688 469.570312 L 45.324219 468.730469 L 46.222656 467.835938 L 47.117188 466.886719 L 48.015625 465.84375 L 48.910156 464.734375 L 49.808594 463.554688 L 50.703125 462.296875 L 51.601562 460.933594 L 52.5 459.492188 L 53.394531 457.96875 L 54.292969 456.328125 L 55.1875 454.578125 L 56.085938 452.734375 L 56.980469 450.792969 L 57.878906 448.695312 L 58.773438 446.488281 L 59.671875 444.171875 L 60.566406 441.726562 L 61.464844 439.109375 L 62.359375 436.367188 L 63.257812 433.503906 L 64.15625 430.46875 L 65.050781 427.265625 L 65.949219 423.925781 L 66.84375 420.445312 L 67.742188 416.75 L 68.636719 412.894531 L 69.535156 408.894531 L 70.429688 404.722656 L 71.328125 400.328125 L 72.222656 395.777344 L 73.121094 391.066406 L 74.015625 386.152344 L 74.914062 381.03125 L 75.8125 375.753906 L 76.707031 370.3125 L 77.605469 364.636719 L 78.5 358.785156 L 79.398438 352.777344 L 80.292969 346.601562 L 81.191406 340.195312 L 82.085938 333.636719 L 82.984375 326.933594 L 83.878906 320.050781 L 84.777344 312.984375 L 85.671875 305.785156 L 86.570312 298.460938 L 87.46875 290.960938 L 88.363281 283.332031 L 89.261719 275.597656 L 90.15625 267.761719 L 91.054688 259.789062 L 91.949219 251.738281 L 92.847656 243.621094 L 93.742188 235.425781 L 94.640625 227.171875 L 95.535156 218.882812 L 96.433594 210.566406 L 97.328125 202.234375 L 98.226562 193.90625 L 99.125 185.597656 L 100.019531 177.3125 L 100.917969 169.097656 L 101.8125 160.941406 L 102.710938 152.859375 L 103.605469 144.878906 L 104.503906 137.039062 L 105.398438 129.320312 L 106.296875 121.730469 L 107.191406 114.34375 L 108.089844 107.152344 L 108.984375 100.140625 L 109.882812 93.3125 L 110.78125 86.804688 L 111.675781 80.527344 L 112.574219 74.480469 L 113.46875 68.714844 L 114.367188 63.316406 L 115.261719 58.195312 L 116.160156 53.351562 L 117.054688 48.898438 L 117.953125 44.824219 L 118.847656 41.058594 L 119.746094 37.613281 L 120.644531 34.671875 L 121.539062 32.085938 L 122.4375 29.839844 L 123.332031 27.984375 L 124.230469 26.640625 L 125.125 25.652344 L 126.023438 25.019531 L 126.917969 24.855469 L 127.816406 25.144531 L 128.710938 25.796875 L 129.609375 26.800781 L 130.503906 28.335938 L 131.402344 30.25 L 132.300781 32.507812 L 133.195312 35.144531 L 134.09375 38.273438 L 134.988281 41.730469 L 135.886719 45.503906 L 136.78125 49.679688 L 137.679688 54.242188 L 138.574219 59.09375 L 139.472656 64.226562 L 140.367188 69.757812 L 141.265625 75.566406 L 142.160156 81.617188 L 143.058594 87.917969 L 143.957031 94.546875 L 144.851562 101.375 L 145.75 108.390625 L 146.644531 115.625 L 147.542969 123.070312 L 148.4375 130.65625 L 149.335938 138.375 L 150.230469 146.257812 L 151.128906 154.253906 L 152.023438 162.332031 L 152.921875 170.484375 L 153.816406 178.726562 L 154.714844 187 L 155.613281 195.304688 L 156.507812 203.628906 L 157.40625 211.953125 L 158.300781 220.257812 L 159.199219 228.539062 L 160.09375 236.773438 L 160.992188 244.945312 L 161.886719 253.054688 L 162.785156 261.101562 L 163.679688 269.019531 L 164.578125 276.839844 L 165.472656 284.566406 L 166.371094 292.171875 L 167.269531 299.613281 L 168.164062 306.929688 L 169.0625 314.121094 L 169.957031 321.132812 L 170.855469 327.976562 L 171.75 334.671875 L 172.648438 341.226562 L 173.542969 347.546875 L 174.441406 353.707031 L 175.335938 359.710938 L 176.234375 365.535156 L 177.128906 371.132812 L 178.027344 376.570312 L 178.925781 381.847656 L 179.820312 386.914062 L 180.71875 391.777344 L 181.613281 396.488281 L 182.511719 401.039062 L 183.40625 405.355469 L 184.304688 409.507812 L 185.199219 413.511719 L 186.097656 417.34375 L 186.992188 420.96875 L 187.890625 424.449219 L 188.785156 427.789062 L 189.683594 430.949219 L 190.582031 433.945312 L 191.476562 436.808594 L 192.375 439.550781 L 193.269531 442.109375 L 194.167969 444.539062 L 195.0625 446.859375 L 195.960938 449.054688 L 196.855469 451.097656 L 197.753906 453.039062 L 198.648438 454.882812 L 199.546875 456.605469 L 200.441406 458.214844 L 201.339844 459.738281 L 202.238281 461.179688 L 203.132812 462.507812 L 204.03125 463.753906 L 204.925781 464.933594 L 205.824219 466.035156 L 206.71875 467.046875 L 207.617188 467.996094 L 208.511719 468.886719 L 209.410156 469.714844 L 210.304688 470.472656 L 211.203125 471.1875 L 212.101562 471.851562 L 212.996094 472.460938 L 213.894531 473.023438 L 214.789062 473.546875 L 215.6875 474.035156 L 216.582031 474.476562 L 217.480469 474.882812 L 218.375 475.265625 L 219.273438 475.613281 L 220.167969 475.929688 L 221.066406 476.222656 L 221.960938 476.496094 L 222.859375 476.742188 L 223.757812 476.964844 L 224.652344 477.171875 L 225.550781 477.363281 L 226.445312 477.53125 L 227.34375 477.6875 L 228.238281 477.832031 L 229.136719 477.960938 L 230.03125 478.078125 L 230.929688 478.183594 L 231.824219 478.28125 L 232.722656 478.367188 L 233.617188 478.445312 L 234.515625 478.515625 L 235.414062 478.582031 L 236.308594 478.640625 L 237.207031 478.691406 L 238.101562 478.738281 L 239 478.777344 L 239.894531 478.8125 L 240.792969 478.847656 L 241.6875 478.875 L 242.585938 478.898438 L 243.480469 478.921875 L 244.378906 478.9375 L 245.273438 478.953125 L 246.171875 478.96875 L 247.070312 478.976562 L 247.964844 478.984375 L 248.863281 478.992188 L 251.550781 478.992188 L 252.449219 478.988281 L 253.34375 478.980469 L 254.242188 478.972656 L 255.136719 478.960938 L 256.035156 478.945312 L 256.929688 478.929688 L 257.828125 478.910156 L 258.726562 478.886719 L 259.621094 478.859375 L 260.519531 478.828125 L 261.414062 478.792969 L 262.3125 478.753906 L 263.207031 478.707031 L 264.105469 478.660156 L 265 478.605469 L 265.898438 478.542969 L 266.792969 478.472656 L 267.691406 478.394531 L 268.585938 478.3125 L 269.484375 478.21875 L 270.382812 478.113281 L 271.277344 478 L 272.175781 477.875 L 273.070312 477.734375 L 273.96875 477.582031 L 274.863281 477.414062 L 275.761719 477.230469 L 276.65625 477.027344 L 277.554688 476.808594 L 278.449219 476.570312 L 279.347656 476.304688 L 280.242188 476.015625 L 281.140625 475.707031 L 282.039062 475.367188 L 282.933594 474.992188 L 283.832031 474.589844 L 284.726562 474.160156 L 285.625 473.683594 L 286.519531 473.167969 L 287.417969 472.613281 L 288.3125 472.023438 L 289.210938 471.367188 L 290.105469 470.664062 L 291.003906 469.917969 L 291.898438 469.113281 L 292.796875 468.234375 L 293.695312 467.296875 L 294.589844 466.304688 L 295.488281 465.226562 L 296.382812 464.066406 L 297.28125 462.835938 L 298.175781 461.535156 L 299.074219 460.117188 L 299.96875 458.617188 L 300.867188 457.027344 L 301.761719 455.34375 L 302.660156 453.523438 L 303.558594 451.609375 L 304.453125 449.59375 L 305.351562 447.441406 L 306.246094 445.152344 L 307.144531 442.75 L 308.039062 440.234375 L 308.9375 437.539062 L 309.832031 434.707031 L 310.730469 431.746094 L 311.625 428.644531 L 312.523438 425.34375 L 313.417969 421.902344 L 314.316406 418.316406 L 315.214844 414.550781 L 316.109375 410.589844 L 317.007812 406.480469 L 317.902344 402.21875 L 318.800781 397.730469 L 319.695312 393.066406 L 320.59375 388.246094 L 321.488281 383.257812 L 322.386719 378.027344 L 323.28125 372.640625 L 324.179688 367.089844 L 325.074219 361.34375 L 325.972656 355.386719 L 326.871094 349.277344 L 327.765625 343.011719 L 328.664062 336.527344 L 329.558594 329.878906 L 330.457031 323.085938 L 331.351562 316.144531 L 332.25 308.996094 L 333.144531 301.722656 L 334.042969 294.324219 L 334.9375 286.785156 L 335.835938 279.097656 L 336.730469 271.308594 L 337.628906 263.429688 L 338.527344 255.433594 L 339.421875 247.351562 L 340.320312 239.207031 L 341.214844 231.007812 L 342.113281 222.746094 L 343.007812 214.457031 L 343.90625 206.152344 L 344.800781 197.839844 L 345.699219 189.542969 L 346.59375 181.269531 L 347.492188 173.035156 L 348.386719 164.863281 L 349.285156 156.777344 L 350.183594 148.769531 L 351.078125 140.851562 L 351.976562 133.105469 L 352.871094 125.492188 L 353.769531 118.019531 L 354.664062 110.714844 L 355.5625 103.660156 L 356.457031 96.785156 L 357.355469 90.109375 L 358.25 83.710938 L 359.148438 77.601562 L 360.042969 71.726562 L 360.941406 66.101562 L 361.839844 60.875 L 362.734375 55.949219 L 363.632812 51.304688 L 364.527344 46.988281 L 365.425781 43.125 L 366.320312 39.578125 L 367.21875 36.355469 L 368.113281 33.558594 L 369.011719 31.199219 L 369.90625 29.183594 L 370.804688 27.511719 L 371.699219 26.363281 L 372.597656 25.605469 L 373.496094 25.207031 L 374.390625 25.191406 L 375.289062 25.714844 L 376.183594 26.589844 L 377.082031 27.824219 L 377.976562 29.5 L 378.875 31.636719 L 379.769531 34.113281 L 380.667969 36.925781 L 381.5625 40.21875 L 382.460938 43.875 L 383.355469 47.847656 L 384.253906 52.140625 L 385.152344 56.886719 L 386.046875 61.914062 L 386.945312 67.214844 L 387.839844 72.84375 L 388.738281 78.804688 L 389.632812 85 L 390.53125 91.421875 L 391.425781 98.140625 L 392.324219 105.082031 L 393.21875 112.207031 L 394.117188 119.503906 L 395.015625 127.039062 L 395.910156 134.703125 L 396.808594 142.492188 L 397.703125 150.414062 L 398.601562 158.460938 L 399.496094 166.578125 L 400.394531 174.765625 L 401.289062 183.019531 L 402.1875 191.3125 L 403.082031 199.621094 L 403.980469 207.945312 L 404.875 216.257812 L 405.773438 224.546875 L 406.671875 232.804688 L 407.566406 241.015625 L 408.464844 249.148438 L 409.359375 257.210938 L 410.257812 265.203125 L 411.152344 273.082031 L 412.050781 280.84375 L 412.945312 288.5 L 413.84375 296.050781 L 414.738281 303.417969 L 415.636719 310.65625 L 416.53125 317.761719 L 417.429688 324.714844 L 418.328125 331.464844 L 419.222656 338.066406 L 420.121094 344.523438 L 421.015625 350.777344 L 421.914062 356.835938 L 422.808594 362.738281 L 423.707031 368.484375 L 424.601562 373.992188 L 425.5 379.324219 L 426.394531 384.5 L 427.292969 389.496094 L 428.1875 394.257812 L 429.085938 398.863281 L 429.984375 403.3125 L 430.878906 407.566406 L 431.777344 411.617188 L 432.671875 415.523438 L 433.570312 419.28125 L 434.464844 422.824219 L 435.363281 426.210938 L 436.257812 429.460938 L 437.15625 432.566406 L 438.050781 435.472656 L 438.949219 438.257812 L 439.84375 440.914062 L 440.742188 443.421875 L 441.640625 445.777344 L 442.535156 448.023438 L 443.433594 450.160156 L 444.328125 452.148438 L 445.226562 454.023438 L 446.121094 455.804688 L 447.019531 457.488281 L 447.914062 459.039062 L 448.8125 460.507812 L 449.707031 461.898438 L 450.605469 463.195312 L 451.5 464.390625 L 452.398438 465.523438 L 453.296875 466.589844 L 454.191406 467.566406 L 455.089844 468.476562 L 455.984375 469.335938 L 456.882812 470.136719 L 457.777344 470.863281 L 458.675781 471.546875 L 459.570312 472.183594 L 460.46875 472.773438 L 461.363281 473.308594 L 462.261719 473.8125 L 463.15625 474.28125 L 464.054688 474.703125 L 464.953125 475.09375 L 465.847656 475.457031 L 466.746094 475.792969 L 467.640625 476.09375 L 468.539062 476.375 L 469.433594 476.632812 L 470.332031 476.871094 L 471.226562 477.082031 L 472.125 477.277344 L 473.019531 477.460938 L 473.917969 477.621094 L 474.8125 477.769531 L 475.710938 477.90625 L 476.609375 478.03125 L 477.503906 478.140625 L 478.402344 478.242188 L 479.296875 478.335938 L 480.195312 478.417969 L 481.089844 478.492188 "/>
</g>
</svg>
