<?xml version="1.0" encoding="UTF-8"?>
<svg xmlns="http://www.w3.org/2000/svg" xmlns:xlink="http://www.w3.org/1999/xlink" width="504pt" height="504pt" viewBox="0 0 504 504" version="1.1">
<g id="surface39">
<path style=" stroke:none;fill-rule:nonzero;fill:rgb(21.960784%,72.156863%,45.098039%);fill-opacity:0.501961;" d="M 22.910156 478.140625 L 27.390625 478.140625 L 28.289062 478.144531 L 53.394531 478.144531 L 54.292969 478.140625 L 71.328125 478.140625 L 72.222656 478.136719 L 77.605469 478.136719 L 78.5 478.132812 L 80.292969 478.132812 L 81.191406 478.128906 L 82.984375 478.128906 L 83.878906 478.125 L 85.671875 478.125 L 86.570312 478.121094 L 88.363281 478.121094 L 89.261719 478.117188 L 93.742188 478.117188 L 94.640625 478.113281 L 100.019531 478.113281 L 100.917969 478.117188 L 108.984375 478.117188 L 109.882812 478.113281 L 111.675781 478.113281 L 112.574219 478.109375 L 113.46875 478.109375 L 114.367188 478.105469 L 115.261719 478.101562 L 116.160156 478.097656 L 117.054688 478.097656 L 117.953125 478.09375 L 118.847656 478.089844 L 119.746094 478.085938 L 120.644531 478.085938 L 121.539062 478.082031 L 122.4375 478.078125 L 124.230469 478.078125 L 125.125 478.074219 L 132.300781 478.074219 L 133.195312 478.070312 L 135.886719 478.070312 L 136.78125 478.066406 L 138.574219 478.066406 L 139.472656 478.0625 L 140.367188 478.058594 L 141.265625 478.058594 L 142.160156 478.054688 L 143.058594 478.050781 L 143.957031 478.050781 L 144.851562 478.046875 L 145.75 478.042969 L 146.644531 478.039062 L 147.542969 478.035156 L 148.4375 478.03125 L 149.335938 478.027344 L 150.230469 478.023438 L 151.128906 478.019531 L 152.023438 478.015625 L 152.921875 478.007812 L 153.816406 478 L 155.613281 477.984375 L 156.507812 477.976562 L 157.40625 477.964844 L 158.300781 477.953125 L 159.199219 477.9375 L 160.09375 477.925781 L 160.992188 477.910156 L 161.886719 477.894531 L 162.785156 477.875 L 163.679688 477.859375 L 164.578125 477.839844 L 165.472656 477.820312 L 167.269531 477.78125 L 168.164062 477.761719 L 169.0625 477.738281 L 169.957031 477.71875 L 170.855469 477.695312 L 171.75 477.675781 L 172.648438 477.652344 L 173.542969 477.632812 L 174.441406 477.609375 L 175.335938 477.585938 L 176.234375 477.566406 L 177.128906 477.542969 L 178.027344 477.519531 L 178.925781 477.5 L 179.820312 477.476562 L 180.71875 477.453125 L 181.613281 477.429688 L 182.511719 477.410156 L 183.40625 477.386719 L 184.304688 477.363281 L 185.199219 477.339844 L 186.097656 477.316406 L 186.992188 477.292969 L 187.890625 477.265625 L 188.785156 477.242188 L 189.683594 477.210938 L 190.582031 477.183594 L 191.476562 477.152344 L 192.375 477.117188 L 193.269531 477.082031 L 194.167969 477.042969 L 195.0625 477 L 195.960938 476.957031 L 196.855469 476.914062 L 197.753906 476.867188 L 198.648438 476.820312 L 199.546875 476.773438 L 200.441406 476.722656 L 201.339844 476.675781 L 202.238281 476.625 L 203.132812 476.574219 L 204.03125 476.523438 L 204.925781 476.472656 L 205.824219 476.417969 L 206.71875 476.363281 L 207.617188 476.304688 L 208.511719 476.246094 L 209.410156 476.183594 L 210.304688 476.117188 L 211.203125 476.050781 L 212.101562 475.976562 L 212.996094 475.898438 L 213.894531 475.816406 L 214.789062 475.730469 L 215.6875 475.640625 L 216.582031 475.546875 L 217.480469 475.453125 L 218.375 475.351562 L 219.273438 475.246094 L 220.167969 475.140625 L 221.066406 475.027344 L 221.960938 474.917969 L 223.757812 474.683594 L 224.652344 474.566406 L 225.550781 474.445312 L 226.445312 474.320312 L 227.34375 474.195312 L 228.238281 474.066406 L 229.136719 473.9375 L 230.03125 473.804688 L 230.929688 473.671875 L 231.824219 473.53125 L 232.722656 473.386719 L 233.617188 473.238281 L 234.515625 473.085938 L 235.414062 472.925781 L 236.308594 472.753906 L 237.207031 472.578125 L 238.101562 472.390625 L 239 472.191406 L 239.894531 471.984375 L 240.792969 471.765625 L 241.6875 471.539062 L 242.585938 471.300781 L 243.480469 471.054688 L 244.378906 470.796875 L 245.273438 470.53125 L 246.171875 470.257812 L 247.070312 469.976562 L 247.964844 469.6875 L 248.863281 469.394531 L 249.757812 469.089844 L 250.65625 468.78125 L 251.550781 468.464844 L 252.449219 468.140625 L 253.34375 467.808594 L 254.242188 467.46875 L 255.136719 467.117188 L 256.035156 466.757812 L 256.929688 466.386719 L 257.828125 466.003906 L 258.726562 465.609375 L 259.621094 465.203125 L 260.519531 464.78125 L 261.414062 464.347656 L 262.3125 463.894531 L 263.207031 463.429688 L 264.105469 462.949219 L 265 462.453125 L 265.898438 461.941406 L 266.792969 461.414062 L 267.691406 460.867188 L 268.585938 460.308594 L 269.484375 459.734375 L 270.382812 459.140625 L 271.277344 458.53125 L 272.175781 457.910156 L 273.070312 457.269531 L 273.96875 456.617188 L 274.863281 455.949219 L 275.761719 455.261719 L 276.65625 454.5625 L 277.554688 453.84375 L 278.449219 453.105469 L 279.347656 452.351562 L 280.242188 451.574219 L 281.140625 450.78125 L 282.039062 449.964844 L 282.933594 449.125 L 283.832031 448.265625 L 284.726562 447.378906 L 285.625 446.46875 L 286.519531 445.527344 L 287.417969 444.558594 L 288.3125 443.5625 L 289.210938 442.539062 L 290.105469 441.480469 L 291.003906 440.394531 L 291.898438 439.277344 L 292.796875 438.125 L 293.695312 436.941406 L 294.589844 435.71875 L 295.488281 434.464844 L 296.382812 433.179688 L 297.28125 431.863281 L 298.175781 430.515625 L 299.074219 429.140625 L 299.96875 427.730469 L 300.867188 426.289062 L 301.761719 424.820312 L 302.660156 423.316406 L 303.558594 421.777344 L 304.453125 420.207031 L 305.351562 418.597656 L 306.246094 416.953125 L 307.144531 415.273438 L 308.039062 413.554688 L 308.9375 411.792969 L 309.832031 409.988281 L 310.730469 408.140625 L 311.625 406.242188 L 312.523438 404.300781 L 313.417969 402.3125 L 314.316406 400.273438 L 315.214844 398.191406 L 316.109375 396.058594 L 317.007812 393.875 L 317.902344 391.644531 L 318.800781 389.359375 L 319.695312 387.023438 L 320.59375 384.632812 L 321.488281 382.191406 L 322.386719 379.703125 L 323.28125 377.160156 L 324.179688 374.5625 L 325.074219 371.917969 L 325.972656 369.21875 L 326.871094 366.464844 L 327.765625 363.652344 L 328.664062 360.785156 L 329.558594 357.863281 L 330.457031 354.886719 L 331.351562 351.859375 L 332.25 348.773438 L 333.144531 345.636719 L 334.042969 342.449219 L 334.9375 339.203125 L 335.835938 335.902344 L 336.730469 332.546875 L 337.628906 329.140625 L 338.527344 325.6875 L 339.421875 322.179688 L 340.320312 318.625 L 341.214844 315.019531 L 342.113281 311.367188 L 343.007812 307.667969 L 343.90625 303.914062 L 344.800781 300.105469 L 345.699219 296.25 L 346.59375 292.339844 L 347.492188 288.382812 L 348.386719 284.367188 L 349.285156 280.300781 L 350.183594 276.175781 L 351.078125 272 L 351.976562 267.769531 L 352.871094 263.476562 L 353.769531 259.132812 L 354.664062 254.738281 L 355.5625 250.296875 L 356.457031 245.808594 L 357.355469 241.277344 L 358.25 236.707031 L 359.148438 232.09375 L 360.042969 227.441406 L 360.941406 222.746094 L 361.839844 218.011719 L 362.734375 213.234375 L 363.632812 208.421875 L 364.527344 203.574219 L 365.425781 198.6875 L 366.320312 193.765625 L 367.21875 188.8125 L 368.113281 183.832031 L 369.011719 178.828125 L 369.90625 173.8125 L 370.804688 168.789062 L 371.699219 163.769531 L 372.597656 158.757812 L 373.496094 153.765625 L 374.390625 148.792969 L 375.289062 143.851562 L 376.183594 138.941406 L 377.082031 134.070312 L 377.976562 129.242188 L 378.875 124.453125 L 379.769531 119.710938 L 380.667969 115.015625 L 381.5625 110.371094 L 382.460938 105.777344 L 383.355469 101.246094 L 384.253906 96.773438 L 385.152344 92.371094 L 386.046875 88.050781 L 386.945312 83.820312 L 387.839844 79.675781 L 388.738281 75.632812 L 389.632812 71.695312 L 390.53125 67.867188 L 391.425781 64.160156 L 392.324219 60.578125 L 393.21875 57.128906 L 394.117188 53.828125 L 395.015625 50.683594 L 395.910156 47.691406 L 396.808594 44.855469 L 397.703125 42.191406 L 398.601562 39.695312 L 399.496094 37.382812 L 400.394531 35.257812 L 401.289062 33.328125 L 402.1875 31.605469 L 403.082031 30.113281 L 403.980469 28.835938 L 404.875 27.777344 L 405.773438 26.945312 L 406.671875 26.34375 L 407.566406 25.980469 L 408.464844 25.855469 L 409.359375 25.976562 L 410.257812 26.347656 L 411.152344 27.003906 L 412.050781 27.921875 L 412.945312 29.105469 L 413.84375 30.554688 L 414.738281 32.277344 L 415.636719 34.28125 L 416.53125 36.5625 L 417.429688 39.128906 L 418.328125 41.984375 L 419.222656 45.164062 L 420.121094 48.640625 L 421.015625 52.40625 L 421.914062 56.46875 L 422.808594 60.820312 L 423.707031 65.460938 L 424.601562 70.394531 L 425.5 75.609375 L 426.394531 81.109375 L 427.292969 86.910156 L 428.1875 93.007812 L 429.085938 99.375 L 429.984375 106.007812 L 430.878906 112.898438 L 431.777344 120.046875 L 432.671875 127.4375 L 433.570312 135.066406 L 434.464844 142.921875 L 435.363281 151.003906 L 436.257812 159.304688 L 437.15625 167.800781 L 438.050781 176.46875 L 438.949219 185.300781 L 439.84375 194.28125 L 440.742188 203.390625 L 441.640625 212.617188 L 442.535156 221.9375 L 443.433594 231.339844 L 444.328125 240.804688 L 445.226562 250.304688 L 446.121094 259.820312 L 447.019531 269.328125 L 447.914062 278.808594 L 448.8125 288.246094 L 449.707031 297.613281 L 450.605469 306.894531 L 451.5 316.066406 L 452.398438 325.101562 L 453.296875 333.976562 L 454.191406 342.683594 L 455.089844 351.207031 L 455.984375 359.527344 L 456.882812 367.628906 L 457.777344 375.492188 L 458.675781 383.109375 L 459.570312 390.460938 L 460.46875 397.519531 L 461.363281 404.257812 L 462.261719 410.695312 L 463.15625 416.816406 L 464.054688 422.621094 L 464.953125 428.09375 L 465.847656 433.238281 L 466.746094 438.050781 L 467.640625 442.527344 L 468.539062 446.667969 L 469.433594 450.441406 L 470.332031 453.898438 L 471.226562 457.042969 L 472.125 459.890625 L 473.019531 462.453125 L 473.917969 464.746094 L 474.8125 466.777344 L 475.710938 468.570312 L 476.609375 470.140625 L 477.503906 471.488281 L 478.402344 472.644531 L 479.296875 473.636719 L 480.195312 474.476562 L 481.089844 475.1875 L 481.089844 478.144531 L 22.910156 478.144531 Z M 22.910156 478.140625 "/>
<path style="fill:none;stroke-width:2.133957;stroke-linecap:round;stroke-linejoin:round;stroke:rgb(21.960784%,72.156863%,45.098039%);stroke-opacity:1;stroke-miterlimit:10;" d="M 22.910156 478.140625 L 27.390625 478.140625 L 28.289062 478.144531 L 53.394531 478.144531 L 54.292969 478.140625 L 71.328125 478.140625 L 72.222656 478.136719 L 77.605469 478.136719 L 78.5 478.132812 L 80.292969 478.132812 L 81.191406 478.128906 L 82.984375 478.128906 L 83.878906 478.125 L 85.671875 478.125 L 86.570312 478.121094 L 88.363281 478.121094 L 89.261719 478.117188 L 93.742188 478.117188 L 94.640625 478.113281 L 100.019531 478.113281 L 100.917969 478.117188 L 108.984375 478.117188 L 109.882812 478.113281 L 111.675781 478.113281 L 112.574219 478.109375 L 113.46875 478.109375 L 114.367188 478.105469 L 115.261719 478.101562 L 116.160156 478.097656 L 117.054688 478.097656 L 117.953125 478.09375 L 118.847656 478.089844 L 119.746094 478.085938 L 120.644531 478.085938 L 121.539062 478.082031 L 122.4375 478.078125 L 124.230469 478.078125 L 125.125 478.074219 L 132.300781 478.074219 L 133.195312 478.070312 L 135.886719 478.070312 L 136.78125 478.066406 L 138.574219 478.066406 L 139.472656 478.0625 L 140.367188 478.058594 L 141.265625 478.058594 L 142.160156 478.054688 L 143.058594 478.050781 L 143.957031 478.050781 L 144.851562 478.046875 L 145.75 478.042969 L 146.644531 478.039062 L 147.542969 478.035156 L 148.4375 478.03125 L 149.335938 478.027344 L 150.230469 478.023438 L 151.128906 478.019531 L 152.023438 478.015625 L 152.921875 478.007812 L 153.816406 478 L 155.613281 477.984375 L 156.507812 477.976562 L 157.40625 477.964844 L 158.300781 477.953125 L 159.199219 477.9375 L 160.09375 477.925781 L 160.992188 477.910156 L 161.886719 477.894531 L 162.785156 477.875 L 163.679688 477.859375 L 164.578125 477.839844 L 165.472656 477.820312 L 167.269531 477.78125 L 168.164062 477.761719 L 169.0625 477.738281 L 169.957031 477.71875 L 170.855469 477.695312 L 171.75 477.675781 L 172.648438 477.652344 L 173.542969 477.632812 L 174.441406 477.609375 L 175.335938 477.585938 L 176.234375 477.566406 L 177.128906 477.542969 L 178.027344 477.519531 L 178.925781 477.5 L 179.820312 477.476562 L 180.71875 477.453125 L 181.613281 477.429688 L 182.511719 477.410156 L 183.40625 477.386719 L 184.304688 477.363281 L 185.199219 477.339844 L 186.097656 477.316406 L 186.992188 477.292969 L 187.890625 477.265625 L 188.785156 477.242188 L 189.683594 477.210938 L 190.582031 477.183594 L 191.476562 477.152344 L 192.375 477.117188 L 193.269531 477.082031 L 194.167969 477.042969 L 195.0625 477 L 195.960938 476.957031 L 196.855469 476.914062 L 197.753906 476.867188 L 198.648438 476.820312 L 199.546875 476.773438 L 200.441406 476.722656 L 201.339844 476.675781 L 202.238281 476.625 L 203.132812 476.574219 L 204.03125 476.523438 L 204.925781 476.472656 L 205.824219 476.417969 L 206.71875 476.363281 L 207.617188 476.304688 L 208.511719 476.246094 L 209.410156 476.183594 L 210.304688 476.117188 L 211.203125 476.050781 L 212.101562 475.976562 L 212.996094 475.898438 L 213.894531 475.816406 L 214.789062 475.730469 L 215.6875 475.640625 L 216.582031 475.546875 L 217.480469 475.453125 L 218.375 475.351562 L 219.273438 475.246094 L 220.167969 475.140625 L 221.066406 475.027344 L 221.960938 474.917969 L 223.757812 474.683594 L 224.652344 474.566406 L 225.550781 474.445312 L 226.445312 474.320312 L 227.34375 474.195312 L 228.238281 474.066406 L 229.136719 473.9375 L 230.03125 473.804688 L 230.929688 473.671875 L 231.824219 473.53125 L 232.722656 473.386719 L 233.617188 473.238281 L 234.515625 473.085938 L 235.414062 472.925781 L 236.308594 472.753906 L 237.207031 472.578125 L 238.101562 472.390625 L 239 472.191406 L 239.894531 471.984375 L 240.792969 471.765625 L 241.6875 471.539062 L 242.585938 471.300781 L 243.480469 471.054688 L 244.378906 470.796875 L 245.273438 470.53125 L 246.171875 470.257812 L 247.070312 469.976562 L 247.964844 469.6875 L 248.863281 469.394531 L 249.757812 469.089844 L 250.65625 468.78125 L 251.550781 468.464844 L 252.449219 468.140625 L 253.34375 467.808594 L 254.242188 467.46875 L 255.136719 467.117188 L 256.035156 466.757812 L 256.929688 466.386719 L 257.828125 466.003906 L 258.726562 465.609375 L 259.621094 465.203125 L 260.519531 464.78125 L 261.414062 464.347656 L 262.3125 463.894531 L 263.207031 463.429688 L 264.105469 462.949219 L 265 462.453125 L 265.898438 461.941406 L 266.792969 461.414062 L 267.691406 460.867188 L 268.585938 460.308594 L 269.484375 459.734375 L 270.382812 459.140625 L 271.277344 458.53125 L 272.175781 457.910156 L 273.070312 457.269531 L 273.96875 456.617188 L 274.863281 455.949219 L 275.761719 455.261719 L 276.65625 454.5625 L 277.554688 453.84375 L 278.449219 453.105469 L 279.347656 452.351562 L 280.242188 451.574219 L 281.140625 450.78125 L 282.039062 449.964844 L 282.933594 449.125 L 283.832031 448.265625 L 284.726562 447.378906 L 285.625 446.46875 L 286.519531 445.527344 L 287.417969 444.558594 L 288.3125 443.5625 L 289.210938 442.539062 L 290.105469 441.480469 L 291.003906 440.394531 L 291.898438 439.277344 L 292.796875 438.125 L 293.695312 436.941406 L 294.589844 435.71875 L 295.488281 434.464844 L 296.382812 433.179688 L 297.28125 431.863281 L 298.175781 430.515625 L 299.074219 429.140625 L 299.96875 427.730469 L 300.867188 426.289062 L 301.761719 424.820312 L 302.660156 423.316406 L 303.558594 421.777344 L 304.453125 420.207031 L 305.351562 418.597656 L 306.246094 416.953125 L 307.144531 415.273438 L 308.039062 413.554688 L 308.9375 411.792969 L 309.832031 409.988281 L 310.730469 408.140625 L 311.625 406.242188 L 312.523438 404.300781 L 313.417969 402.3125 L 314.316406 400.273438 L 315.214844 398.191406 L 316.109375 396.058594 L 317.007812 393.875 L 317.902344 391.644531 L 318.800781 389.359375 L 319.695312 387.023438 L 320.59375 384.632812 L 321.488281 382.191406 L 322.386719 379.703125 L 323.28125 377.160156 L 324.179688 374.5625 L 325.074219 371.917969 L 325.972656 369.21875 L 326.871094 366.464844 L 327.765625 363.652344 L 328.664062 360.785156 L 329.558594 357.863281 L 330.457031 354.886719 L 331.351562 351.859375 L 332.25 348.773438 L 333.144531 345.636719 L 334.042969 342.449219 L 334.9375 339.203125 L 335.835938 335.902344 L 336.730469 332.546875 L 337.628906 329.140625 L 338.527344 325.6875 L 339.421875 322.179688 L 340.320312 318.625 L 341.214844 315.019531 L 342.113281 311.367188 L 343.007812 307.667969 L 343.90625 303.914062 L 344.800781 300.105469 L 345.699219 296.25 L 346.59375 292.339844 L 347.492188 288.382812 L 348.386719 284.367188 L 349.285156 280.300781 L 350.183594 276.175781 L 351.078125 272 L 351.976562 267.769531 L 352.871094 263.476562 L 353.769531 259.132812 L 354.664062 254.738281 L 355.5625 250.296875 L 356.457031 245.808594 L 357.355469 241.277344 L 358.25 236.707031 L 359.148438 232.09375 L 360.042969 227.441406 L 360.941406 222.746094 L 361.839844 218.011719 L 362.734375 213.234375 L 363.632812 208.421875 L 364.527344 203.574219 L 365.425781 198.6875 L 366.320312 193.765625 L 367.21875 188.8125 L 368.113281 183.832031 L 369.011719 178.828125 L 369.90625 173.8125 L 370.804688 168.789062 L 371.699219 163.769531 L 372.597656 158.757812 L 373.496094 153.765625 L 374.390625 148.792969 L 375.289062 143.851562 L 376.183594 138.941406 L 377.082031 134.070312 L 377.976562 129.242188 L 378.875 124.453125 L 379.769531 119.710938 L 380.667969 115.015625 L 381.5625 110.371094 L 382.460938 105.777344 L 383.355469 101.246094 L 384.253906 96.773438 L 385.152344 92.371094 L 386.046875 88.050781 L 386.945312 83.820312 L 387.839844 79.675781 L 388.738281 75.632812 L 389.632812 71.695312 L 390.53125 67.867188 L 391.425781 64.160156 L 392.324219 60.578125 L 393.21875 57.128906 L 394.117188 53.828125 L 395.015625 50.683594 L 395.910156 47.691406 L 396.808594 44.855469 L 397.703125 42.191406 L 398.601562 39.695312 L 399.496094 37.382812 L 400.394531 35.257812 L 401.289062 33.328125 L 402.1875 31.605469 L 403.082031 30.113281 L 403.980469 28.835938 L 404.875 27.777344 L 405.773438 26.945312 L 406.671875 26.34375 L 407.566406 25.980469 L 408.464844 25.855469 L 409.359375 25.976562 L 410.257812 26.347656 L 411.152344 27.003906 L 412.050781 27.921875 L 412.945312 29.105469 L 413.84375 30.554688 L 414.738281 32.277344 L 415.636719 34.28125 L 416.53125 36.5625 L 417.429688 39.128906 L 418.328125 41.984375 L 419.222656 45.164062 L 420.121094 48.640625 L 421.015625 52.40625 L 421.914062 56.46875 L 422.808594 60.820312 L 423.707031 65.460938 L 424.601562 70.394531 L 425.5 75.609375 L 426.394531 81.109375 L 427.292969 86.910156 L 428.1875 93.007812 L 429.085938 99.375 L 429.984375 106.007812 L 430.878906 112.898438 L 431.777344 120.046875 L 432.671875 127.4375 L 433.570312 135.066406 L 434.464844 142.921875 L 435.363281 151.003906 L 436.257812 159.304688 L 437.15625 167.800781 L 438.050781 176.46875 L 438.949219 185.300781 L 439.84375 194.28125 L 440.742188 203.390625 L 441.640625 212.617188 L 442.535156 221.9375 L 443.433594 231.339844 L 444.328125 240.804688 L 445.226562 250.304688 L 446.121094 259.820312 L 447.019531 269.328125 L 447.914062 278.808594 L 448.8125 288.246094 L 449.707031 297.613281 L 450.605469 306.894531 L 451.5 316.066406 L 452.398438 325.101562 L 453.296875 333.976562 L 454.191406 342.683594 L 455.089844 351.207031 L 455.984375 359.527344 L 456.882812 367.628906 L 457.777344 375.492188 L 458.675781 383.109375 L 459.570312 390.460938 L 460.46875 397.519531 L 461.363281 404.257812 L 462.261719 410.695312 L 463.15625 416.816406 L 464.054688 422.621094 L 464.953125 428.09375 L 465.847656 433.238281 L 466.746094 438.050781 L 467.640625 442.527344 L 468.539062 446.667969 L 469.433594 450.441406 L 470.332031 453.898438 L 471.226562 457.042969 L 472.125 459.890625 L 473.019531 462.453125 L 473.917969 464.746094 L 474.8125 466.777344 L 475.710938 468.570312 L 476.609375 470.140625 L 477.503906 471.488281 L 478.402344 472.644531 L 479.296875 473.636719 L 480.195312 474.476562 L 481.089844 475.1875 "/>
</g>
</svg>
