<?xml version="1.0" encoding="UTF-8"?>
<svg xmlns="http://www.w3.org/2000/svg" xmlns:xlink="http://www.w3.org/1999/xlink" width="504pt" height="504pt" viewBox="0 0 504 504" version="1.1">
<g id="surface69">
<path style=" stroke:none;fill-rule:nonzero;fill:rgb(21.960784%,72.156863%,45.098039%);fill-opacity:0.501961;" d="M 22.910156 478.203125 L 23.804688 478.203125 L 24.703125 478.199219 L 25.597656 478.195312 L 26.496094 478.195312 L 27.390625 478.191406 L 29.1875 478.183594 L 30.082031 478.179688 L 30.980469 478.175781 L 31.875 478.171875 L 32.773438 478.167969 L 33.667969 478.164062 L 34.566406 478.160156 L 35.460938 478.152344 L 36.359375 478.148438 L 37.253906 478.140625 L 38.152344 478.132812 L 39.046875 478.125 L 40.84375 478.109375 L 41.738281 478.097656 L 42.636719 478.089844 L 43.53125 478.078125 L 44.429688 478.066406 L 45.324219 478.054688 L 46.222656 478.042969 L 47.117188 478.027344 L 48.015625 478.015625 L 48.910156 478 L 49.808594 477.980469 L 50.703125 477.964844 L 52.5 477.925781 L 53.394531 477.90625 L 54.292969 477.882812 L 55.1875 477.859375 L 56.085938 477.835938 L 56.980469 477.808594 L 57.878906 477.777344 L 58.773438 477.75 L 59.671875 477.714844 L 60.566406 477.679688 L 61.464844 477.644531 L 62.359375 477.605469 L 64.15625 477.519531 L 65.050781 477.472656 L 65.949219 477.425781 L 66.84375 477.375 L 67.742188 477.320312 L 68.636719 477.261719 L 69.535156 477.203125 L 70.429688 477.144531 L 71.328125 477.078125 L 72.222656 477.011719 L 73.121094 476.941406 L 74.015625 476.867188 L 75.8125 476.710938 L 76.707031 476.625 L 77.605469 476.53125 L 78.5 476.4375 L 79.398438 476.339844 L 80.292969 476.234375 L 81.191406 476.121094 L 82.085938 476.003906 L 82.984375 475.878906 L 83.878906 475.746094 L 84.777344 475.609375 L 85.671875 475.460938 L 86.570312 475.308594 L 87.46875 475.144531 L 88.363281 474.972656 L 89.261719 474.789062 L 90.15625 474.601562 L 91.054688 474.398438 L 91.949219 474.1875 L 92.847656 473.96875 L 93.742188 473.734375 L 94.640625 473.492188 L 95.535156 473.234375 L 96.433594 472.96875 L 97.328125 472.6875 L 98.226562 472.394531 L 99.125 472.085938 L 100.019531 471.765625 L 100.917969 471.429688 L 101.8125 471.078125 L 102.710938 470.710938 L 103.605469 470.328125 L 104.503906 469.925781 L 105.398438 469.507812 L 106.296875 469.074219 L 107.191406 468.621094 L 108.089844 468.148438 L 108.984375 467.652344 L 109.882812 467.140625 L 110.78125 466.605469 L 111.675781 466.046875 L 112.574219 465.46875 L 113.46875 464.867188 L 114.367188 464.242188 L 115.261719 463.59375 L 116.160156 462.914062 L 117.054688 462.210938 L 117.953125 461.480469 L 118.847656 460.722656 L 119.746094 459.933594 L 120.644531 459.117188 L 121.539062 458.269531 L 122.4375 457.386719 L 123.332031 456.46875 L 124.230469 455.519531 L 125.125 454.53125 L 126.023438 453.507812 L 126.917969 452.449219 L 127.816406 451.351562 L 128.710938 450.214844 L 129.609375 449.03125 L 130.503906 447.804688 L 131.402344 446.539062 L 132.300781 445.226562 L 133.195312 443.875 L 134.09375 442.472656 L 134.988281 441.027344 L 135.886719 439.53125 L 136.78125 437.984375 L 137.679688 436.386719 L 138.574219 434.738281 L 139.472656 433.042969 L 140.367188 431.300781 L 141.265625 429.503906 L 142.160156 427.660156 L 143.058594 425.761719 L 143.957031 423.808594 L 144.851562 421.808594 L 145.75 419.757812 L 146.644531 417.660156 L 147.542969 415.515625 L 148.4375 413.320312 L 149.335938 411.078125 L 150.230469 408.777344 L 151.128906 406.425781 L 152.023438 404.027344 L 152.921875 401.574219 L 153.816406 399.074219 L 154.714844 396.515625 L 155.613281 393.910156 L 156.507812 391.238281 L 157.40625 388.507812 L 158.300781 385.71875 L 159.199219 382.871094 L 160.09375 379.960938 L 160.992188 376.988281 L 161.886719 373.953125 L 162.785156 370.855469 L 163.679688 367.6875 L 164.578125 364.449219 L 165.472656 361.148438 L 166.371094 357.78125 L 167.269531 354.355469 L 168.164062 350.863281 L 169.0625 347.3125 L 169.957031 343.695312 L 170.855469 340.011719 L 171.75 336.269531 L 172.648438 332.46875 L 173.542969 328.613281 L 174.441406 324.699219 L 175.335938 320.734375 L 176.234375 316.714844 L 177.128906 312.640625 L 178.027344 308.511719 L 178.925781 304.332031 L 179.820312 300.105469 L 180.71875 295.832031 L 181.613281 291.507812 L 182.511719 287.144531 L 183.40625 282.734375 L 184.304688 278.273438 L 185.199219 273.769531 L 186.097656 269.226562 L 186.992188 264.644531 L 187.890625 260.023438 L 188.785156 255.371094 L 189.683594 250.679688 L 190.582031 245.957031 L 191.476562 241.203125 L 192.375 236.421875 L 193.269531 231.617188 L 194.167969 226.792969 L 195.0625 221.953125 L 195.960938 217.097656 L 196.855469 212.230469 L 197.753906 207.359375 L 198.648438 202.488281 L 199.546875 197.617188 L 200.441406 192.757812 L 201.339844 187.90625 L 202.238281 183.074219 L 203.132812 178.257812 L 204.03125 173.46875 L 204.925781 168.710938 L 205.824219 163.984375 L 206.71875 159.292969 L 207.617188 154.644531 L 208.511719 150.035156 L 209.410156 145.46875 L 210.304688 140.949219 L 211.203125 136.484375 L 212.101562 132.070312 L 212.996094 127.714844 L 213.894531 123.40625 L 214.789062 119.160156 L 215.6875 114.964844 L 216.582031 110.828125 L 217.480469 106.753906 L 218.375 102.742188 L 219.273438 98.800781 L 220.167969 94.921875 L 221.066406 91.113281 L 221.960938 87.371094 L 222.859375 83.703125 L 223.757812 80.113281 L 224.652344 76.601562 L 225.550781 73.1875 L 226.445312 69.859375 L 227.34375 66.625 L 228.238281 63.488281 L 229.136719 60.453125 L 230.03125 57.519531 L 230.929688 54.699219 L 231.824219 51.996094 L 232.722656 49.421875 L 233.617188 46.96875 L 234.515625 44.636719 L 235.414062 42.433594 L 236.308594 40.355469 L 237.207031 38.410156 L 238.101562 36.597656 L 239 34.933594 L 239.894531 33.414062 L 240.792969 32.027344 L 241.6875 30.777344 L 242.585938 29.664062 L 243.480469 28.6875 L 244.378906 27.847656 L 245.273438 27.148438 L 246.171875 26.605469 L 247.070312 26.199219 L 247.964844 25.925781 L 248.863281 25.785156 L 249.757812 25.777344 L 250.65625 25.898438 L 251.550781 26.148438 L 252.449219 26.539062 L 253.34375 27.066406 L 254.242188 27.71875 L 255.136719 28.492188 L 256.035156 29.386719 L 256.929688 30.402344 L 257.828125 31.53125 L 258.726562 32.78125 L 259.621094 34.160156 L 260.519531 35.660156 L 261.414062 37.273438 L 262.3125 39 L 263.207031 40.839844 L 264.105469 42.796875 L 265 44.867188 L 265.898438 47.058594 L 266.792969 49.378906 L 267.691406 51.820312 L 268.585938 54.375 L 269.484375 57.046875 L 270.382812 59.832031 L 271.277344 62.734375 L 272.175781 65.746094 L 273.070312 68.882812 L 273.96875 72.132812 L 274.863281 75.488281 L 275.761719 78.945312 L 276.65625 82.496094 L 277.554688 86.144531 L 278.449219 89.875 L 279.347656 93.695312 L 280.242188 97.601562 L 281.140625 101.585938 L 282.039062 105.640625 L 282.933594 109.761719 L 283.832031 113.941406 L 284.726562 118.183594 L 285.625 122.480469 L 286.519531 126.835938 L 287.417969 131.242188 L 288.3125 135.699219 L 289.210938 140.199219 L 290.105469 144.742188 L 291.003906 149.324219 L 291.898438 153.941406 L 292.796875 158.59375 L 293.695312 163.277344 L 294.589844 167.988281 L 295.488281 172.722656 L 296.382812 177.476562 L 297.28125 182.242188 L 298.175781 187.023438 L 299.074219 191.816406 L 299.96875 196.613281 L 300.867188 201.414062 L 301.761719 206.210938 L 302.660156 211.007812 L 303.558594 215.796875 L 304.453125 220.582031 L 305.351562 225.351562 L 306.246094 230.113281 L 307.144531 234.855469 L 308.039062 239.582031 L 308.9375 244.285156 L 309.832031 248.972656 L 310.730469 253.632812 L 311.625 258.269531 L 312.523438 262.875 L 313.417969 267.453125 L 314.316406 271.992188 L 315.214844 276.496094 L 316.109375 280.960938 L 317.007812 285.386719 L 317.902344 289.769531 L 318.800781 294.109375 L 319.695312 298.40625 L 320.59375 302.652344 L 321.488281 306.84375 L 322.386719 310.988281 L 323.28125 315.082031 L 324.179688 319.125 L 325.074219 323.117188 L 325.972656 327.058594 L 326.871094 330.945312 L 327.765625 334.777344 L 328.664062 338.550781 L 329.558594 342.269531 L 330.457031 345.9375 L 331.351562 349.546875 L 332.25 353.101562 L 333.144531 356.601562 L 334.042969 360.042969 L 334.9375 363.417969 L 335.835938 366.730469 L 336.730469 369.980469 L 337.628906 373.171875 L 338.527344 376.300781 L 339.421875 379.367188 L 340.320312 382.367188 L 341.214844 385.300781 L 342.113281 388.160156 L 343.007812 390.957031 L 343.90625 393.6875 L 344.800781 396.351562 L 345.699219 398.957031 L 346.59375 401.496094 L 347.492188 403.96875 L 348.386719 406.378906 L 349.285156 408.722656 L 350.183594 411.007812 L 351.078125 413.238281 L 351.976562 415.410156 L 352.871094 417.53125 L 353.769531 419.597656 L 354.664062 421.609375 L 355.5625 423.566406 L 356.457031 425.472656 L 357.355469 427.328125 L 358.25 429.140625 L 359.148438 430.902344 L 360.042969 432.621094 L 360.941406 434.296875 L 361.839844 435.921875 L 362.734375 437.5 L 363.632812 439.035156 L 364.527344 440.527344 L 365.425781 441.976562 L 366.320312 443.382812 L 367.21875 444.746094 L 368.113281 446.070312 L 369.011719 447.347656 L 369.90625 448.585938 L 370.804688 449.78125 L 371.699219 450.941406 L 372.597656 452.0625 L 373.496094 453.144531 L 374.390625 454.191406 L 375.289062 455.199219 L 376.183594 456.171875 L 377.082031 457.105469 L 377.976562 458.007812 L 378.875 458.878906 L 379.769531 459.71875 L 380.667969 460.527344 L 381.5625 461.308594 L 382.460938 462.054688 L 383.355469 462.773438 L 384.253906 463.464844 L 385.152344 464.128906 L 386.046875 464.765625 L 386.945312 465.382812 L 387.839844 465.972656 L 388.738281 466.539062 L 389.632812 467.078125 L 390.53125 467.597656 L 391.425781 468.09375 L 392.324219 468.570312 L 393.21875 469.027344 L 394.117188 469.464844 L 395.015625 469.882812 L 395.910156 470.285156 L 396.808594 470.664062 L 397.703125 471.027344 L 398.601562 471.375 L 399.496094 471.707031 L 400.394531 472.023438 L 401.289062 472.328125 L 402.1875 472.617188 L 403.082031 472.894531 L 403.980469 473.15625 L 404.875 473.410156 L 405.773438 473.652344 L 406.671875 473.886719 L 407.566406 474.109375 L 408.464844 474.320312 L 409.359375 474.527344 L 410.257812 474.71875 L 411.152344 474.90625 L 412.050781 475.085938 L 412.945312 475.257812 L 413.84375 475.421875 L 414.738281 475.578125 L 415.636719 475.726562 L 416.53125 475.871094 L 417.429688 476.003906 L 418.328125 476.132812 L 419.222656 476.253906 L 420.121094 476.367188 L 421.015625 476.476562 L 421.914062 476.582031 L 422.808594 476.679688 L 423.707031 476.769531 L 424.601562 476.855469 L 425.5 476.933594 L 426.394531 477.011719 L 427.292969 477.082031 L 428.1875 477.148438 L 429.085938 477.210938 L 429.984375 477.269531 L 430.878906 477.328125 L 431.777344 477.378906 L 432.671875 477.429688 L 433.570312 477.476562 L 434.464844 477.519531 L 435.363281 477.558594 L 436.257812 477.601562 L 437.15625 477.636719 L 438.050781 477.671875 L 438.949219 477.703125 L 439.84375 477.734375 L 441.640625 477.789062 L 442.535156 477.816406 L 443.433594 477.839844 L 444.328125 477.863281 L 445.226562 477.882812 L 446.121094 477.902344 L 447.019531 477.921875 L 447.914062 477.9375 L 448.8125 477.953125 L 449.707031 477.96875 L 450.605469 477.980469 L 451.5 477.996094 L 453.296875 478.019531 L 454.191406 478.03125 L 455.089844 478.039062 L 455.984375 478.050781 L 456.882812 478.058594 L 457.777344 478.066406 L 458.675781 478.078125 L 459.570312 478.085938 L 460.46875 478.09375 L 461.363281 478.101562 L 462.261719 478.109375 L 463.15625 478.117188 L 464.054688 478.121094 L 464.953125 478.128906 L 465.847656 478.136719 L 466.746094 478.144531 L 467.640625 478.148438 L 468.539062 478.15625 L 469.433594 478.160156 L 470.332031 478.167969 L 471.226562 478.171875 L 472.125 478.179688 L 473.019531 478.183594 L 473.917969 478.1875 L 474.8125 478.191406 L 476.609375 478.199219 L 477.503906 478.199219 L 478.402344 478.203125 L 479.296875 478.207031 L 480.195312 478.207031 L 481.089844 478.210938 L 481.089844 478.222656 L 22.910156 478.222656 Z M 22.910156 478.203125 "/>
<path style="fill:none;stroke-width:2.133957;stroke-linecap:round;stroke-linejoin:round;stroke:rgb(21.960784%,72.156863%,45.098039%);stroke-opacity:1;stroke-miterlimit:10;" d="M 22.910156 478.203125 L 23.804688 478.203125 L 24.703125 478.199219 L 25.597656 478.195312 L 26.496094 478.195312 L 27.390625 478.191406 L 29.1875 478.183594 L 30.082031 478.179688 L 30.980469 478.175781 L 31.875 478.171875 L 32.773438 478.167969 L 33.667969 478.164062 L 34.566406 478.160156 L 35.460938 478.152344 L 36.359375 478.148438 L 37.253906 478.140625 L 38.152344 478.132812 L 39.046875 478.125 L 40.84375 478.109375 L 41.738281 478.097656 L 42.636719 478.089844 L 43.53125 478.078125 L 44.429688 478.066406 L 45.324219 478.054688 L 46.222656 478.042969 L 47.117188 478.027344 L 48.015625 478.015625 L 48.910156 478 L 49.808594 477.980469 L 50.703125 477.964844 L 52.5 477.925781 L 53.394531 477.90625 L 54.292969 477.882812 L 55.1875 477.859375 L 56.085938 477.835938 L 56.980469 477.808594 L 57.878906 477.777344 L 58.773438 477.75 L 59.671875 477.714844 L 60.566406 477.679688 L 61.464844 477.644531 L 62.359375 477.605469 L 64.15625 477.519531 L 65.050781 477.472656 L 65.949219 477.425781 L 66.84375 477.375 L 67.742188 477.320312 L 68.636719 477.261719 L 69.535156 477.203125 L 70.429688 477.144531 L 71.328125 477.078125 L 72.222656 477.011719 L 73.121094 476.941406 L 74.015625 476.867188 L 75.8125 476.710938 L 76.707031 476.625 L 77.605469 476.53125 L 78.5 476.4375 L 79.398438 476.339844 L 80.292969 476.234375 L 81.191406 476.121094 L 82.085938 476.003906 L 82.984375 475.878906 L 83.878906 475.746094 L 84.777344 475.609375 L 85.671875 475.460938 L 86.570312 475.308594 L 87.46875 475.144531 L 88.363281 474.972656 L 89.261719 474.789062 L 90.15625 474.601562 L 91.054688 474.398438 L 91.949219 474.1875 L 92.847656 473.96875 L 93.742188 473.734375 L 94.640625 473.492188 L 95.535156 473.234375 L 96.433594 472.96875 L 97.328125 472.6875 L 98.226562 472.394531 L 99.125 472.085938 L 100.019531 471.765625 L 100.917969 471.429688 L 101.8125 471.078125 L 102.710938 470.710938 L 103.605469 470.328125 L 104.503906 469.925781 L 105.398438 469.507812 L 106.296875 469.074219 L 107.191406 468.621094 L 108.089844 468.148438 L 108.984375 467.652344 L 109.882812 467.140625 L 110.78125 466.605469 L 111.675781 466.046875 L 112.574219 465.46875 L 113.46875 464.867188 L 114.367188 464.242188 L 115.261719 463.59375 L 116.160156 462.914062 L 117.054688 462.210938 L 117.953125 461.480469 L 118.847656 460.722656 L 119.746094 459.933594 L 120.644531 459.117188 L 121.539062 458.269531 L 122.4375 457.386719 L 123.332031 456.46875 L 124.230469 455.519531 L 125.125 454.53125 L 126.023438 453.507812 L 126.917969 452.449219 L 127.816406 451.351562 L 128.710938 450.214844 L 129.609375 449.03125 L 130.503906 447.804688 L 131.402344 446.539062 L 132.300781 445.226562 L 133.195312 443.875 L 134.09375 442.472656 L 134.988281 441.027344 L 135.886719 439.53125 L 136.78125 437.984375 L 137.679688 436.386719 L 138.574219 434.738281 L 139.472656 433.042969 L 140.367188 431.300781 L 141.265625 429.503906 L 142.160156 427.660156 L 143.058594 425.761719 L 143.957031 423.808594 L 144.851562 421.808594 L 145.75 419.757812 L 146.644531 417.660156 L 147.542969 415.515625 L 148.4375 413.320312 L 149.335938 411.078125 L 150.230469 408.777344 L 151.128906 406.425781 L 152.023438 404.027344 L 152.921875 401.574219 L 153.816406 399.074219 L 154.714844 396.515625 L 155.613281 393.910156 L 156.507812 391.238281 L 157.40625 388.507812 L 158.300781 385.71875 L 159.199219 382.871094 L 160.09375 379.960938 L 160.992188 376.988281 L 161.886719 373.953125 L 162.785156 370.855469 L 163.679688 367.6875 L 164.578125 364.449219 L 165.472656 361.148438 L 166.371094 357.78125 L 167.269531 354.355469 L 168.164062 350.863281 L 169.0625 347.3125 L 169.957031 343.695312 L 170.855469 340.011719 L 171.75 336.269531 L 172.648438 332.46875 L 173.542969 328.613281 L 174.441406 324.699219 L 175.335938 320.734375 L 176.234375 316.714844 L 177.128906 312.640625 L 178.027344 308.511719 L 178.925781 304.332031 L 179.820312 300.105469 L 180.71875 295.832031 L 181.613281 291.507812 L 182.511719 287.144531 L 183.40625 282.734375 L 184.304688 278.273438 L 185.199219 273.769531 L 186.097656 269.226562 L 186.992188 264.644531 L 187.890625 260.023438 L 188.785156 255.371094 L 189.683594 250.679688 L 190.582031 245.957031 L 191.476562 241.203125 L 192.375 236.421875 L 193.269531 231.617188 L 194.167969 226.792969 L 195.0625 221.953125 L 195.960938 217.097656 L 196.855469 212.230469 L 197.753906 207.359375 L 198.648438 202.488281 L 199.546875 197.617188 L 200.441406 192.757812 L 201.339844 187.90625 L 202.238281 183.074219 L 203.132812 178.257812 L 204.03125 173.46875 L 204.925781 168.710938 L 205.824219 163.984375 L 206.71875 159.292969 L 207.617188 154.644531 L 208.511719 150.035156 L 209.410156 145.46875 L 210.304688 140.949219 L 211.203125 136.484375 L 212.101562 132.070312 L 212.996094 127.714844 L 213.894531 123.40625 L 214.789062 119.160156 L 215.6875 114.964844 L 216.582031 110.828125 L 217.480469 106.753906 L 218.375 102.742188 L 219.273438 98.800781 L 220.167969 94.921875 L 221.066406 91.113281 L 221.960938 87.371094 L 222.859375 83.703125 L 223.757812 80.113281 L 224.652344 76.601562 L 225.550781 73.1875 L 226.445312 69.859375 L 227.34375 66.625 L 228.238281 63.488281 L 229.136719 60.453125 L 230.03125 57.519531 L 230.929688 54.699219 L 231.824219 51.996094 L 232.722656 49.421875 L 233.617188 46.96875 L 234.515625 44.636719 L 235.414062 42.433594 L 236.308594 40.355469 L 237.207031 38.410156 L 238.101562 36.597656 L 239 34.933594 L 239.894531 33.414062 L 240.792969 32.027344 L 241.6875 30.777344 L 242.585938 29.664062 L 243.480469 28.6875 L 244.378906 27.847656 L 245.273438 27.148438 L 246.171875 26.605469 L 247.070312 26.199219 L 247.964844 25.925781 L 248.863281 25.785156 L 249.757812 25.777344 L 250.65625 25.898438 L 251.550781 26.148438 L 252.449219 26.539062 L 253.34375 27.066406 L 254.242188 27.71875 L 255.136719 28.492188 L 256.035156 29.386719 L 256.929688 30.402344 L 257.828125 31.53125 L 258.726562 32.78125 L 259.621094 34.160156 L 260.519531 35.660156 L 261.414062 37.273438 L 262.3125 39 L 263.207031 40.839844 L 264.105469 42.796875 L 265 44.867188 L 265.898438 47.058594 L 266.792969 49.378906 L 267.691406 51.820312 L 268.585938 54.375 L 269.484375 57.046875 L 270.382812 59.832031 L 271.277344 62.734375 L 272.175781 65.746094 L 273.070312 68.882812 L 273.96875 72.132812 L 274.863281 75.488281 L 275.761719 78.945312 L 276.65625 82.496094 L 277.554688 86.144531 L 278.449219 89.875 L 279.347656 93.695312 L 280.242188 97.601562 L 281.140625 101.585938 L 282.039062 105.640625 L 282.933594 109.761719 L 283.832031 113.941406 L 284.726562 118.183594 L 285.625 122.480469 L 286.519531 126.835938 L 287.417969 131.242188 L 288.3125 135.699219 L 289.210938 140.199219 L 290.105469 144.742188 L 291.003906 149.324219 L 291.898438 153.941406 L 292.796875 158.59375 L 293.695312 163.277344 L 294.589844 167.988281 L 295.488281 172.722656 L 296.382812 177.476562 L 297.28125 182.242188 L 298.175781 187.023438 L 299.074219 191.816406 L 299.96875 196.613281 L 300.867188 201.414062 L 301.761719 206.210938 L 302.660156 211.007812 L 303.558594 215.796875 L 304.453125 220.582031 L 305.351562 225.351562 L 306.246094 230.113281 L 307.144531 234.855469 L 308.039062 239.582031 L 308.9375 244.285156 L 309.832031 248.972656 L 310.730469 253.632812 L 311.625 258.269531 L 312.523438 262.875 L 313.417969 267.453125 L 314.316406 271.992188 L 315.214844 276.496094 L 316.109375 280.960938 L 317.007812 285.386719 L 317.902344 289.769531 L 318.800781 294.109375 L 319.695312 298.40625 L 320.59375 302.652344 L 321.488281 306.84375 L 322.386719 310.988281 L 323.28125 315.082031 L 324.179688 319.125 L 325.074219 323.117188 L 325.972656 327.058594 L 326.871094 330.945312 L 327.765625 334.777344 L 328.664062 338.550781 L 329.558594 342.269531 L 330.457031 345.9375 L 331.351562 349.546875 L 332.25 353.101562 L 333.144531 356.601562 L 334.042969 360.042969 L 334.9375 363.417969 L 335.835938 366.730469 L 336.730469 369.980469 L 337.628906 373.171875 L 338.527344 376.300781 L 339.421875 379.367188 L 340.320312 382.367188 L 341.214844 385.300781 L 342.113281 388.160156 L 343.007812 390.957031 L 343.90625 393.6875 L 344.800781 396.351562 L 345.699219 398.957031 L 346.59375 401.496094 L 347.492188 403.96875 L 348.386719 406.378906 L 349.285156 408.722656 L 350.183594 411.007812 L 351.078125 413.238281 L 351.976562 415.410156 L 352.871094 417.53125 L 353.769531 419.597656 L 354.664062 421.609375 L 355.5625 423.566406 L 356.457031 425.472656 L 357.355469 427.328125 L 358.25 429.140625 L 359.148438 430.902344 L 360.042969 432.621094 L 360.941406 434.296875 L 361.839844 435.921875 L 362.734375 437.5 L 363.632812 439.035156 L 364.527344 440.527344 L 365.425781 441.976562 L 366.320312 443.382812 L 367.21875 444.746094 L 368.113281 446.070312 L 369.011719 447.347656 L 369.90625 448.585938 L 370.804688 449.78125 L 371.699219 450.941406 L 372.597656 452.0625 L 373.496094 453.144531 L 374.390625 454.191406 L 375.289062 455.199219 L 376.183594 456.171875 L 377.082031 457.105469 L 377.976562 458.007812 L 378.875 458.878906 L 379.769531 459.71875 L 380.667969 460.527344 L 381.5625 461.308594 L 382.460938 462.054688 L 383.355469 462.773438 L 384.253906 463.464844 L 385.152344 464.128906 L 386.046875 464.765625 L 386.945312 465.382812 L 387.839844 465.972656 L 388.738281 466.539062 L 389.632812 467.078125 L 390.53125 467.597656 L 391.425781 468.09375 L 392.324219 468.570312 L 393.21875 469.027344 L 394.117188 469.464844 L 395.015625 469.882812 L 395.910156 470.285156 L 396.808594 470.664062 L 397.703125 471.027344 L 398.601562 471.375 L 399.496094 471.707031 L 400.394531 472.023438 L 401.289062 472.328125 L 402.1875 472.617188 L 403.082031 472.894531 L 403.980469 473.15625 L 404.875 473.410156 L 405.773438 473.652344 L 406.671875 473.886719 L 407.566406 474.109375 L 408.464844 474.320312 L 409.359375 474.527344 L 410.257812 474.71875 L 411.152344 474.90625 L 412.050781 475.085938 L 412.945312 475.257812 L 413.84375 475.421875 L 414.738281 475.578125 L 415.636719 475.726562 L 416.53125 475.871094 L 417.429688 476.003906 L 418.328125 476.132812 L 419.222656 476.253906 L 420.121094 476.367188 L 421.015625 476.476562 L 421.914062 476.582031 L 422.808594 476.679688 L 423.707031 476.769531 L 424.601562 476.855469 L 425.5 476.933594 L 426.394531 477.011719 L 427.292969 477.082031 L 428.1875 477.148438 L 429.085938 477.210938 L 429.984375 477.269531 L 430.878906 477.328125 L 431.777344 477.378906 L 432.671875 477.429688 L 433.570312 477.476562 L 434.464844 477.519531 L 435.363281 477.558594 L 436.257812 477.601562 L 437.15625 477.636719 L 438.050781 477.671875 L 438.949219 477.703125 L 439.84375 477.734375 L 441.640625 477.789062 L 442.535156 477.816406 L 443.433594 477.839844 L 444.328125 477.863281 L 445.226562 477.882812 L 446.121094 477.902344 L 447.019531 477.921875 L 447.914062 477.9375 L 448.8125 477.953125 L 449.707031 477.96875 L 450.605469 477.980469 L 451.5 477.996094 L 453.296875 478.019531 L 454.191406 478.03125 L 455.089844 478.039062 L 455.984375 478.050781 L 456.882812 478.058594 L 457.777344 478.066406 L 458.675781 478.078125 L 459.570312 478.085938 L 460.46875 478.09375 L 461.363281 478.101562 L 462.261719 478.109375 L 463.15625 478.117188 L 464.054688 478.121094 L 464.953125 478.128906 L 465.847656 478.136719 L 466.746094 478.144531 L 467.640625 478.148438 L 468.539062 478.15625 L 469.433594 478.160156 L 470.332031 478.167969 L 471.226562 478.171875 L 472.125 478.179688 L 473.019531 478.183594 L 473.917969 478.1875 L 474.8125 478.191406 L 476.609375 478.199219 L 477.503906 478.199219 L 478.402344 478.203125 L 479.296875 478.207031 L 480.195312 478.207031 L 481.089844 478.210938 "/>
</g>
</svg>
