<?xml version="1.0" encoding="UTF-8"?>
<svg xmlns="http://www.w3.org/2000/svg" xmlns:xlink="http://www.w3.org/1999/xlink" width="504pt" height="504pt" viewBox="0 0 504 504" version="1.1">
<g id="surface29">
<path style=" stroke:none;fill-rule:nonzero;fill:rgb(21.960784%,72.156863%,45.098039%);fill-opacity:0.501961;" d="M 22.910156 475.1875 L 23.804688 474.476562 L 24.703125 473.636719 L 25.597656 472.644531 L 26.496094 471.488281 L 27.390625 470.140625 L 28.289062 468.570312 L 29.1875 466.777344 L 30.082031 464.746094 L 30.980469 462.453125 L 31.875 459.890625 L 32.773438 457.042969 L 33.667969 453.898438 L 34.566406 450.441406 L 35.460938 446.667969 L 36.359375 442.527344 L 37.253906 438.050781 L 38.152344 433.238281 L 39.046875 428.09375 L 39.945312 422.621094 L 40.84375 416.816406 L 41.738281 410.695312 L 42.636719 404.257812 L 43.53125 397.519531 L 44.429688 390.460938 L 45.324219 383.109375 L 46.222656 375.492188 L 47.117188 367.628906 L 48.015625 359.527344 L 48.910156 351.207031 L 49.808594 342.683594 L 50.703125 333.976562 L 51.601562 325.101562 L 52.5 316.066406 L 53.394531 306.894531 L 54.292969 297.613281 L 55.1875 288.246094 L 56.085938 278.808594 L 56.980469 269.328125 L 57.878906 259.820312 L 58.773438 250.304688 L 59.671875 240.804688 L 60.566406 231.339844 L 61.464844 221.9375 L 62.359375 212.617188 L 63.257812 203.390625 L 64.15625 194.28125 L 65.050781 185.300781 L 65.949219 176.46875 L 66.84375 167.800781 L 67.742188 159.304688 L 68.636719 151.003906 L 69.535156 142.921875 L 70.429688 135.066406 L 71.328125 127.4375 L 72.222656 120.046875 L 73.121094 112.898438 L 74.015625 106.007812 L 74.914062 99.375 L 75.8125 93.007812 L 76.707031 86.910156 L 77.605469 81.109375 L 78.5 75.609375 L 79.398438 70.394531 L 80.292969 65.460938 L 81.191406 60.820312 L 82.085938 56.46875 L 82.984375 52.40625 L 83.878906 48.640625 L 84.777344 45.164062 L 85.671875 41.984375 L 86.570312 39.128906 L 87.46875 36.5625 L 88.363281 34.28125 L 89.261719 32.277344 L 90.15625 30.554688 L 91.054688 29.105469 L 91.949219 27.921875 L 92.847656 27.003906 L 93.742188 26.347656 L 94.640625 25.976562 L 95.535156 25.855469 L 96.433594 25.980469 L 97.328125 26.34375 L 98.226562 26.945312 L 99.125 27.777344 L 100.019531 28.835938 L 100.917969 30.113281 L 101.8125 31.605469 L 102.710938 33.328125 L 103.605469 35.257812 L 104.503906 37.382812 L 105.398438 39.695312 L 106.296875 42.191406 L 107.191406 44.855469 L 108.089844 47.691406 L 108.984375 50.683594 L 109.882812 53.828125 L 110.78125 57.128906 L 111.675781 60.578125 L 112.574219 64.160156 L 113.46875 67.867188 L 114.367188 71.695312 L 115.261719 75.632812 L 116.160156 79.675781 L 117.054688 83.820312 L 117.953125 88.050781 L 118.847656 92.371094 L 119.746094 96.773438 L 120.644531 101.246094 L 121.539062 105.777344 L 122.4375 110.371094 L 123.332031 115.015625 L 124.230469 119.710938 L 125.125 124.453125 L 126.023438 129.242188 L 126.917969 134.070312 L 127.816406 138.941406 L 128.710938 143.851562 L 129.609375 148.792969 L 130.503906 153.765625 L 131.402344 158.757812 L 132.300781 163.769531 L 133.195312 168.789062 L 134.09375 173.8125 L 134.988281 178.828125 L 135.886719 183.832031 L 136.78125 188.8125 L 137.679688 193.765625 L 138.574219 198.6875 L 139.472656 203.574219 L 140.367188 208.421875 L 141.265625 213.234375 L 142.160156 218.011719 L 143.058594 222.746094 L 143.957031 227.441406 L 144.851562 232.09375 L 145.75 236.707031 L 146.644531 241.277344 L 147.542969 245.808594 L 148.4375 250.296875 L 149.335938 254.738281 L 150.230469 259.132812 L 151.128906 263.476562 L 152.023438 267.769531 L 152.921875 272 L 153.816406 276.175781 L 154.714844 280.300781 L 155.613281 284.367188 L 156.507812 288.382812 L 157.40625 292.339844 L 158.300781 296.25 L 159.199219 300.105469 L 160.09375 303.914062 L 160.992188 307.667969 L 161.886719 311.367188 L 162.785156 315.019531 L 163.679688 318.625 L 164.578125 322.179688 L 165.472656 325.6875 L 166.371094 329.140625 L 167.269531 332.546875 L 168.164062 335.902344 L 169.0625 339.203125 L 169.957031 342.449219 L 170.855469 345.636719 L 171.75 348.773438 L 172.648438 351.859375 L 173.542969 354.886719 L 174.441406 357.863281 L 175.335938 360.785156 L 176.234375 363.652344 L 177.128906 366.464844 L 178.027344 369.21875 L 178.925781 371.917969 L 179.820312 374.5625 L 180.71875 377.160156 L 181.613281 379.703125 L 182.511719 382.191406 L 183.40625 384.632812 L 184.304688 387.023438 L 185.199219 389.359375 L 186.097656 391.644531 L 186.992188 393.875 L 187.890625 396.058594 L 188.785156 398.191406 L 189.683594 400.273438 L 190.582031 402.3125 L 191.476562 404.300781 L 192.375 406.242188 L 193.269531 408.140625 L 194.167969 409.988281 L 195.0625 411.792969 L 195.960938 413.554688 L 196.855469 415.273438 L 197.753906 416.953125 L 198.648438 418.597656 L 199.546875 420.207031 L 200.441406 421.777344 L 201.339844 423.316406 L 202.238281 424.820312 L 203.132812 426.289062 L 204.03125 427.730469 L 204.925781 429.140625 L 205.824219 430.515625 L 206.71875 431.863281 L 207.617188 433.179688 L 208.511719 434.464844 L 209.410156 435.71875 L 210.304688 436.941406 L 211.203125 438.125 L 212.101562 439.277344 L 212.996094 440.394531 L 213.894531 441.480469 L 214.789062 442.539062 L 215.6875 443.5625 L 216.582031 444.558594 L 217.480469 445.527344 L 218.375 446.46875 L 219.273438 447.378906 L 220.167969 448.265625 L 221.066406 449.125 L 221.960938 449.964844 L 222.859375 450.78125 L 223.757812 451.574219 L 224.652344 452.351562 L 225.550781 453.105469 L 226.445312 453.84375 L 227.34375 454.5625 L 228.238281 455.261719 L 229.136719 455.949219 L 230.03125 456.617188 L 230.929688 457.269531 L 231.824219 457.910156 L 232.722656 458.53125 L 233.617188 459.140625 L 234.515625 459.734375 L 235.414062 460.308594 L 236.308594 460.867188 L 237.207031 461.414062 L 238.101562 461.941406 L 239 462.453125 L 239.894531 462.949219 L 240.792969 463.429688 L 241.6875 463.894531 L 242.585938 464.347656 L 243.480469 464.78125 L 244.378906 465.203125 L 245.273438 465.609375 L 246.171875 466.003906 L 247.070312 466.386719 L 247.964844 466.757812 L 248.863281 467.117188 L 249.757812 467.46875 L 250.65625 467.808594 L 251.550781 468.140625 L 252.449219 468.464844 L 253.34375 468.78125 L 254.242188 469.089844 L 255.136719 469.394531 L 256.035156 469.6875 L 256.929688 469.976562 L 257.828125 470.257812 L 258.726562 470.53125 L 259.621094 470.796875 L 260.519531 471.054688 L 261.414062 471.300781 L 262.3125 471.539062 L 263.207031 471.765625 L 264.105469 471.984375 L 265 472.191406 L 265.898438 472.390625 L 266.792969 472.578125 L 267.691406 472.753906 L 268.585938 472.925781 L 269.484375 473.085938 L 270.382812 473.238281 L 271.277344 473.386719 L 272.175781 473.53125 L 273.070312 473.671875 L 273.96875 473.804688 L 274.863281 473.9375 L 275.761719 474.066406 L 276.65625 474.195312 L 277.554688 474.320312 L 278.449219 474.445312 L 279.347656 474.566406 L 280.242188 474.683594 L 282.039062 474.917969 L 282.933594 475.027344 L 283.832031 475.140625 L 284.726562 475.246094 L 285.625 475.351562 L 286.519531 475.453125 L 287.417969 475.546875 L 288.3125 475.640625 L 289.210938 475.730469 L 290.105469 475.816406 L 291.003906 475.898438 L 291.898438 475.976562 L 292.796875 476.050781 L 293.695312 476.117188 L 294.589844 476.183594 L 295.488281 476.246094 L 296.382812 476.304688 L 297.28125 476.363281 L 298.175781 476.417969 L 299.074219 476.472656 L 299.96875 476.523438 L 300.867188 476.574219 L 301.761719 476.625 L 302.660156 476.675781 L 303.558594 476.722656 L 304.453125 476.773438 L 305.351562 476.820312 L 306.246094 476.867188 L 307.144531 476.914062 L 308.039062 476.957031 L 308.9375 477 L 309.832031 477.042969 L 310.730469 477.082031 L 311.625 477.117188 L 312.523438 477.152344 L 313.417969 477.183594 L 314.316406 477.210938 L 315.214844 477.242188 L 316.109375 477.265625 L 317.007812 477.292969 L 317.902344 477.316406 L 318.800781 477.339844 L 319.695312 477.363281 L 320.59375 477.386719 L 321.488281 477.410156 L 322.386719 477.429688 L 323.28125 477.453125 L 324.179688 477.476562 L 325.074219 477.5 L 325.972656 477.519531 L 326.871094 477.542969 L 327.765625 477.566406 L 328.664062 477.585938 L 329.558594 477.609375 L 330.457031 477.632812 L 331.351562 477.652344 L 332.25 477.675781 L 333.144531 477.695312 L 334.042969 477.71875 L 334.9375 477.738281 L 335.835938 477.761719 L 336.730469 477.78125 L 338.527344 477.820312 L 339.421875 477.839844 L 340.320312 477.859375 L 341.214844 477.875 L 342.113281 477.894531 L 343.007812 477.910156 L 343.90625 477.925781 L 344.800781 477.9375 L 345.699219 477.953125 L 346.59375 477.964844 L 347.492188 477.976562 L 348.386719 477.984375 L 350.183594 478 L 351.078125 478.007812 L 351.976562 478.015625 L 352.871094 478.019531 L 353.769531 478.023438 L 354.664062 478.027344 L 355.5625 478.03125 L 356.457031 478.035156 L 357.355469 478.039062 L 358.25 478.042969 L 359.148438 478.046875 L 360.042969 478.050781 L 360.941406 478.050781 L 361.839844 478.054688 L 362.734375 478.058594 L 363.632812 478.058594 L 364.527344 478.0625 L 365.425781 478.066406 L 367.21875 478.066406 L 368.113281 478.070312 L 370.804688 478.070312 L 371.699219 478.074219 L 378.875 478.074219 L 379.769531 478.078125 L 381.5625 478.078125 L 382.460938 478.082031 L 383.355469 478.085938 L 384.253906 478.085938 L 385.152344 478.089844 L 386.046875 478.09375 L 386.945312 478.097656 L 387.839844 478.097656 L 388.738281 478.101562 L 389.632812 478.105469 L 390.53125 478.109375 L 391.425781 478.109375 L 392.324219 478.113281 L 394.117188 478.113281 L 395.015625 478.117188 L 403.082031 478.117188 L 403.980469 478.113281 L 409.359375 478.113281 L 410.257812 478.117188 L 414.738281 478.117188 L 415.636719 478.121094 L 417.429688 478.121094 L 418.328125 478.125 L 420.121094 478.125 L 421.015625 478.128906 L 422.808594 478.128906 L 423.707031 478.132812 L 425.5 478.132812 L 426.394531 478.136719 L 431.777344 478.136719 L 432.671875 478.140625 L 449.707031 478.140625 L 450.605469 478.144531 L 475.710938 478.144531 L 476.609375 478.140625 L 481.089844 478.140625 L 481.089844 478.144531 L 22.910156 478.144531 Z M 22.910156 475.1875 "/>
<path style="fill:none;stroke-width:2.133957;stroke-linecap:round;stroke-linejoin:round;stroke:rgb(21.960784%,72.156863%,45.098039%);stroke-opacity:1;stroke-miterlimit:10;" d="M 22.910156 475.1875 L 23.804688 474.476562 L 24.703125 473.636719 L 25.597656 472.644531 L 26.496094 471.488281 L 27.390625 470.140625 L 28.289062 468.570312 L 29.1875 466.777344 L 30.082031 464.746094 L 30.980469 462.453125 L 31.875 459.890625 L 32.773438 457.042969 L 33.667969 453.898438 L 34.566406 450.441406 L 35.460938 446.667969 L 36.359375 442.527344 L 37.253906 438.050781 L 38.152344 433.238281 L 39.046875 428.09375 L 39.945312 422.621094 L 40.84375 416.816406 L 41.738281 410.695312 L 42.636719 404.257812 L 43.53125 397.519531 L 44.429688 390.460938 L 45.324219 383.109375 L 46.222656 375.492188 L 47.117188 367.628906 L 48.015625 359.527344 L 48.910156 351.207031 L 49.808594 342.683594 L 50.703125 333.976562 L 51.601562 325.101562 L 52.5 316.066406 L 53.394531 306.894531 L 54.292969 297.613281 L 55.1875 288.246094 L 56.085938 278.808594 L 56.980469 269.328125 L 57.878906 259.820312 L 58.773438 250.304688 L 59.671875 240.804688 L 60.566406 231.339844 L 61.464844 221.9375 L 62.359375 212.617188 L 63.257812 203.390625 L 64.15625 194.28125 L 65.050781 185.300781 L 65.949219 176.46875 L 66.84375 167.800781 L 67.742188 159.304688 L 68.636719 151.003906 L 69.535156 142.921875 L 70.429688 135.066406 L 71.328125 127.4375 L 72.222656 120.046875 L 73.121094 112.898438 L 74.015625 106.007812 L 74.914062 99.375 L 75.8125 93.007812 L 76.707031 86.910156 L 77.605469 81.109375 L 78.5 75.609375 L 79.398438 70.394531 L 80.292969 65.460938 L 81.191406 60.820312 L 82.085938 56.46875 L 82.984375 52.40625 L 83.878906 48.640625 L 84.777344 45.164062 L 85.671875 41.984375 L 86.570312 39.128906 L 87.46875 36.5625 L 88.363281 34.28125 L 89.261719 32.277344 L 90.15625 30.554688 L 91.054688 29.105469 L 91.949219 27.921875 L 92.847656 27.003906 L 93.742188 26.347656 L 94.640625 25.976562 L 95.535156 25.855469 L 96.433594 25.980469 L 97.328125 26.34375 L 98.226562 26.945312 L 99.125 27.777344 L 100.019531 28.835938 L 100.917969 30.113281 L 101.8125 31.605469 L 102.710938 33.328125 L 103.605469 35.257812 L 104.503906 37.382812 L 105.398438 39.695312 L 106.296875 42.191406 L 107.191406 44.855469 L 108.089844 47.691406 L 108.984375 50.683594 L 109.882812 53.828125 L 110.78125 57.128906 L 111.675781 60.578125 L 112.574219 64.160156 L 113.46875 67.867188 L 114.367188 71.695312 L 115.261719 75.632812 L 116.160156 79.675781 L 117.054688 83.820312 L 117.953125 88.050781 L 118.847656 92.371094 L 119.746094 96.773438 L 120.644531 101.246094 L 121.539062 105.777344 L 122.4375 110.371094 L 123.332031 115.015625 L 124.230469 119.710938 L 125.125 124.453125 L 126.023438 129.242188 L 126.917969 134.070312 L 127.816406 138.941406 L 128.710938 143.851562 L 129.609375 148.792969 L 130.503906 153.765625 L 131.402344 158.757812 L 132.300781 163.769531 L 133.195312 168.789062 L 134.09375 173.8125 L 134.988281 178.828125 L 135.886719 183.832031 L 136.78125 188.8125 L 137.679688 193.765625 L 138.574219 198.6875 L 139.472656 203.574219 L 140.367188 208.421875 L 141.265625 213.234375 L 142.160156 218.011719 L 143.058594 222.746094 L 143.957031 227.441406 L 144.851562 232.09375 L 145.75 236.707031 L 146.644531 241.277344 L 147.542969 245.808594 L 148.4375 250.296875 L 149.335938 254.738281 L 150.230469 259.132812 L 151.128906 263.476562 L 152.023438 267.769531 L 152.921875 272 L 153.816406 276.175781 L 154.714844 280.300781 L 155.613281 284.367188 L 156.507812 288.382812 L 157.40625 292.339844 L 158.300781 296.25 L 159.199219 300.105469 L 160.09375 303.914062 L 160.992188 307.667969 L 161.886719 311.367188 L 162.785156 315.019531 L 163.679688 318.625 L 164.578125 322.179688 L 165.472656 325.6875 L 166.371094 329.140625 L 167.269531 332.546875 L 168.164062 335.902344 L 169.0625 339.203125 L 169.957031 342.449219 L 170.855469 345.636719 L 171.75 348.773438 L 172.648438 351.859375 L 173.542969 354.886719 L 174.441406 357.863281 L 175.335938 360.785156 L 176.234375 363.652344 L 177.128906 366.464844 L 178.027344 369.21875 L 178.925781 371.917969 L 179.820312 374.5625 L 180.71875 377.160156 L 181.613281 379.703125 L 182.511719 382.191406 L 183.40625 384.632812 L 184.304688 387.023438 L 185.199219 389.359375 L 186.097656 391.644531 L 186.992188 393.875 L 187.890625 396.058594 L 188.785156 398.191406 L 189.683594 400.273438 L 190.582031 402.3125 L 191.476562 404.300781 L 192.375 406.242188 L 193.269531 408.140625 L 194.167969 409.988281 L 195.0625 411.792969 L 195.960938 413.554688 L 196.855469 415.273438 L 197.753906 416.953125 L 198.648438 418.597656 L 199.546875 420.207031 L 200.441406 421.777344 L 201.339844 423.316406 L 202.238281 424.820312 L 203.132812 426.289062 L 204.03125 427.730469 L 204.925781 429.140625 L 205.824219 430.515625 L 206.71875 431.863281 L 207.617188 433.179688 L 208.511719 434.464844 L 209.410156 435.71875 L 210.304688 436.941406 L 211.203125 438.125 L 212.101562 439.277344 L 212.996094 440.394531 L 213.894531 441.480469 L 214.789062 442.539062 L 215.6875 443.5625 L 216.582031 444.558594 L 217.480469 445.527344 L 218.375 446.46875 L 219.273438 447.378906 L 220.167969 448.265625 L 221.066406 449.125 L 221.960938 449.964844 L 222.859375 450.78125 L 223.757812 451.574219 L 224.652344 452.351562 L 225.550781 453.105469 L 226.445312 453.84375 L 227.34375 454.5625 L 228.238281 455.261719 L 229.136719 455.949219 L 230.03125 456.617188 L 230.929688 457.269531 L 231.824219 457.910156 L 232.722656 458.53125 L 233.617188 459.140625 L 234.515625 459.734375 L 235.414062 460.308594 L 236.308594 460.867188 L 237.207031 461.414062 L 238.101562 461.941406 L 239 462.453125 L 239.894531 462.949219 L 240.792969 463.429688 L 241.6875 463.894531 L 242.585938 464.347656 L 243.480469 464.78125 L 244.378906 465.203125 L 245.273438 465.609375 L 246.171875 466.003906 L 247.070312 466.386719 L 247.964844 466.757812 L 248.863281 467.117188 L 249.757812 467.46875 L 250.65625 467.808594 L 251.550781 468.140625 L 252.449219 468.464844 L 253.34375 468.78125 L 254.242188 469.089844 L 255.136719 469.394531 L 256.035156 469.6875 L 256.929688 469.976562 L 257.828125 470.257812 L 258.726562 470.53125 L 259.621094 470.796875 L 260.519531 471.054688 L 261.414062 471.300781 L 262.3125 471.539062 L 263.207031 471.765625 L 264.105469 471.984375 L 265 472.191406 L 265.898438 472.390625 L 266.792969 472.578125 L 267.691406 472.753906 L 268.585938 472.925781 L 269.484375 473.085938 L 270.382812 473.238281 L 271.277344 473.386719 L 272.175781 473.53125 L 273.070312 473.671875 L 273.96875 473.804688 L 274.863281 473.9375 L 275.761719 474.066406 L 276.65625 474.195312 L 277.554688 474.320312 L 278.449219 474.445312 L 279.347656 474.566406 L 280.242188 474.683594 L 282.039062 474.917969 L 282.933594 475.027344 L 283.832031 475.140625 L 284.726562 475.246094 L 285.625 475.351562 L 286.519531 475.453125 L 287.417969 475.546875 L 288.3125 475.640625 L 289.210938 475.730469 L 290.105469 475.816406 L 291.003906 475.898438 L 291.898438 475.976562 L 292.796875 476.050781 L 293.695312 476.117188 L 294.589844 476.183594 L 295.488281 476.246094 L 296.382812 476.304688 L 297.28125 476.363281 L 298.175781 476.417969 L 299.074219 476.472656 L 299.96875 476.523438 L 300.867188 476.574219 L 301.761719 476.625 L 302.660156 476.675781 L 303.558594 476.722656 L 304.453125 476.773438 L 305.351562 476.820312 L 306.246094 476.867188 L 307.144531 476.914062 L 308.039062 476.957031 L 308.9375 477 L 309.832031 477.042969 L 310.730469 477.082031 L 311.625 477.117188 L 312.523438 477.152344 L 313.417969 477.183594 L 314.316406 477.210938 L 315.214844 477.242188 L 316.109375 477.265625 L 317.007812 477.292969 L 317.902344 477.316406 L 318.800781 477.339844 L 319.695312 477.363281 L 320.59375 477.386719 L 321.488281 477.410156 L 322.386719 477.429688 L 323.28125 477.453125 L 324.179688 477.476562 L 325.074219 477.5 L 325.972656 477.519531 L 326.871094 477.542969 L 327.765625 477.566406 L 328.664062 477.585938 L 329.558594 477.609375 L 330.457031 477.632812 L 331.351562 477.652344 L 332.25 477.675781 L 333.144531 477.695312 L 334.042969 477.71875 L 334.9375 477.738281 L 335.835938 477.761719 L 336.730469 477.78125 L 338.527344 477.820312 L 339.421875 477.839844 L 340.320312 477.859375 L 341.214844 477.875 L 342.113281 477.894531 L 343.007812 477.910156 L 343.90625 477.925781 L 344.800781 477.9375 L 345.699219 477.953125 L 346.59375 477.964844 L 347.492188 477.976562 L 348.386719 477.984375 L 350.183594 478 L 351.078125 478.007812 L 351.976562 478.015625 L 352.871094 478.019531 L 353.769531 478.023438 L 354.664062 478.027344 L 355.5625 478.03125 L 356.457031 478.035156 L 357.355469 478.039062 L 358.25 478.042969 L 359.148438 478.046875 L 360.042969 478.050781 L 360.941406 478.050781 L 361.839844 478.054688 L 362.734375 478.058594 L 363.632812 478.058594 L 364.527344 478.0625 L 365.425781 478.066406 L 367.21875 478.066406 L 368.113281 478.070312 L 370.804688 478.070312 L 371.699219 478.074219 L 378.875 478.074219 L 379.769531 478.078125 L 381.5625 478.078125 L 382.460938 478.082031 L 383.355469 478.085938 L 384.253906 478.085938 L 385.152344 478.089844 L 386.046875 478.09375 L 386.945312 478.097656 L 387.839844 478.097656 L 388.738281 478.101562 L 389.632812 478.105469 L 390.53125 478.109375 L 391.425781 478.109375 L 392.324219 478.113281 L 394.117188 478.113281 L 395.015625 478.117188 L 403.082031 478.117188 L 403.980469 478.113281 L 409.359375 478.113281 L 410.257812 478.117188 L 414.738281 478.117188 L 415.636719 478.121094 L 417.429688 478.121094 L 418.328125 478.125 L 420.121094 478.125 L 421.015625 478.128906 L 422.808594 478.128906 L 423.707031 478.132812 L 425.5 478.132812 L 426.394531 478.136719 L 431.777344 478.136719 L 432.671875 478.140625 L 449.707031 478.140625 L 450.605469 478.144531 L 475.710938 478.144531 L 476.609375 478.140625 L 481.089844 478.140625 "/>
</g>
</svg>
