<svg width="150" height="101" viewBox="0 0 150 101" fill="none" xmlns="http://www.w3.org/2000/svg">
<rect y="0.0405884" width="150" height="100" fill="#96BFE3"/>
<path fill-rule="evenodd" clip-rule="evenodd" d="M0 4.09999H7.7V0.0405884H8.7V4.09999H20.3998V0.0405884H21.3998V4.09999H33.0998V0.0405884H34.0998V4.09999H45.7998V0.0405884H46.7998V4.09999H58.4998V0.0405884H59.4998V4.09999H71.1998V0.0405884H72.1998V4.09999H83.8998V0.0405884H84.8998V4.09999H96.5998V0.0405884H97.5998V4.09999H109.3V0.0405884H110.3V4.09999H122V0.0405884H123V4.09999H134.7V0.0405884H135.7V4.09999H147.4V0.0405884H148.4V4.09999H150V5.09999H148.4V16.8H150V17.8H148.4V29.5H150V30.5H148.4V42.2H150V43.2H148.4V54.9H150V55.9H148.4V67.6H150V68.6H148.4V80.3H150V81.3H148.4V93H150V94H148.4V100.041H147.4V94H135.7V100.041H134.7V94H123V100.041H122V94H110.3V100.041H109.3V94H97.5998V100.041H96.5998V94H84.8998V100.041H83.8998V94H72.1998V100.041H71.1998V94H59.4998V100.041H58.4998V94H46.7998V100.041H45.7998V94H34.0998V100.041H33.0998V94H21.3998L21.3998 100.041H20.3998L20.3998 94H8.7V100.041H7.7V94H0V93H7.7V81.3H0V80.3H7.7V68.6H0V67.6H7.7V55.9H0V54.9H7.7V43.2H0V42.2H7.7V30.5H0V29.5H7.7V17.8H0V16.8H7.7V5.09999H0V4.09999ZM147.4 93V81.3H135.7V93H147.4ZM147.4 80.3V68.6H135.7V80.3H147.4ZM147.4 67.6V55.9H135.7V67.6H147.4ZM147.4 54.9V43.2H135.7V54.9H147.4ZM147.4 42.2V30.5H135.7V42.2H147.4ZM147.4 29.5V17.8H135.7V29.5H147.4ZM147.4 16.8V5.09999H135.7V16.8H147.4ZM122 81.3V93H110.3V81.3H122ZM122 68.6V80.3H110.3V68.6H122ZM122 55.9V67.6H110.3V55.9H122ZM122 43.2V54.9H110.3V43.2H122ZM122 30.5V42.2H110.3V30.5H122ZM122 17.8V29.5H110.3V17.8H122ZM122 5.09999V16.8H110.3V5.09999H122ZM134.7 93H123V81.3H134.7V93ZM134.7 80.3H123V68.6H134.7V80.3ZM134.7 67.6H123V55.9H134.7V67.6ZM134.7 54.9H123V43.2H134.7V54.9ZM134.7 42.2H123V30.5H134.7V42.2ZM134.7 29.5H123V17.8H134.7V29.5ZM134.7 16.8H123V5.09999H134.7V16.8ZM109.3 93V81.3H97.5998V93H109.3ZM109.3 80.3V68.6H97.5998V80.3H109.3ZM109.3 67.6V55.9H97.5998V67.6H109.3ZM109.3 54.9V43.2H97.5998V54.9H109.3ZM109.3 42.2V30.5H97.5998V42.2H109.3ZM109.3 29.5V17.8H97.5998V29.5H109.3ZM109.3 16.8V5.09999H97.5998V16.8H109.3ZM83.8998 81.3V93H72.1998V81.3H83.8998ZM83.8998 68.6V80.3H72.1998V68.6H83.8998ZM83.8998 55.9V67.6H72.1998V55.9H83.8998ZM83.8998 43.2V54.9H72.1998V43.2H83.8998ZM83.8998 30.5V42.2H72.1998V30.5H83.8998ZM83.8998 17.8V29.5H72.1998V17.8H83.8998ZM83.8998 5.09999V16.8H72.1998V5.09999H83.8998ZM96.5998 93H84.8998V81.3H96.5998V93ZM96.5998 80.3H84.8998V68.6H96.5998V80.3ZM96.5998 67.6H84.8998V55.9H96.5998V67.6ZM96.5998 54.9H84.8998V43.2H96.5998V54.9ZM96.5998 42.2H84.8998V30.5H96.5998V42.2ZM96.5998 29.5H84.8998V17.8H96.5998V29.5ZM96.5998 16.8H84.8998V5.09999H96.5998V16.8ZM21.3998 5.09999H33.0998V16.8H21.3998V5.09999ZM34.0998 5.09999V16.8H45.7998V5.09999H34.0998ZM21.3998 17.8H33.0998V29.5H21.3998V17.8ZM34.0998 17.8V29.5H45.7998V17.8H34.0998ZM21.3998 30.5H33.0998V42.2H21.3998V30.5ZM34.0998 30.5V42.2H45.7998V30.5H34.0998ZM21.3998 43.2H33.0998V54.9H21.3998V43.2ZM34.0998 43.2V54.9H45.7998V43.2H34.0998ZM21.3998 55.9H33.0998V67.6H21.3998V55.9ZM34.0998 55.9V67.6H45.7998V55.9H34.0998ZM21.3998 68.6H33.0998V80.3H21.3998V68.6ZM34.0998 68.6V80.3H45.7998V68.6H34.0998ZM21.3998 81.3H33.0998V93H21.3998V81.3ZM34.0998 81.3V93H45.7998V81.3H34.0998ZM46.7998 93H58.4998V81.3H46.7998V93ZM46.7998 80.3H58.4998V68.6H46.7998V80.3ZM46.7998 67.6H58.4998V55.9H46.7998V67.6ZM46.7998 54.9H58.4998V43.2H46.7998V54.9ZM46.7998 42.2H58.4998V30.5H46.7998V42.2ZM46.7998 29.5H58.4998V17.8H46.7998V29.5ZM46.7998 16.8H58.4998V5.09999H46.7998V16.8ZM8.7 16.8V5.09999H20.3998V16.8H8.7ZM8.7 29.5V17.8H20.3998V29.5H8.7ZM8.7 42.2V30.5H20.3998V42.2H8.7ZM8.7 54.9V43.2H20.3998V54.9H8.7ZM8.7 67.6V55.9H20.3998V67.6H8.7ZM8.7 80.3V68.6H20.3998V80.3H8.7ZM8.7 93V81.3H20.3998V93H8.7ZM71.1998 93V81.3H59.4998V93H71.1998ZM71.1998 80.3V68.6H59.4998V80.3H71.1998ZM71.1998 67.6V55.9H59.4998V67.6H71.1998ZM71.1998 54.9V43.2H59.4998V54.9H71.1998ZM71.1998 42.2V30.5H59.4998V42.2H71.1998ZM71.1998 29.5V17.8H59.4998V29.5H71.1998ZM71.1998 16.8V5.09999H59.4998V16.8H71.1998Z" fill="black"/>
<path d="M132.347 44.5331C136.471 67.9206 120.855 90.2229 97.4672 94.3467C74.0798 98.4706 51.7775 82.8543 47.6536 59.4669C43.5298 36.0794 59.146 13.7771 82.5335 9.65325C105.921 5.52941 128.223 21.1457 132.347 44.5331Z" fill="#FFFBFC"/>
<path d="M81.6485 50.1494L81.984 52.0519L76.3479 53.0457L76.0125 51.1432L81.6485 50.1494ZM78.9128 60.0476L77.1862 50.2558C77.0695 49.5939 77.1015 49.0223 77.2823 48.5409C77.467 48.0587 77.766 47.6689 78.1794 47.3712C78.5928 47.0735 79.0869 46.874 79.6616 46.7727C80.05 46.7042 80.41 46.6714 80.7415 46.6742C81.077 46.6764 81.3282 46.6873 81.4951 46.7069L81.3787 48.689C81.2741 48.6748 81.146 48.6667 80.9944 48.6648C80.8468 48.6622 80.6977 48.6742 80.5471 48.7008C80.1746 48.7665 79.9303 48.8994 79.8144 49.0997C79.6978 49.296 79.6668 49.5487 79.7213 49.8578L81.4395 59.6021L78.9128 60.0476Z" fill="black"/>
<path d="M84.6385 59.038L83.0283 49.9061L85.561 49.4595L87.1712 58.5914L84.6385 59.038ZM84.0931 48.5046C83.7165 48.571 83.3715 48.5031 83.0579 48.301C82.7477 48.0941 82.5614 47.8143 82.4992 47.4616C82.4377 47.1128 82.5177 46.7901 82.7393 46.4936C82.9641 46.1924 83.2647 46.0086 83.6412 45.9422C84.0178 45.8759 84.3612 45.9461 84.6715 46.1529C84.985 46.3551 85.1725 46.6306 85.234 46.9794C85.2962 47.3321 85.2149 47.6591 84.9901 47.9603C84.7686 48.2568 84.4696 48.4382 84.0931 48.5046Z" fill="black"/>
<path d="M95.4795 50.3956L93.1861 50.9471C93.1115 50.7559 92.9948 50.5926 92.8361 50.4571C92.6766 50.3177 92.4815 50.2193 92.2507 50.1619C92.0232 50.0999 91.7627 50.0947 91.4694 50.1464C91.0771 50.2156 90.7608 50.3572 90.5206 50.5712C90.2798 50.7812 90.1834 51.023 90.2317 51.2964C90.2701 51.5144 90.3898 51.6833 90.5907 51.8032C90.7917 51.9231 91.1123 51.9912 91.5524 52.0076L93.2639 52.0491C94.1839 52.0749 94.8975 52.2514 95.4047 52.5788C95.912 52.9062 96.2237 53.3989 96.3397 54.0568C96.4452 54.6553 96.3614 55.2116 96.0883 55.7256C95.8192 56.239 95.4018 56.6763 94.8362 57.0376C94.2738 57.3942 93.5963 57.6424 92.8036 57.7822C91.5947 57.9953 90.5872 57.9135 89.7811 57.5366C88.9782 57.1551 88.4384 56.5392 88.1618 55.6889L90.6298 55.1188C90.7701 55.4741 91.002 55.7234 91.3256 55.8666C91.6485 56.0058 92.0359 56.0356 92.4877 55.9559C92.9316 55.8777 93.2733 55.7295 93.5128 55.5116C93.7555 55.289 93.8547 55.0406 93.8105 54.7664C93.766 54.5372 93.6357 54.3661 93.4196 54.253C93.2028 54.1359 92.8892 54.0727 92.4789 54.0633L90.8419 54.0271C89.9186 54.0059 89.2003 53.8138 88.6867 53.4508C88.1771 53.087 87.8622 52.5643 87.742 51.8825C87.6386 51.296 87.708 50.7627 87.9503 50.2827C88.1966 49.802 88.5888 49.3956 89.1269 49.0637C89.669 48.7311 90.3304 48.496 91.1112 48.3583C92.2646 48.1549 93.2152 48.2386 93.9631 48.6094C94.7149 48.9795 95.2204 49.5749 95.4795 50.3956Z" fill="black"/>
<path d="M101.513 46.6468L101.849 48.5492L96.3492 49.5189L96.0138 47.6164L101.513 46.6468ZM96.8765 45.2085L99.4092 44.7619L100.91 53.2754C100.952 53.5093 101.019 53.6853 101.114 53.8035C101.207 53.9178 101.322 53.9895 101.458 54.0186C101.598 54.0471 101.753 54.0463 101.924 54.0163C102.043 53.9953 102.16 53.9644 102.275 53.9236C102.39 53.8789 102.478 53.845 102.539 53.8219L103.27 55.6363C103.15 55.6983 102.98 55.7753 102.759 55.8674C102.539 55.9634 102.265 56.0464 101.938 56.1163C101.332 56.2477 100.783 56.2608 100.29 56.1556C99.8016 56.0496 99.3958 55.8229 99.073 55.4752C98.7501 55.1275 98.5379 54.6541 98.4364 54.0549L96.8765 45.2085Z" fill="black"/>
<path d="M97.7277 95.8239C121.931 91.5562 138.092 68.4759 133.824 44.2726C129.557 20.0693 106.476 3.90835 82.273 8.17604C58.0697 12.4437 41.9087 35.524 46.1764 59.7273C50.4441 83.9306 73.5244 100.092 97.7277 95.8239Z" stroke="black" stroke-width="3"/>
</svg>
