<svg width="150" height="100" viewBox="0 0 150 100" fill="none" xmlns="http://www.w3.org/2000/svg">
<rect width="150" height="100" fill="#1E1E1E"/>
<rect width="150" height="100" fill="#1E1E1E"/>
<path d="M0 64H95V71H0V64Z" fill="#FB32D7" fill-opacity="0.5"/>
<path d="M8.99805 99.9978L119 0.000180911L127.999 0L17.998 99.9978L8.99805 99.9978Z" fill="#FB32D7" fill-opacity="0.5"/>
<path d="M16.9998 2.2271e-06L150 86.5V94L8.5 0L16.9998 2.2271e-06Z" fill="#FB32D7" fill-opacity="0.5"/>
<path d="M150 72.5L0 100L3.93495e-06 94.5L150 66L150 72.5Z" fill="#FB32D7" fill-opacity="0.5"/>
<path d="M150 53L86.5 4.9858e-07L95 0L150 43.5V53Z" fill="#FB32D7" fill-opacity="0.5"/>
<path d="M89 100L149.999 71.5L150 78.0002L103 100L89 100Z" fill="#FB32D7" fill-opacity="0.5"/>
<path d="M60.5002 8.3604e-06L131.5 100L124 100L53 0L60.5002 8.3604e-06Z" fill="#FB32D7" fill-opacity="0.5"/>
<path d="M0 38L86.5002 0.000489369L97.0002 0.000488281L0.000189806 47.0005L0 38Z" fill="#FB32D7" fill-opacity="0.5"/>
<path d="M52.0002 100L20 7.04032e-05L26.5 0L61 100L52.0002 100Z" fill="#FB32D7" fill-opacity="0.5"/>
<rect x="95.7393" y="56.5013" width="10.5715" height="8.99698" transform="rotate(40 95.7393 56.5013)" fill="#FB32D7"/>
<path d="M90 69.0838L89.9561 63.3934L98.0543 70.1886L93.5288 71.3828L90 69.0838Z" fill="#FB32D7"/>
<path fill-rule="evenodd" clip-rule="evenodd" d="M92.7062 65.701L90 69.0838L89.9561 63.3934L92.7062 65.701ZM92.7062 65.701L89.9561 63.3934L95.7393 56.5013L96.9627 57.5279L98 59.0838L92.7062 65.701Z" fill="#FA0ACF"/>
<path fill-rule="evenodd" clip-rule="evenodd" d="M150 22.9793L136.52 39.0437L136.52 39.0435C132.895 43.3642 127.302 45.0605 122.151 43.9213L106.249 62.8721C105.515 63.7467 104.389 64.0972 103.344 63.8823L98.0533 70.1874L89.9551 63.3923L95.2471 57.0855C94.8558 56.0947 95.006 54.9262 95.7389 54.0528L111.717 35.0106C109.819 30.1854 110.554 24.4996 114.121 20.2483L114.15 20.214L114.183 20.175L131.112 0H150V22.9793ZM89.9551 63.3923L89.999 69.0832L93.5278 71.3817L98.0533 70.1875L89.9551 63.3923Z" fill="#FC7FE7"/>
<path fill-rule="evenodd" clip-rule="evenodd" d="M131.11 0H150V22.9771L136.519 39.0437L136.518 39.0435C132.893 43.3642 127.3 45.0605 122.149 43.9213L106.248 62.8721C105.183 64.1414 103.29 64.3069 102.021 63.2419L96.1069 58.2793C94.8376 57.2143 94.6721 55.3221 95.7371 54.0528L111.715 35.0106C109.817 30.1854 110.552 24.4996 114.119 20.2483C114.14 20.2237 114.16 20.1993 114.181 20.175L131.11 0Z" fill="#FC7FE7"/>
</svg>
