<svg width="150" height="101" viewBox="0 0 150 101" fill="none" xmlns="http://www.w3.org/2000/svg">
<rect y="0.0405884" width="150" height="100" fill="#041C2F"/>
<path d="M47.3668 18H150V79H6L47.3668 18Z" fill="#1173C4"/>
<path d="M47.3668 18H150V79H6L47.3668 18Z" stroke="#041C2F"/>
<path d="M37.6439 42.7284H150V48.5414H33.7686L37.6439 42.7284Z" fill="#EDEBDB"/>
<path d="M37.6439 42.7284H150V48.5414H33.7686L37.6439 42.7284Z" stroke="#041C2F"/>
<rect width="3.27483" height="4.14812" transform="matrix(1 0 -0.5547 0.83205 19.1152 70.5217)" fill="#EDEBDB"/>
<rect width="3.27483" height="4.14812" transform="matrix(1 0 -0.5547 0.83205 19.1152 70.5217)" stroke="#041C2F"/>
<rect width="3.27483" height="4.14812" transform="matrix(1 0 -0.5547 0.83205 23.2637 70.5217)" fill="#EDEBDB"/>
<rect width="3.27483" height="4.14812" transform="matrix(1 0 -0.5547 0.83205 23.2637 70.5217)" stroke="#041C2F"/>
<rect width="3.27483" height="4.14812" transform="matrix(1 0 -0.5547 0.83205 27.4111 70.5217)" fill="#EDEBDB"/>
<rect width="3.27483" height="4.14812" transform="matrix(1 0 -0.5547 0.83205 27.4111 70.5217)" stroke="#041C2F"/>
<rect width="3.27483" height="4.14812" transform="matrix(1 0 -0.5547 0.83205 31.5586 70.5217)" fill="#EDEBDB"/>
<rect width="3.27483" height="4.14812" transform="matrix(1 0 -0.5547 0.83205 31.5586 70.5217)" stroke="#041C2F"/>
<rect width="3.27483" height="4.14812" transform="matrix(1 0 -0.5547 0.83205 35.707 70.5217)" fill="#EDEBDB"/>
<rect width="3.27483" height="4.14812" transform="matrix(1 0 -0.5547 0.83205 35.707 70.5217)" stroke="#041C2F"/>
<rect width="3.27483" height="4.14812" transform="matrix(1 0 -0.5547 0.83205 39.8555 70.5217)" fill="#EDEBDB"/>
<rect width="3.27483" height="4.14812" transform="matrix(1 0 -0.5547 0.83205 39.8555 70.5217)" stroke="#041C2F"/>
<rect width="3.27483" height="4.14812" transform="matrix(1 0 -0.5547 0.83205 44.0039 70.5217)" fill="#EDEBDB"/>
<rect width="3.27483" height="4.14812" transform="matrix(1 0 -0.5547 0.83205 44.0039 70.5217)" stroke="#041C2F"/>
<rect width="3.27483" height="4.14812" transform="matrix(1 0 -0.5547 0.83205 48.1514 70.5217)" fill="#EDEBDB"/>
<rect width="3.27483" height="4.14812" transform="matrix(1 0 -0.5547 0.83205 48.1514 70.5217)" stroke="#041C2F"/>
<rect width="3.27483" height="4.14812" transform="matrix(1 0 -0.5547 0.83205 67.3643 70.5217)" fill="#EDEBDB"/>
<rect width="3.27483" height="4.14812" transform="matrix(1 0 -0.5547 0.83205 67.3643 70.5217)" stroke="#041C2F"/>
<rect width="3.27483" height="4.14812" transform="matrix(1 0 -0.5547 0.83205 71.5117 70.5217)" fill="#EDEBDB"/>
<rect width="3.27483" height="4.14812" transform="matrix(1 0 -0.5547 0.83205 71.5117 70.5217)" stroke="#041C2F"/>
<rect width="3.27483" height="4.14812" transform="matrix(1 0 -0.5547 0.83205 75.6611 70.5217)" fill="#EDEBDB"/>
<rect width="3.27483" height="4.14812" transform="matrix(1 0 -0.5547 0.83205 75.6611 70.5217)" stroke="#041C2F"/>
<rect width="3.27483" height="4.14812" transform="matrix(1 0 -0.5547 0.83205 79.8086 70.5217)" fill="#EDEBDB"/>
<rect width="3.27483" height="4.14812" transform="matrix(1 0 -0.5547 0.83205 79.8086 70.5217)" stroke="#041C2F"/>
<rect width="3.27483" height="4.14812" transform="matrix(1 0 -0.5547 0.83205 96.4004 70.5217)" fill="#EDEBDB"/>
<rect width="3.27483" height="4.14812" transform="matrix(1 0 -0.5547 0.83205 96.4004 70.5217)" stroke="#041C2F"/>
<rect width="3.27483" height="4.14812" transform="matrix(1 0 -0.5547 0.83205 100.549 70.5217)" fill="#EDEBDB"/>
<rect width="3.27483" height="4.14812" transform="matrix(1 0 -0.5547 0.83205 100.549 70.5217)" stroke="#041C2F"/>
<rect width="3.27483" height="4.14812" transform="matrix(1 0 -0.5547 0.83205 104.697 70.5217)" fill="#EDEBDB"/>
<rect width="3.27483" height="4.14812" transform="matrix(1 0 -0.5547 0.83205 104.697 70.5217)" stroke="#041C2F"/>
<rect width="3.27483" height="4.14812" transform="matrix(1 0 -0.5547 0.83205 108.845 70.5217)" fill="#EDEBDB"/>
<rect width="3.27483" height="4.14812" transform="matrix(1 0 -0.5547 0.83205 108.845 70.5217)" stroke="#041C2F"/>
<path d="M97.3626 62.529H149.999V68.3419H93.4873L97.3626 62.529Z" fill="#EDEBDB"/>
<path d="M97.3626 62.529H149.999V68.3419H93.4873L97.3626 62.529Z" stroke="#041C2F"/>
<path d="M43.914 46.454C43.8487 46.454 43.788 46.4447 43.732 46.426C43.5547 46.3887 43.4287 46.2813 43.354 46.104C43.298 45.9453 43.312 45.768 43.396 45.572C43.4893 45.376 43.6107 45.1567 43.76 44.914C43.816 44.83 43.8673 44.746 43.914 44.662C43.97 44.5687 44.0167 44.4847 44.054 44.41C44.0727 44.382 44.0867 44.3587 44.096 44.34C44.1053 44.312 44.1147 44.2887 44.124 44.27C43.844 44.2233 43.5173 44.214 43.144 44.242C42.78 44.2607 42.3693 44.3307 41.912 44.452C41.5107 44.5547 41.0767 44.69 40.61 44.858C40.1527 45.0167 39.6673 45.208 39.154 45.432C39.0513 45.4693 38.9487 45.4693 38.846 45.432C38.7433 45.3947 38.6687 45.3247 38.622 45.222C38.566 45.1193 38.5613 45.012 38.608 44.9C38.6547 44.7787 38.7293 44.6993 38.832 44.662C39.3547 44.4287 39.854 44.228 40.33 44.06C40.8153 43.8827 41.2727 43.7427 41.702 43.64C42.85 43.3507 43.788 43.304 44.516 43.5C44.7307 43.556 44.88 43.6867 44.964 43.892C45.048 44.0973 45.0293 44.326 44.908 44.578C44.7867 44.83 44.642 45.0913 44.474 45.362C44.4647 45.3807 44.4507 45.404 44.432 45.432C44.4133 45.46 44.3947 45.4927 44.376 45.53C44.5907 45.4833 44.908 45.39 45.328 45.25C45.748 45.11 46.3267 44.9047 47.064 44.634C47.1667 44.5967 47.2693 44.606 47.372 44.662C47.484 44.7087 47.5587 44.788 47.596 44.9C47.6427 45.0027 47.6427 45.11 47.596 45.222C47.5493 45.3247 47.4653 45.3993 47.344 45.446C46.9147 45.5953 46.5227 45.7307 46.168 45.852C45.8133 45.9733 45.496 46.076 45.216 46.16C44.8427 46.272 44.558 46.3513 44.362 46.398C44.166 46.4353 44.0167 46.454 43.914 46.454ZM49.1061 46.174C49.0595 46.174 49.0221 46.1693 48.9941 46.16C48.8448 46.1227 48.7375 46.0667 48.6721 45.992C48.6161 45.908 48.5788 45.8427 48.5601 45.796C48.4948 45.5907 48.5181 45.3807 48.6301 45.166C48.7421 44.942 48.8868 44.7087 49.0641 44.466C49.1201 44.3913 49.1715 44.312 49.2181 44.228C49.2741 44.1347 49.3208 44.0553 49.3581 43.99C49.3675 43.9807 49.3815 43.962 49.4001 43.934C49.3441 43.9527 49.2741 43.9807 49.1901 44.018C49.1155 44.0553 49.0268 44.1113 48.9241 44.186C48.7561 44.2887 48.5788 44.424 48.3921 44.592C48.2055 44.7507 48.0141 44.9187 47.8181 45.096C47.7715 45.1333 47.7201 45.1753 47.6641 45.222C47.6175 45.2687 47.5708 45.3153 47.5241 45.362C47.4401 45.4367 47.3421 45.474 47.2301 45.474C47.1088 45.4647 47.0108 45.4133 46.9361 45.32C46.8521 45.236 46.8148 45.138 46.8241 45.026C46.8335 44.9047 46.8801 44.8067 46.9641 44.732C47.0108 44.6853 47.0621 44.6387 47.1181 44.592C47.1648 44.5453 47.2115 44.5033 47.2581 44.466C47.5568 44.1953 47.8508 43.948 48.1401 43.724C48.4295 43.4907 48.7141 43.3133 48.9941 43.192C49.2741 43.0707 49.5448 43.0473 49.8061 43.122C49.9648 43.1593 50.0768 43.2247 50.1421 43.318C50.2168 43.402 50.2588 43.4767 50.2681 43.542C50.3521 43.7473 50.3335 43.9667 50.2121 44.2C50.0908 44.424 49.9368 44.6713 49.7501 44.942C49.7315 44.9607 49.7081 44.9933 49.6801 45.04C49.6615 45.0773 49.6381 45.1147 49.6101 45.152C49.7501 45.096 49.9321 45.026 50.1561 44.942C50.3801 44.858 50.6508 44.7553 50.9681 44.634C51.0895 44.5967 51.2015 44.606 51.3041 44.662C51.4068 44.7087 51.4768 44.788 51.5141 44.9C51.5608 45.0027 51.5561 45.11 51.5001 45.222C51.4535 45.3247 51.3788 45.3993 51.2761 45.446C50.9775 45.5487 50.7068 45.642 50.4641 45.726C50.2215 45.81 50.0161 45.8847 49.8481 45.95C49.7548 45.9873 49.6708 46.02 49.5961 46.048C49.5308 46.0667 49.4701 46.0853 49.4141 46.104C49.3488 46.1227 49.2928 46.1413 49.2461 46.16C49.1995 46.1693 49.1528 46.174 49.1061 46.174ZM52.2196 47.392C52.1543 47.392 52.0889 47.3827 52.0236 47.364C51.9583 47.3547 51.8929 47.3453 51.8276 47.336C51.6596 47.2893 51.5429 47.1913 51.4776 47.042C51.3936 46.8553 51.3936 46.6313 51.4776 46.37C51.5709 46.0993 51.7203 45.754 51.9256 45.334C51.9629 45.2593 52.0003 45.1753 52.0376 45.082C52.0843 44.9887 52.1263 44.9 52.1636 44.816C52.0423 44.8627 51.9116 44.942 51.7716 45.054C51.6409 45.1567 51.5056 45.264 51.3656 45.376C51.2723 45.4413 51.1696 45.4693 51.0576 45.46C50.9363 45.4413 50.8383 45.39 50.7636 45.306C50.6983 45.2127 50.6749 45.11 50.6936 44.998C50.7029 44.886 50.7496 44.788 50.8336 44.704C50.9643 44.6107 51.0996 44.508 51.2396 44.396C51.3889 44.284 51.5383 44.1907 51.6876 44.116C52.0703 43.92 52.4203 43.8687 52.7376 43.962C52.8869 43.99 52.9989 44.0833 53.0736 44.242C53.1483 44.3913 53.1436 44.578 53.0596 44.802C52.9849 45.026 52.8543 45.3293 52.6676 45.712C52.6209 45.824 52.5696 45.936 52.5136 46.048C52.4669 46.16 52.4203 46.2673 52.3736 46.37C52.3643 46.4073 52.3503 46.44 52.3316 46.468C52.3223 46.496 52.3129 46.524 52.3036 46.552C52.4996 46.524 52.7843 46.426 53.1576 46.258C53.5403 46.0807 54.0536 45.7353 54.6976 45.222C55.0429 44.9513 55.3556 44.69 55.6356 44.438C55.9156 44.1767 56.1396 43.962 56.3076 43.794C56.4756 43.626 56.5596 43.542 56.5596 43.542C56.6716 43.4113 56.8069 43.3693 56.9656 43.416C57.0403 43.4253 57.1009 43.458 57.1476 43.514C57.1943 43.5607 57.2316 43.6073 57.2596 43.654C57.3249 43.7847 57.3296 43.9387 57.2736 44.116C57.2269 44.284 57.1243 44.5593 56.9656 44.942C56.9096 45.0633 56.8536 45.1847 56.7976 45.306C56.7509 45.4273 56.7043 45.5393 56.6576 45.642C56.6483 45.6793 56.6389 45.712 56.6296 45.74C56.6296 45.7587 56.6249 45.7773 56.6156 45.796C56.7929 45.768 56.9796 45.6933 57.1756 45.572C57.3809 45.4413 57.5769 45.2967 57.7636 45.138C57.9596 44.9793 58.1229 44.844 58.2536 44.732C58.3469 44.648 58.4496 44.6107 58.5616 44.62C58.6736 44.6293 58.7716 44.676 58.8556 44.76C58.9303 44.8533 58.9629 44.956 58.9536 45.068C58.9536 45.18 58.9069 45.278 58.8136 45.362C58.5243 45.614 58.2256 45.852 57.9176 46.076C57.6189 46.3 57.3156 46.468 57.0076 46.58C56.7089 46.6827 56.4056 46.6967 56.0976 46.622C55.9483 46.5567 55.8409 46.4633 55.7756 46.342C55.7196 46.2113 55.7009 46.0667 55.7196 45.908C55.7476 45.7493 55.8036 45.5533 55.8876 45.32C55.7849 45.4133 55.6776 45.502 55.5656 45.586C55.4629 45.67 55.3509 45.7633 55.2296 45.866C53.9416 46.8833 52.9383 47.392 52.2196 47.392ZM60.4128 46.174C60.3661 46.174 60.3288 46.1693 60.3008 46.16C60.1514 46.1227 60.0441 46.0667 59.9788 45.992C59.9228 45.908 59.8854 45.8427 59.8668 45.796C59.8014 45.5907 59.8248 45.3807 59.9368 45.166C60.0488 44.942 60.1934 44.7087 60.3708 44.466C60.4268 44.3913 60.4781 44.312 60.5248 44.228C60.5808 44.1347 60.6274 44.0553 60.6648 43.99C60.6741 43.9807 60.6881 43.962 60.7068 43.934C60.6508 43.9527 60.5808 43.9807 60.4968 44.018C60.4221 44.0553 60.3334 44.1113 60.2308 44.186C60.0628 44.2887 59.8854 44.424 59.6988 44.592C59.5121 44.7507 59.3208 44.9187 59.1248 45.096C59.0781 45.1333 59.0268 45.1753 58.9708 45.222C58.9241 45.2687 58.8774 45.3153 58.8308 45.362C58.7468 45.4367 58.6488 45.474 58.5368 45.474C58.4154 45.4647 58.3174 45.4133 58.2428 45.32C58.1588 45.236 58.1214 45.138 58.1308 45.026C58.1401 44.9047 58.1868 44.8067 58.2708 44.732C58.3174 44.6853 58.3688 44.6387 58.4248 44.592C58.4714 44.5453 58.5181 44.5033 58.5648 44.466C58.8634 44.1953 59.1574 43.948 59.4468 43.724C59.7361 43.4907 60.0208 43.3133 60.3008 43.192C60.5808 43.0707 60.8514 43.0473 61.1128 43.122C61.2714 43.1593 61.3834 43.2247 61.4488 43.318C61.5234 43.402 61.5654 43.4767 61.5748 43.542C61.6588 43.7473 61.6401 43.9667 61.5188 44.2C61.3974 44.424 61.2434 44.6713 61.0568 44.942C61.0381 44.9607 61.0148 44.9933 60.9868 45.04C60.9681 45.0773 60.9448 45.1147 60.9168 45.152C61.0568 45.096 61.2388 45.026 61.4628 44.942C61.6868 44.858 61.9574 44.7553 62.2748 44.634C62.3961 44.5967 62.5081 44.606 62.6108 44.662C62.7134 44.7087 62.7834 44.788 62.8208 44.9C62.8674 45.0027 62.8628 45.11 62.8068 45.222C62.7601 45.3247 62.6854 45.3993 62.5828 45.446C62.2841 45.5487 62.0134 45.642 61.7708 45.726C61.5281 45.81 61.3228 45.8847 61.1548 45.95C61.0614 45.9873 60.9774 46.02 60.9028 46.048C60.8374 46.0667 60.7768 46.0853 60.7208 46.104C60.6554 46.1227 60.5994 46.1413 60.5528 46.16C60.5061 46.1693 60.4594 46.174 60.4128 46.174ZM63.5263 47.392C63.4609 47.392 63.3956 47.3827 63.3302 47.364C63.2649 47.3547 63.1996 47.3453 63.1343 47.336C62.9663 47.2893 62.8496 47.1913 62.7843 47.042C62.7003 46.8553 62.7003 46.6313 62.7843 46.37C62.8776 46.0993 63.0269 45.754 63.2323 45.334C63.2696 45.2593 63.3069 45.1753 63.3443 45.082C63.3909 44.9887 63.4329 44.9 63.4703 44.816C63.3489 44.8627 63.2183 44.942 63.0783 45.054C62.9476 45.1567 62.8123 45.264 62.6723 45.376C62.5789 45.4413 62.4763 45.4693 62.3642 45.46C62.2429 45.4413 62.1449 45.39 62.0702 45.306C62.0049 45.2127 61.9816 45.11 62.0002 44.998C62.0096 44.886 62.0562 44.788 62.1402 44.704C62.2709 44.6107 62.4062 44.508 62.5463 44.396C62.6956 44.284 62.8449 44.1907 62.9943 44.116C63.3769 43.92 63.7269 43.8687 64.0443 43.962C64.1936 43.99 64.3056 44.0833 64.3803 44.242C64.4549 44.3913 64.4503 44.578 64.3663 44.802C64.2916 45.026 64.1609 45.3293 63.9743 45.712C63.9276 45.824 63.8763 45.936 63.8203 46.048C63.7736 46.16 63.7269 46.2673 63.6803 46.37C63.6709 46.4073 63.6569 46.44 63.6383 46.468C63.6289 46.496 63.6196 46.524 63.6103 46.552C63.8063 46.524 64.0909 46.426 64.4642 46.258C64.8469 46.0807 65.3603 45.7353 66.0042 45.222C66.3496 44.9513 66.6623 44.69 66.9423 44.438C67.2223 44.1767 67.4463 43.962 67.6143 43.794C67.7823 43.626 67.8663 43.542 67.8663 43.542C67.9783 43.4113 68.1136 43.3693 68.2723 43.416C68.3469 43.4253 68.4076 43.458 68.4543 43.514C68.5009 43.5607 68.5383 43.6073 68.5663 43.654C68.6316 43.7847 68.6363 43.9387 68.5803 44.116C68.5336 44.284 68.4309 44.5593 68.2723 44.942C68.2163 45.0633 68.1603 45.1847 68.1043 45.306C68.0576 45.4273 68.0109 45.5393 67.9643 45.642C67.9549 45.6793 67.9456 45.712 67.9363 45.74C67.9363 45.7587 67.9316 45.7773 67.9223 45.796C68.0996 45.768 68.2863 45.6933 68.4823 45.572C68.6876 45.4413 68.8836 45.2967 69.0703 45.138C69.2663 44.9793 69.4296 44.844 69.5603 44.732C69.6536 44.648 69.7563 44.6107 69.8683 44.62C69.9803 44.6293 70.0783 44.676 70.1623 44.76C70.2369 44.8533 70.2696 44.956 70.2603 45.068C70.2603 45.18 70.2136 45.278 70.1202 45.362C69.8309 45.614 69.5323 45.852 69.2243 46.076C68.9256 46.3 68.6223 46.468 68.3143 46.58C68.0156 46.6827 67.7123 46.6967 67.4043 46.622C67.2549 46.5567 67.1476 46.4633 67.0823 46.342C67.0263 46.2113 67.0076 46.0667 67.0263 45.908C67.0543 45.7493 67.1103 45.5533 67.1943 45.32C67.0916 45.4133 66.9843 45.502 66.8723 45.586C66.7696 45.67 66.6576 45.7633 66.5363 45.866C65.2483 46.8833 64.2449 47.392 63.5263 47.392ZM71.7194 46.174C71.6728 46.174 71.6354 46.1693 71.6074 46.16C71.4581 46.1227 71.3508 46.0667 71.2854 45.992C71.2294 45.908 71.1921 45.8427 71.1734 45.796C71.1081 45.5907 71.1314 45.3807 71.2434 45.166C71.3554 44.942 71.5001 44.7087 71.6774 44.466C71.7334 44.3913 71.7848 44.312 71.8314 44.228C71.8874 44.1347 71.9341 44.0553 71.9714 43.99C71.9808 43.9807 71.9948 43.962 72.0134 43.934C71.9574 43.9527 71.8874 43.9807 71.8034 44.018C71.7288 44.0553 71.6401 44.1113 71.5374 44.186C71.3694 44.2887 71.1921 44.424 71.0054 44.592C70.8188 44.7507 70.6274 44.9187 70.4314 45.096C70.3848 45.1333 70.3334 45.1753 70.2774 45.222C70.2308 45.2687 70.1841 45.3153 70.1374 45.362C70.0534 45.4367 69.9554 45.474 69.8434 45.474C69.7221 45.4647 69.6241 45.4133 69.5494 45.32C69.4654 45.236 69.4281 45.138 69.4374 45.026C69.4468 44.9047 69.4934 44.8067 69.5774 44.732C69.6241 44.6853 69.6754 44.6387 69.7314 44.592C69.7781 44.5453 69.8248 44.5033 69.8714 44.466C70.1701 44.1953 70.4641 43.948 70.7534 43.724C71.0428 43.4907 71.3274 43.3133 71.6074 43.192C71.8874 43.0707 72.1581 43.0473 72.4194 43.122C72.5781 43.1593 72.6901 43.2247 72.7554 43.318C72.8301 43.402 72.8721 43.4767 72.8814 43.542C72.9654 43.7473 72.9468 43.9667 72.8254 44.2C72.7041 44.424 72.5501 44.6713 72.3634 44.942C72.3448 44.9607 72.3214 44.9933 72.2934 45.04C72.2748 45.0773 72.2514 45.1147 72.2234 45.152C72.3634 45.096 72.5454 45.026 72.7694 44.942C72.9934 44.858 73.2641 44.7553 73.5814 44.634C73.7028 44.5967 73.8148 44.606 73.9174 44.662C74.0201 44.7087 74.0901 44.788 74.1274 44.9C74.1741 45.0027 74.1694 45.11 74.1134 45.222C74.0668 45.3247 73.9921 45.3993 73.8894 45.446C73.5908 45.5487 73.3201 45.642 73.0774 45.726C72.8348 45.81 72.6294 45.8847 72.4614 45.95C72.3681 45.9873 72.2841 46.02 72.2094 46.048C72.1441 46.0667 72.0834 46.0853 72.0274 46.104C71.9621 46.1227 71.9061 46.1413 71.8594 46.16C71.8128 46.1693 71.7661 46.174 71.7194 46.174Z" fill="black" fill-opacity="0.8"/>
<path d="M87.192 46.594C87.08 46.594 86.9867 46.5613 86.912 46.496C86.7627 46.3747 86.7207 46.2207 86.786 46.034C86.786 46.0247 86.8187 45.9127 86.884 45.698C86.9587 45.4833 87.0427 45.2407 87.136 44.97C87.1827 44.8113 87.2247 44.676 87.262 44.564C87.2993 44.4427 87.332 44.3353 87.36 44.242C87.108 44.3353 86.8 44.452 86.436 44.592C86.072 44.7227 85.6893 44.8627 85.288 45.012C84.896 45.1613 84.5133 45.306 84.14 45.446C84.0373 45.4833 83.9347 45.4787 83.832 45.432C83.72 45.376 83.6407 45.292 83.594 45.18C83.5567 45.0773 83.566 44.9747 83.622 44.872C83.6687 44.76 83.748 44.6807 83.86 44.634C84.28 44.4847 84.714 44.3307 85.162 44.172C85.61 44.004 86.0253 43.85 86.408 43.71C86.7907 43.5607 87.1033 43.4393 87.346 43.346C87.5887 43.2527 87.71 43.206 87.71 43.206C87.7567 43.1967 87.8033 43.192 87.85 43.192C87.8967 43.1827 87.9387 43.1873 87.976 43.206C88.1067 43.2247 88.2 43.2993 88.256 43.43C88.3027 43.5047 88.3213 43.6027 88.312 43.724C88.312 43.836 88.2887 43.9993 88.242 44.214C88.214 44.3353 88.1767 44.4707 88.13 44.62C88.0927 44.76 88.0413 44.9233 87.976 45.11C87.9667 45.1473 87.9573 45.18 87.948 45.208C87.9387 45.236 87.9293 45.2687 87.92 45.306C88.2933 45.1007 88.7507 44.886 89.292 44.662C89.3947 44.6153 89.4973 44.6153 89.6 44.662C89.712 44.6993 89.7867 44.7693 89.824 44.872C89.88 44.9747 89.8847 45.082 89.838 45.194C89.7913 45.306 89.7167 45.3853 89.614 45.432C89.194 45.6187 88.816 45.796 88.48 45.964C88.1533 46.132 87.892 46.2673 87.696 46.37C87.5 46.4727 87.402 46.524 87.402 46.524C87.346 46.5707 87.276 46.594 87.192 46.594ZM90.5614 47.392C90.4961 47.392 90.4307 47.3827 90.3654 47.364C90.3001 47.3547 90.2347 47.3453 90.1694 47.336C90.0014 47.2893 89.8847 47.1913 89.8194 47.042C89.7354 46.8553 89.7354 46.6313 89.8194 46.37C89.9127 46.0993 90.0621 45.754 90.2674 45.334C90.3047 45.2593 90.3421 45.1753 90.3794 45.082C90.4261 44.9887 90.4681 44.9 90.5054 44.816C90.3841 44.8627 90.2534 44.942 90.1134 45.054C89.9827 45.1567 89.8474 45.264 89.7074 45.376C89.6141 45.4413 89.5114 45.4693 89.3994 45.46C89.2781 45.4413 89.1801 45.39 89.1054 45.306C89.0401 45.2127 89.0167 45.11 89.0354 44.998C89.0447 44.886 89.0914 44.788 89.1754 44.704C89.3061 44.6107 89.4414 44.508 89.5814 44.396C89.7307 44.284 89.8801 44.1907 90.0294 44.116C90.4121 43.92 90.7621 43.8687 91.0794 43.962C91.2287 43.99 91.3407 44.0833 91.4154 44.242C91.4901 44.3913 91.4854 44.578 91.4014 44.802C91.3267 45.026 91.1961 45.3293 91.0094 45.712C90.9627 45.824 90.9114 45.936 90.8554 46.048C90.8087 46.16 90.7621 46.2673 90.7154 46.37C90.7061 46.4073 90.6921 46.44 90.6734 46.468C90.6641 46.496 90.6547 46.524 90.6454 46.552C90.8414 46.524 91.1261 46.426 91.4994 46.258C91.8821 46.0807 92.3954 45.7353 93.0394 45.222C93.3847 44.9513 93.6974 44.69 93.9774 44.438C94.2574 44.1767 94.4814 43.962 94.6494 43.794C94.8174 43.626 94.9014 43.542 94.9014 43.542C95.0134 43.4113 95.1487 43.3693 95.3074 43.416C95.3821 43.4253 95.4427 43.458 95.4894 43.514C95.5361 43.5607 95.5734 43.6073 95.6014 43.654C95.6667 43.7847 95.6714 43.9387 95.6154 44.116C95.5687 44.284 95.4661 44.5593 95.3074 44.942C95.2514 45.0633 95.1954 45.1847 95.1394 45.306C95.0927 45.4273 95.0461 45.5393 94.9994 45.642C94.9901 45.6793 94.9807 45.712 94.9714 45.74C94.9714 45.7587 94.9667 45.7773 94.9574 45.796C95.1347 45.768 95.3214 45.6933 95.5174 45.572C95.7227 45.4413 95.9187 45.2967 96.1054 45.138C96.3014 44.9793 96.4647 44.844 96.5954 44.732C96.6887 44.648 96.7914 44.6107 96.9034 44.62C97.0154 44.6293 97.1134 44.676 97.1974 44.76C97.2721 44.8533 97.3047 44.956 97.2954 45.068C97.2954 45.18 97.2487 45.278 97.1554 45.362C96.8661 45.614 96.5674 45.852 96.2594 46.076C95.9607 46.3 95.6574 46.468 95.3494 46.58C95.0507 46.6827 94.7474 46.6967 94.4394 46.622C94.2901 46.5567 94.1827 46.4633 94.1174 46.342C94.0614 46.2113 94.0427 46.0667 94.0614 45.908C94.0894 45.7493 94.1454 45.5533 94.2294 45.32C94.1267 45.4133 94.0194 45.502 93.9074 45.586C93.8047 45.67 93.6927 45.7633 93.5714 45.866C92.2834 46.8833 91.2801 47.392 90.5614 47.392ZM101.807 46.454C101.741 46.454 101.681 46.4447 101.625 46.426C101.447 46.3887 101.321 46.2813 101.247 46.104C101.191 45.9453 101.205 45.768 101.289 45.572C101.382 45.376 101.503 45.1567 101.653 44.914C101.709 44.83 101.76 44.746 101.807 44.662C101.863 44.5687 101.909 44.4847 101.947 44.41C101.965 44.382 101.979 44.3587 101.989 44.34C101.998 44.312 102.007 44.2887 102.017 44.27C101.737 44.2233 101.41 44.214 101.037 44.242C100.673 44.2607 100.262 44.3307 99.8046 44.452C99.4032 44.5547 98.9692 44.69 98.5026 44.858C98.0452 45.0167 97.5599 45.208 97.0466 45.432C96.9439 45.4693 96.8412 45.4693 96.7386 45.432C96.6359 45.3947 96.5612 45.3247 96.5146 45.222C96.4586 45.1193 96.4539 45.012 96.5006 44.9C96.5472 44.7787 96.6219 44.6993 96.7246 44.662C97.2472 44.4287 97.7466 44.228 98.2226 44.06C98.7079 43.8827 99.1652 43.7427 99.5946 43.64C100.743 43.3507 101.681 43.304 102.409 43.5C102.623 43.556 102.773 43.6867 102.857 43.892C102.941 44.0973 102.922 44.326 102.801 44.578C102.679 44.83 102.535 45.0913 102.367 45.362C102.357 45.3807 102.343 45.404 102.325 45.432C102.306 45.46 102.287 45.4927 102.269 45.53C102.483 45.4833 102.801 45.39 103.221 45.25C103.641 45.11 104.219 44.9047 104.957 44.634C105.059 44.5967 105.162 44.606 105.265 44.662C105.377 44.7087 105.451 44.788 105.489 44.9C105.535 45.0027 105.535 45.11 105.489 45.222C105.442 45.3247 105.358 45.3993 105.237 45.446C104.807 45.5953 104.415 45.7307 104.061 45.852C103.706 45.9733 103.389 46.076 103.109 46.16C102.735 46.272 102.451 46.3513 102.255 46.398C102.059 46.4353 101.909 46.454 101.807 46.454ZM106.999 46.174C106.952 46.174 106.915 46.1693 106.887 46.16C106.737 46.1227 106.63 46.0667 106.565 45.992C106.509 45.908 106.471 45.8427 106.453 45.796C106.387 45.5907 106.411 45.3807 106.523 45.166C106.635 44.942 106.779 44.7087 106.957 44.466C107.013 44.3913 107.064 44.312 107.111 44.228C107.167 44.1347 107.213 44.0553 107.251 43.99C107.26 43.9807 107.274 43.962 107.293 43.934C107.237 43.9527 107.167 43.9807 107.083 44.018C107.008 44.0553 106.919 44.1113 106.817 44.186C106.649 44.2887 106.471 44.424 106.285 44.592C106.098 44.7507 105.907 44.9187 105.711 45.096C105.664 45.1333 105.613 45.1753 105.557 45.222C105.51 45.2687 105.463 45.3153 105.417 45.362C105.333 45.4367 105.235 45.474 105.123 45.474C105.001 45.4647 104.903 45.4133 104.829 45.32C104.745 45.236 104.707 45.138 104.717 45.026C104.726 44.9047 104.773 44.8067 104.857 44.732C104.903 44.6853 104.955 44.6387 105.011 44.592C105.057 44.5453 105.104 44.5033 105.151 44.466C105.449 44.1953 105.743 43.948 106.033 43.724C106.322 43.4907 106.607 43.3133 106.887 43.192C107.167 43.0707 107.437 43.0473 107.699 43.122C107.857 43.1593 107.969 43.2247 108.035 43.318C108.109 43.402 108.151 43.4767 108.161 43.542C108.245 43.7473 108.226 43.9667 108.105 44.2C107.983 44.424 107.829 44.6713 107.643 44.942C107.624 44.9607 107.601 44.9933 107.573 45.04C107.554 45.0773 107.531 45.1147 107.503 45.152C107.643 45.096 107.825 45.026 108.049 44.942C108.273 44.858 108.543 44.7553 108.861 44.634C108.982 44.5967 109.094 44.606 109.197 44.662C109.299 44.7087 109.369 44.788 109.407 44.9C109.453 45.0027 109.449 45.11 109.393 45.222C109.346 45.3247 109.271 45.3993 109.169 45.446C108.87 45.5487 108.599 45.642 108.357 45.726C108.114 45.81 107.909 45.8847 107.741 45.95C107.647 45.9873 107.563 46.02 107.489 46.048C107.423 46.0667 107.363 46.0853 107.307 46.104C107.241 46.1227 107.185 46.1413 107.139 46.16C107.092 46.1693 107.045 46.174 106.999 46.174ZM110.112 47.392C110.047 47.392 109.982 47.3827 109.916 47.364C109.851 47.3547 109.786 47.3453 109.72 47.336C109.552 47.2893 109.436 47.1913 109.37 47.042C109.286 46.8553 109.286 46.6313 109.37 46.37C109.464 46.0993 109.613 45.754 109.818 45.334C109.856 45.2593 109.893 45.1753 109.93 45.082C109.977 44.9887 110.019 44.9 110.056 44.816C109.935 44.8627 109.804 44.942 109.664 45.054C109.534 45.1567 109.398 45.264 109.258 45.376C109.165 45.4413 109.062 45.4693 108.95 45.46C108.829 45.4413 108.731 45.39 108.656 45.306C108.591 45.2127 108.568 45.11 108.586 44.998C108.596 44.886 108.642 44.788 108.726 44.704C108.857 44.6107 108.992 44.508 109.132 44.396C109.282 44.284 109.431 44.1907 109.58 44.116C109.963 43.92 110.313 43.8687 110.63 43.962C110.78 43.99 110.892 44.0833 110.966 44.242C111.041 44.3913 111.036 44.578 110.952 44.802C110.878 45.026 110.747 45.3293 110.56 45.712C110.514 45.824 110.462 45.936 110.406 46.048C110.36 46.16 110.313 46.2673 110.266 46.37C110.257 46.4073 110.243 46.44 110.224 46.468C110.215 46.496 110.206 46.524 110.196 46.552C110.392 46.524 110.677 46.426 111.05 46.258C111.433 46.0807 111.946 45.7353 112.59 45.222C112.936 44.9513 113.248 44.69 113.528 44.438C113.808 44.1767 114.032 43.962 114.2 43.794C114.368 43.626 114.452 43.542 114.452 43.542C114.564 43.4113 114.7 43.3693 114.858 43.416C114.933 43.4253 114.994 43.458 115.04 43.514C115.087 43.5607 115.124 43.6073 115.152 43.654C115.218 43.7847 115.222 43.9387 115.166 44.116C115.12 44.284 115.017 44.5593 114.858 44.942C114.802 45.0633 114.746 45.1847 114.69 45.306C114.644 45.4273 114.597 45.5393 114.55 45.642C114.541 45.6793 114.532 45.712 114.522 45.74C114.522 45.7587 114.518 45.7773 114.508 45.796C114.686 45.768 114.872 45.6933 115.068 45.572C115.274 45.4413 115.47 45.2967 115.656 45.138C115.852 44.9793 116.016 44.844 116.146 44.732C116.24 44.648 116.342 44.6107 116.454 44.62C116.566 44.6293 116.664 44.676 116.748 44.76C116.823 44.8533 116.856 44.956 116.846 45.068C116.846 45.18 116.8 45.278 116.706 45.362C116.417 45.614 116.118 45.852 115.81 46.076C115.512 46.3 115.208 46.468 114.9 46.58C114.602 46.6827 114.298 46.6967 113.99 46.622C113.841 46.5567 113.734 46.4633 113.668 46.342C113.612 46.2113 113.594 46.0667 113.612 45.908C113.64 45.7493 113.696 45.5533 113.78 45.32C113.678 45.4133 113.57 45.502 113.458 45.586C113.356 45.67 113.244 45.7633 113.122 45.866C111.834 46.8833 110.831 47.392 110.112 47.392ZM118.305 46.174C118.259 46.174 118.221 46.1693 118.193 46.16C118.044 46.1227 117.937 46.0667 117.871 45.992C117.815 45.908 117.778 45.8427 117.759 45.796C117.694 45.5907 117.717 45.3807 117.829 45.166C117.941 44.942 118.086 44.7087 118.263 44.466C118.319 44.3913 118.371 44.312 118.417 44.228C118.473 44.1347 118.52 44.0553 118.557 43.99C118.567 43.9807 118.581 43.962 118.599 43.934C118.543 43.9527 118.473 43.9807 118.389 44.018C118.315 44.0553 118.226 44.1113 118.123 44.186C117.955 44.2887 117.778 44.424 117.591 44.592C117.405 44.7507 117.213 44.9187 117.017 45.096C116.971 45.1333 116.919 45.1753 116.863 45.222C116.817 45.2687 116.77 45.3153 116.723 45.362C116.639 45.4367 116.541 45.474 116.429 45.474C116.308 45.4647 116.21 45.4133 116.135 45.32C116.051 45.236 116.014 45.138 116.023 45.026C116.033 44.9047 116.079 44.8067 116.163 44.732C116.21 44.6853 116.261 44.6387 116.317 44.592C116.364 44.5453 116.411 44.5033 116.457 44.466C116.756 44.1953 117.05 43.948 117.339 43.724C117.629 43.4907 117.913 43.3133 118.193 43.192C118.473 43.0707 118.744 43.0473 119.005 43.122C119.164 43.1593 119.276 43.2247 119.341 43.318C119.416 43.402 119.458 43.4767 119.467 43.542C119.551 43.7473 119.533 43.9667 119.411 44.2C119.29 44.424 119.136 44.6713 118.949 44.942C118.931 44.9607 118.907 44.9933 118.879 45.04C118.861 45.0773 118.837 45.1147 118.809 45.152C118.949 45.096 119.131 45.026 119.355 44.942C119.579 44.858 119.85 44.7553 120.167 44.634C120.289 44.5967 120.401 44.606 120.503 44.662C120.606 44.7087 120.676 44.788 120.713 44.9C120.76 45.0027 120.755 45.11 120.699 45.222C120.653 45.3247 120.578 45.3993 120.475 45.446C120.177 45.5487 119.906 45.642 119.663 45.726C119.421 45.81 119.215 45.8847 119.047 45.95C118.954 45.9873 118.87 46.02 118.795 46.048C118.73 46.0667 118.669 46.0853 118.613 46.104C118.548 46.1227 118.492 46.1413 118.445 46.16C118.399 46.1693 118.352 46.174 118.305 46.174ZM125.213 46.454C125.147 46.454 125.087 46.4447 125.031 46.426C124.853 46.3887 124.727 46.2813 124.653 46.104C124.597 45.9453 124.611 45.768 124.695 45.572C124.788 45.376 124.909 45.1567 125.059 44.914C125.115 44.83 125.166 44.746 125.213 44.662C125.269 44.5687 125.315 44.4847 125.353 44.41C125.371 44.382 125.385 44.3587 125.395 44.34C125.404 44.312 125.413 44.2887 125.423 44.27C125.143 44.2233 124.816 44.214 124.443 44.242C124.079 44.2607 123.668 44.3307 123.211 44.452C122.809 44.5547 122.375 44.69 121.909 44.858C121.451 45.0167 120.966 45.208 120.453 45.432C120.35 45.4693 120.247 45.4693 120.145 45.432C120.042 45.3947 119.967 45.3247 119.921 45.222C119.865 45.1193 119.86 45.012 119.907 44.9C119.953 44.7787 120.028 44.6993 120.131 44.662C120.653 44.4287 121.153 44.228 121.629 44.06C122.114 43.8827 122.571 43.7427 123.001 43.64C124.149 43.3507 125.087 43.304 125.815 43.5C126.029 43.556 126.179 43.6867 126.263 43.892C126.347 44.0973 126.328 44.326 126.207 44.578C126.085 44.83 125.941 45.0913 125.773 45.362C125.763 45.3807 125.749 45.404 125.731 45.432C125.712 45.46 125.693 45.4927 125.675 45.53C125.889 45.4833 126.207 45.39 126.627 45.25C127.047 45.11 127.625 44.9047 128.363 44.634C128.465 44.5967 128.568 44.606 128.671 44.662C128.783 44.7087 128.857 44.788 128.895 44.9C128.941 45.0027 128.941 45.11 128.895 45.222C128.848 45.3247 128.764 45.3993 128.643 45.446C128.213 45.5953 127.821 45.7307 127.467 45.852C127.112 45.9733 126.795 46.076 126.515 46.16C126.141 46.272 125.857 46.3513 125.661 46.398C125.465 46.4353 125.315 46.454 125.213 46.454Z" fill="black" fill-opacity="0.8"/>
<path d="M102.12 67.392C102.055 67.392 101.989 67.3827 101.924 67.364C101.859 67.3547 101.793 67.3453 101.728 67.336C101.56 67.2893 101.443 67.1913 101.378 67.042C101.294 66.8553 101.294 66.6313 101.378 66.37C101.471 66.0993 101.621 65.754 101.826 65.334C101.863 65.2593 101.901 65.1753 101.938 65.082C101.985 64.9887 102.027 64.9 102.064 64.816C101.943 64.8627 101.812 64.942 101.672 65.054C101.541 65.1567 101.406 65.264 101.266 65.376C101.173 65.4413 101.07 65.4693 100.958 65.46C100.837 65.4413 100.739 65.39 100.664 65.306C100.599 65.2127 100.575 65.11 100.594 64.998C100.603 64.886 100.65 64.788 100.734 64.704C100.865 64.6107 101 64.508 101.14 64.396C101.289 64.284 101.439 64.1907 101.588 64.116C101.971 63.92 102.321 63.8687 102.638 63.962C102.787 63.99 102.899 64.0833 102.974 64.242C103.049 64.3913 103.044 64.578 102.96 64.802C102.885 65.026 102.755 65.3293 102.568 65.712C102.521 65.824 102.47 65.936 102.414 66.048C102.367 66.16 102.321 66.2673 102.274 66.37C102.265 66.4073 102.251 66.44 102.232 66.468C102.223 66.496 102.213 66.524 102.204 66.552C102.4 66.524 102.685 66.426 103.058 66.258C103.441 66.0807 103.954 65.7353 104.598 65.222C104.943 64.9513 105.256 64.69 105.536 64.438C105.816 64.1767 106.04 63.962 106.208 63.794C106.376 63.626 106.46 63.542 106.46 63.542C106.572 63.4113 106.707 63.3693 106.866 63.416C106.941 63.4253 107.001 63.458 107.048 63.514C107.095 63.5607 107.132 63.6073 107.16 63.654C107.225 63.7847 107.23 63.9387 107.174 64.116C107.127 64.284 107.025 64.5593 106.866 64.942C106.81 65.0633 106.754 65.1847 106.698 65.306C106.651 65.4273 106.605 65.5393 106.558 65.642C106.549 65.6793 106.539 65.712 106.53 65.74C106.53 65.7587 106.525 65.7773 106.516 65.796C106.693 65.768 106.88 65.6933 107.076 65.572C107.281 65.4413 107.477 65.2967 107.664 65.138C107.86 64.9793 108.023 64.844 108.154 64.732C108.247 64.648 108.35 64.6107 108.462 64.62C108.574 64.6293 108.672 64.676 108.756 64.76C108.831 64.8533 108.863 64.956 108.854 65.068C108.854 65.18 108.807 65.278 108.714 65.362C108.425 65.614 108.126 65.852 107.818 66.076C107.519 66.3 107.216 66.468 106.908 66.58C106.609 66.6827 106.306 66.6967 105.998 66.622C105.849 66.5567 105.741 66.4633 105.676 66.342C105.62 66.2113 105.601 66.0667 105.62 65.908C105.648 65.7493 105.704 65.5533 105.788 65.32C105.685 65.4133 105.578 65.502 105.466 65.586C105.363 65.67 105.251 65.7633 105.13 65.866C103.842 66.8833 102.839 67.392 102.12 67.392ZM110.313 66.174C110.267 66.174 110.229 66.1693 110.201 66.16C110.052 66.1227 109.945 66.0667 109.879 65.992C109.823 65.908 109.786 65.8427 109.767 65.796C109.702 65.5907 109.725 65.3807 109.837 65.166C109.949 64.942 110.094 64.7087 110.271 64.466C110.327 64.3913 110.379 64.312 110.425 64.228C110.481 64.1347 110.528 64.0553 110.565 63.99C110.575 63.9807 110.589 63.962 110.607 63.934C110.551 63.9527 110.481 63.9807 110.397 64.018C110.323 64.0553 110.234 64.1113 110.131 64.186C109.963 64.2887 109.786 64.424 109.599 64.592C109.413 64.7507 109.221 64.9187 109.025 65.096C108.979 65.1333 108.927 65.1753 108.871 65.222C108.825 65.2687 108.778 65.3153 108.731 65.362C108.647 65.4367 108.549 65.474 108.437 65.474C108.316 65.4647 108.218 65.4133 108.143 65.32C108.059 65.236 108.022 65.138 108.031 65.026C108.041 64.9047 108.087 64.8067 108.171 64.732C108.218 64.6853 108.269 64.6387 108.325 64.592C108.372 64.5453 108.419 64.5033 108.465 64.466C108.764 64.1953 109.058 63.948 109.347 63.724C109.637 63.4907 109.921 63.3133 110.201 63.192C110.481 63.0707 110.752 63.0473 111.013 63.122C111.172 63.1593 111.284 63.2247 111.349 63.318C111.424 63.402 111.466 63.4767 111.475 63.542C111.559 63.7473 111.541 63.9667 111.419 64.2C111.298 64.424 111.144 64.6713 110.957 64.942C110.939 64.9607 110.915 64.9933 110.887 65.04C110.869 65.0773 110.845 65.1147 110.817 65.152C110.957 65.096 111.139 65.026 111.363 64.942C111.587 64.858 111.858 64.7553 112.175 64.634C112.297 64.5967 112.409 64.606 112.511 64.662C112.614 64.7087 112.684 64.788 112.721 64.9C112.768 65.0027 112.763 65.11 112.707 65.222C112.661 65.3247 112.586 65.3993 112.483 65.446C112.185 65.5487 111.914 65.642 111.671 65.726C111.429 65.81 111.223 65.8847 111.055 65.95C110.962 65.9873 110.878 66.02 110.803 66.048C110.738 66.0667 110.677 66.0853 110.621 66.104C110.556 66.1227 110.5 66.1413 110.453 66.16C110.407 66.1693 110.36 66.174 110.313 66.174ZM117.221 66.454C117.155 66.454 117.095 66.4447 117.039 66.426C116.861 66.3887 116.735 66.2813 116.661 66.104C116.605 65.9453 116.619 65.768 116.703 65.572C116.796 65.376 116.917 65.1567 117.067 64.914C117.123 64.83 117.174 64.746 117.221 64.662C117.277 64.5687 117.323 64.4847 117.361 64.41C117.379 64.382 117.393 64.3587 117.403 64.34C117.412 64.312 117.421 64.2887 117.431 64.27C117.151 64.2233 116.824 64.214 116.451 64.242C116.087 64.2607 115.676 64.3307 115.219 64.452C114.817 64.5547 114.383 64.69 113.917 64.858C113.459 65.0167 112.974 65.208 112.461 65.432C112.358 65.4693 112.255 65.4693 112.153 65.432C112.05 65.3947 111.975 65.3247 111.929 65.222C111.873 65.1193 111.868 65.012 111.915 64.9C111.961 64.7787 112.036 64.6993 112.139 64.662C112.661 64.4287 113.161 64.228 113.637 64.06C114.122 63.8827 114.579 63.7427 115.009 63.64C116.157 63.3507 117.095 63.304 117.823 63.5C118.037 63.556 118.187 63.6867 118.271 63.892C118.355 64.0973 118.336 64.326 118.215 64.578C118.093 64.83 117.949 65.0913 117.781 65.362C117.771 65.3807 117.757 65.404 117.739 65.432C117.72 65.46 117.701 65.4927 117.683 65.53C117.897 65.4833 118.215 65.39 118.635 65.25C119.055 65.11 119.633 64.9047 120.371 64.634C120.473 64.5967 120.576 64.606 120.679 64.662C120.791 64.7087 120.865 64.788 120.903 64.9C120.949 65.0027 120.949 65.11 120.903 65.222C120.856 65.3247 120.772 65.3993 120.651 65.446C120.221 65.5953 119.829 65.7307 119.475 65.852C119.12 65.9733 118.803 66.076 118.523 66.16C118.149 66.272 117.865 66.3513 117.669 66.398C117.473 66.4353 117.323 66.454 117.221 66.454ZM122.413 66.174C122.366 66.174 122.329 66.1693 122.301 66.16C122.151 66.1227 122.044 66.0667 121.979 65.992C121.923 65.908 121.885 65.8427 121.867 65.796C121.801 65.5907 121.825 65.3807 121.937 65.166C122.049 64.942 122.193 64.7087 122.371 64.466C122.427 64.3913 122.478 64.312 122.525 64.228C122.581 64.1347 122.627 64.0553 122.665 63.99C122.674 63.9807 122.688 63.962 122.707 63.934C122.651 63.9527 122.581 63.9807 122.497 64.018C122.422 64.0553 122.333 64.1113 122.231 64.186C122.063 64.2887 121.885 64.424 121.699 64.592C121.512 64.7507 121.321 64.9187 121.125 65.096C121.078 65.1333 121.027 65.1753 120.971 65.222C120.924 65.2687 120.877 65.3153 120.831 65.362C120.747 65.4367 120.649 65.474 120.537 65.474C120.415 65.4647 120.317 65.4133 120.243 65.32C120.159 65.236 120.121 65.138 120.131 65.026C120.14 64.9047 120.187 64.8067 120.271 64.732C120.317 64.6853 120.369 64.6387 120.425 64.592C120.471 64.5453 120.518 64.5033 120.565 64.466C120.863 64.1953 121.157 63.948 121.447 63.724C121.736 63.4907 122.021 63.3133 122.301 63.192C122.581 63.0707 122.851 63.0473 123.113 63.122C123.271 63.1593 123.383 63.2247 123.449 63.318C123.523 63.402 123.565 63.4767 123.575 63.542C123.659 63.7473 123.64 63.9667 123.519 64.2C123.397 64.424 123.243 64.6713 123.057 64.942C123.038 64.9607 123.015 64.9933 122.987 65.04C122.968 65.0773 122.945 65.1147 122.917 65.152C123.057 65.096 123.239 65.026 123.463 64.942C123.687 64.858 123.957 64.7553 124.275 64.634C124.396 64.5967 124.508 64.606 124.611 64.662C124.713 64.7087 124.783 64.788 124.821 64.9C124.867 65.0027 124.863 65.11 124.807 65.222C124.76 65.3247 124.685 65.3993 124.583 65.446C124.284 65.5487 124.013 65.642 123.771 65.726C123.528 65.81 123.323 65.8847 123.155 65.95C123.061 65.9873 122.977 66.02 122.903 66.048C122.837 66.0667 122.777 66.0853 122.721 66.104C122.655 66.1227 122.599 66.1413 122.553 66.16C122.506 66.1693 122.459 66.174 122.413 66.174ZM127.598 66.594C127.486 66.594 127.393 66.5613 127.318 66.496C127.169 66.3747 127.127 66.2207 127.192 66.034C127.192 66.0247 127.225 65.9127 127.29 65.698C127.365 65.4833 127.449 65.2407 127.542 64.97C127.589 64.8113 127.631 64.676 127.668 64.564C127.706 64.4427 127.738 64.3353 127.766 64.242C127.514 64.3353 127.206 64.452 126.842 64.592C126.478 64.7227 126.096 64.8627 125.694 65.012C125.302 65.1613 124.92 65.306 124.546 65.446C124.444 65.4833 124.341 65.4787 124.238 65.432C124.126 65.376 124.047 65.292 124 65.18C123.963 65.0773 123.972 64.9747 124.028 64.872C124.075 64.76 124.154 64.6807 124.266 64.634C124.686 64.4847 125.12 64.3307 125.568 64.172C126.016 64.004 126.432 63.85 126.814 63.71C127.197 63.5607 127.51 63.4393 127.752 63.346C127.995 63.2527 128.116 63.206 128.116 63.206C128.163 63.1967 128.21 63.192 128.256 63.192C128.303 63.1827 128.345 63.1873 128.382 63.206C128.513 63.2247 128.606 63.2993 128.662 63.43C128.709 63.5047 128.728 63.6027 128.718 63.724C128.718 63.836 128.695 63.9993 128.648 64.214C128.62 64.3353 128.583 64.4707 128.536 64.62C128.499 64.76 128.448 64.9233 128.382 65.11C128.373 65.1473 128.364 65.18 128.354 65.208C128.345 65.236 128.336 65.2687 128.326 65.306C128.7 65.1007 129.157 64.886 129.698 64.662C129.801 64.6153 129.904 64.6153 130.006 64.662C130.118 64.6993 130.193 64.7693 130.23 64.872C130.286 64.9747 130.291 65.082 130.244 65.194C130.198 65.306 130.123 65.3853 130.02 65.432C129.6 65.6187 129.222 65.796 128.886 65.964C128.56 66.132 128.298 66.2673 128.102 66.37C127.906 66.4727 127.808 66.524 127.808 66.524C127.752 66.5707 127.682 66.594 127.598 66.594ZM134.762 66.454C134.696 66.454 134.636 66.4447 134.58 66.426C134.402 66.3887 134.276 66.2813 134.202 66.104C134.146 65.9453 134.16 65.768 134.244 65.572C134.337 65.376 134.458 65.1567 134.608 64.914C134.664 64.83 134.715 64.746 134.762 64.662C134.818 64.5687 134.864 64.4847 134.902 64.41C134.92 64.382 134.934 64.3587 134.944 64.34C134.953 64.312 134.962 64.2887 134.972 64.27C134.692 64.2233 134.365 64.214 133.992 64.242C133.628 64.2607 133.217 64.3307 132.76 64.452C132.358 64.5547 131.924 64.69 131.458 64.858C131 65.0167 130.515 65.208 130.002 65.432C129.899 65.4693 129.796 65.4693 129.694 65.432C129.591 65.3947 129.516 65.3247 129.47 65.222C129.414 65.1193 129.409 65.012 129.456 64.9C129.502 64.7787 129.577 64.6993 129.68 64.662C130.202 64.4287 130.702 64.228 131.178 64.06C131.663 63.8827 132.12 63.7427 132.55 63.64C133.698 63.3507 134.636 63.304 135.364 63.5C135.578 63.556 135.728 63.6867 135.812 63.892C135.896 64.0973 135.877 64.326 135.756 64.578C135.634 64.83 135.49 65.0913 135.322 65.362C135.312 65.3807 135.298 65.404 135.28 65.432C135.261 65.46 135.242 65.4927 135.224 65.53C135.438 65.4833 135.756 65.39 136.176 65.25C136.596 65.11 137.174 64.9047 137.912 64.634C138.014 64.5967 138.117 64.606 138.22 64.662C138.332 64.7087 138.406 64.788 138.444 64.9C138.49 65.0027 138.49 65.11 138.444 65.222C138.397 65.3247 138.313 65.3993 138.192 65.446C137.762 65.5953 137.37 65.7307 137.016 65.852C136.661 65.9733 136.344 66.076 136.064 66.16C135.69 66.272 135.406 66.3513 135.21 66.398C135.014 66.4353 134.864 66.454 134.762 66.454Z" fill="black" fill-opacity="0.8"/>
</svg>
