<svg width="200" height="200" viewBox="0 0 200 200" fill="none" xmlns="http://www.w3.org/2000/svg">
<path d="M100 0L186.603 50V150L100 200L13.3975 150V50L100 0Z" fill="#041C2F"/>
<path d="M100 0L186.603 50V150L100 200L13.3975 150V50L100 0Z" fill="#041C2F"/>
<path d="M59.81 145.181C58.8602 145.181 58.0432 144.98 57.359 144.577C56.6788 144.171 56.1556 143.607 55.7894 142.887C55.4272 142.167 55.2461 141.338 55.2461 140.4C55.2461 139.45 55.4292 138.617 55.7954 137.901C56.1657 137.18 56.6909 136.619 57.3711 136.216C58.0512 135.81 58.8602 135.607 59.7979 135.607C60.6068 135.607 61.3152 135.753 61.9229 136.047C62.5306 136.341 63.0116 136.754 63.3657 137.285C63.7199 137.816 63.9151 138.44 63.9513 139.156H61.5245C61.456 138.693 61.2749 138.321 60.9811 138.039C60.6914 137.754 60.311 137.611 59.8402 137.611C59.4417 137.611 59.0936 137.719 58.7958 137.937C58.502 138.15 58.2726 138.462 58.1076 138.873C57.9425 139.283 57.86 139.78 57.86 140.364C57.86 140.955 57.9405 141.458 58.1015 141.873C58.2665 142.287 58.4979 142.603 58.7958 142.821C59.0936 143.038 59.4417 143.147 59.8402 143.147C60.134 143.147 60.3976 143.086 60.631 142.966C60.8684 142.845 61.0636 142.67 61.2166 142.44C61.3735 142.207 61.4762 141.927 61.5245 141.601H63.9513C63.9111 142.31 63.7179 142.933 63.3718 143.473C63.0297 144.008 62.5568 144.426 61.9531 144.728C61.3494 145.03 60.635 145.181 59.81 145.181ZM67.9996 139.639V145H65.4279V132.636H67.9272V137.363H68.0358C68.2451 136.816 68.5832 136.387 69.05 136.077C69.5169 135.763 70.1025 135.607 70.8068 135.607C71.4507 135.607 72.0122 135.747 72.4911 136.029C72.974 136.307 73.3483 136.707 73.614 137.23C73.8836 137.75 74.0164 138.371 74.0124 139.096V145H71.4407V139.555C71.4447 138.983 71.2998 138.538 71.006 138.221C70.7162 137.903 70.3097 137.744 69.7865 137.744C69.4364 137.744 69.1265 137.818 68.8569 137.967C68.5912 138.116 68.382 138.333 68.229 138.619C68.0801 138.901 68.0036 139.241 67.9996 139.639ZM80.0921 145.181C79.1383 145.181 78.3173 144.988 77.6291 144.602C76.9449 144.211 76.4177 143.66 76.0474 142.947C75.6771 142.231 75.492 141.384 75.492 140.406C75.492 139.452 75.6771 138.615 76.0474 137.895C76.4177 137.174 76.9388 136.613 77.611 136.21C78.2871 135.808 79.0799 135.607 79.9895 135.607C80.6012 135.607 81.1707 135.705 81.698 135.902C82.2292 136.096 82.692 136.387 83.0864 136.778C83.4849 137.168 83.7948 137.659 84.0161 138.251C84.2375 138.838 84.3482 139.527 84.3482 140.315V141.022H76.5183V139.428H81.9274C81.9274 139.058 81.8469 138.73 81.6859 138.444C81.5249 138.158 81.3015 137.935 81.0158 137.774C80.7341 137.609 80.4061 137.526 80.0318 137.526C79.6414 137.526 79.2953 137.617 78.9934 137.798C78.6956 137.975 78.4622 138.214 78.2931 138.516C78.1241 138.814 78.0376 139.146 78.0335 139.512V141.028C78.0335 141.487 78.1181 141.883 78.2871 142.217C78.4601 142.551 78.7036 142.809 79.0176 142.99C79.3315 143.171 79.7038 143.261 80.1344 143.261C80.4201 143.261 80.6817 143.221 80.9192 143.141C81.1566 143.06 81.3599 142.939 81.5289 142.778C81.698 142.617 81.8267 142.42 81.9153 142.187L84.2938 142.344C84.1731 142.915 83.9256 143.414 83.5513 143.841C83.181 144.263 82.7021 144.594 82.1145 144.831C81.5309 145.064 80.8568 145.181 80.0921 145.181ZM90.0461 145.181C89.0963 145.181 88.2793 144.98 87.5951 144.577C86.9149 144.171 86.3917 143.607 86.0255 142.887C85.6633 142.167 85.4821 141.338 85.4821 140.4C85.4821 139.45 85.6653 138.617 86.0315 137.901C86.4018 137.18 86.927 136.619 87.6071 136.216C88.2873 135.81 89.0963 135.607 90.034 135.607C90.8429 135.607 91.5513 135.753 92.159 136.047C92.7667 136.341 93.2476 136.754 93.6018 137.285C93.956 137.816 94.1512 138.44 94.1874 139.156H91.7606C91.6921 138.693 91.511 138.321 91.2172 138.039C90.9275 137.754 90.5471 137.611 90.0762 137.611C89.6778 137.611 89.3297 137.719 89.0319 137.937C88.7381 138.15 88.5087 138.462 88.3436 138.873C88.1786 139.283 88.0961 139.78 88.0961 140.364C88.0961 140.955 88.1766 141.458 88.3376 141.873C88.5026 142.287 88.734 142.603 89.0319 142.821C89.3297 143.038 89.6778 143.147 90.0762 143.147C90.37 143.147 90.6337 143.086 90.8671 142.966C91.1045 142.845 91.2997 142.67 91.4527 142.44C91.6096 142.207 91.7123 141.927 91.7606 141.601H94.1874C94.1472 142.31 93.954 142.933 93.6079 143.473C93.2658 144.008 92.7929 144.426 92.1892 144.728C91.5855 145.03 90.8711 145.181 90.0461 145.181ZM97.9942 142.332L98.0003 139.247H98.3746L101.345 135.727H104.297L100.306 140.388H99.6966L97.9942 142.332ZM95.664 145V132.636H98.2357V145H95.664ZM101.459 145L98.7307 140.961L100.445 139.144L104.472 145H101.459ZM105.437 145V132.636H108.009V137.285H108.087C108.2 137.035 108.363 136.782 108.576 136.524C108.793 136.263 109.075 136.045 109.421 135.872C109.771 135.695 110.206 135.607 110.725 135.607C111.401 135.607 112.025 135.784 112.597 136.138C113.168 136.488 113.625 137.017 113.967 137.725C114.309 138.43 114.48 139.313 114.48 140.376C114.48 141.41 114.313 142.283 113.979 142.996C113.649 143.704 113.198 144.241 112.627 144.608C112.059 144.97 111.423 145.151 110.719 145.151C110.22 145.151 109.795 145.068 109.445 144.903C109.099 144.738 108.815 144.531 108.594 144.282C108.373 144.028 108.204 143.772 108.087 143.515H107.972V145H105.437ZM107.954 140.364C107.954 140.915 108.031 141.396 108.184 141.806C108.337 142.217 108.558 142.537 108.848 142.766C109.137 142.992 109.49 143.104 109.904 143.104C110.323 143.104 110.677 142.99 110.967 142.76C111.256 142.527 111.476 142.205 111.625 141.794C111.778 141.38 111.854 140.903 111.854 140.364C111.854 139.828 111.78 139.357 111.631 138.951C111.482 138.545 111.262 138.227 110.973 137.997C110.683 137.768 110.327 137.653 109.904 137.653C109.486 137.653 109.131 137.764 108.842 137.985C108.556 138.206 108.337 138.52 108.184 138.927C108.031 139.333 107.954 139.812 107.954 140.364ZM120.216 145.181C119.278 145.181 118.467 144.982 117.783 144.583C117.103 144.181 116.577 143.622 116.207 142.905C115.837 142.185 115.652 141.35 115.652 140.4C115.652 139.442 115.837 138.605 116.207 137.888C116.577 137.168 117.103 136.609 117.783 136.21C118.467 135.808 119.278 135.607 120.216 135.607C121.153 135.607 121.962 135.808 122.643 136.21C123.327 136.609 123.854 137.168 124.224 137.888C124.595 138.605 124.78 139.442 124.78 140.4C124.78 141.35 124.595 142.185 124.224 142.905C123.854 143.622 123.327 144.181 122.643 144.583C121.962 144.982 121.153 145.181 120.216 145.181ZM120.228 143.189C120.654 143.189 121.011 143.068 121.296 142.827C121.582 142.581 121.797 142.247 121.942 141.825C122.091 141.402 122.166 140.921 122.166 140.382C122.166 139.842 122.091 139.362 121.942 138.939C121.797 138.516 121.582 138.182 121.296 137.937C121.011 137.691 120.654 137.569 120.228 137.569C119.797 137.569 119.435 137.691 119.141 137.937C118.851 138.182 118.632 138.516 118.483 138.939C118.338 139.362 118.266 139.842 118.266 140.382C118.266 140.921 118.338 141.402 118.483 141.825C118.632 142.247 118.851 142.581 119.141 142.827C119.435 143.068 119.797 143.189 120.228 143.189ZM130.472 145.181C129.534 145.181 128.723 144.982 128.039 144.583C127.358 144.181 126.833 143.622 126.463 142.905C126.093 142.185 125.908 141.35 125.908 140.4C125.908 139.442 126.093 138.605 126.463 137.888C126.833 137.168 127.358 136.609 128.039 136.21C128.723 135.808 129.534 135.607 130.472 135.607C131.409 135.607 132.218 135.808 132.898 136.21C133.583 136.609 134.11 137.168 134.48 137.888C134.85 138.605 135.035 139.442 135.035 140.4C135.035 141.35 134.85 142.185 134.48 142.905C134.11 143.622 133.583 144.181 132.898 144.583C132.218 144.982 131.409 145.181 130.472 145.181ZM130.484 143.189C130.91 143.189 131.266 143.068 131.552 142.827C131.838 142.581 132.053 142.247 132.198 141.825C132.347 141.402 132.421 140.921 132.421 140.382C132.421 139.842 132.347 139.362 132.198 138.939C132.053 138.516 131.838 138.182 131.552 137.937C131.266 137.691 130.91 137.569 130.484 137.569C130.053 137.569 129.691 137.691 129.397 137.937C129.107 138.182 128.888 138.516 128.739 138.939C128.594 139.362 128.522 139.842 128.522 140.382C128.522 140.921 128.594 141.402 128.739 141.825C128.888 142.247 129.107 142.581 129.397 142.827C129.691 143.068 130.053 143.189 130.484 143.189ZM138.868 142.332L138.874 139.247H139.248L142.218 135.727H145.17L141.18 140.388H140.57L138.868 142.332ZM136.538 145V132.636H139.109V145H136.538ZM142.333 145L139.604 140.961L141.319 139.144L145.346 145H142.333Z" fill="#FFFBFC"/>
<path d="M74.9528 57.2879H184V123.216H31.001L74.9528 57.2879Z" fill="#1173C4"/>
<path d="M74.9528 57.2879H184V123.216H31.001L74.9528 57.2879Z" stroke="#041C2F"/>
<rect width="120.852" height="7.52383" transform="matrix(1 0 -0.5547 0.83205 65.0791 84.0894)" fill="#EDEBDB"/>
<rect width="120.852" height="7.52383" transform="matrix(1 0 -0.5547 0.83205 65.0791 84.0894)" stroke="#041C2F"/>
<rect width="3.5268" height="4.46727" transform="matrix(1 0 -0.5547 0.83205 45.125 114.021)" fill="#EDEBDB"/>
<rect width="3.5268" height="4.46727" transform="matrix(1 0 -0.5547 0.83205 45.125 114.021)" stroke="#041C2F"/>
<rect width="3.5268" height="4.46727" transform="matrix(1 0 -0.5547 0.83205 49.5928 114.021)" fill="#EDEBDB"/>
<rect width="3.5268" height="4.46727" transform="matrix(1 0 -0.5547 0.83205 49.5928 114.021)" stroke="#041C2F"/>
<rect width="3.5268" height="4.46727" transform="matrix(1 0 -0.5547 0.83205 54.0596 114.021)" fill="#EDEBDB"/>
<rect width="3.5268" height="4.46727" transform="matrix(1 0 -0.5547 0.83205 54.0596 114.021)" stroke="#041C2F"/>
<rect width="3.5268" height="4.46727" transform="matrix(1 0 -0.5547 0.83205 58.5264 114.021)" fill="#EDEBDB"/>
<rect width="3.5268" height="4.46727" transform="matrix(1 0 -0.5547 0.83205 58.5264 114.021)" stroke="#041C2F"/>
<rect width="3.5268" height="4.46727" transform="matrix(1 0 -0.5547 0.83205 62.9932 114.021)" fill="#EDEBDB"/>
<rect width="3.5268" height="4.46727" transform="matrix(1 0 -0.5547 0.83205 62.9932 114.021)" stroke="#041C2F"/>
<rect width="3.5268" height="4.46727" transform="matrix(1 0 -0.5547 0.83205 67.4609 114.021)" fill="#EDEBDB"/>
<rect width="3.5268" height="4.46727" transform="matrix(1 0 -0.5547 0.83205 67.4609 114.021)" stroke="#041C2F"/>
<rect width="3.5268" height="4.46727" transform="matrix(1 0 -0.5547 0.83205 71.9287 114.021)" fill="#EDEBDB"/>
<rect width="3.5268" height="4.46727" transform="matrix(1 0 -0.5547 0.83205 71.9287 114.021)" stroke="#041C2F"/>
<rect width="3.5268" height="4.46727" transform="matrix(1 0 -0.5547 0.83205 76.3955 114.021)" fill="#EDEBDB"/>
<rect width="3.5268" height="4.46727" transform="matrix(1 0 -0.5547 0.83205 76.3955 114.021)" stroke="#041C2F"/>
<rect width="3.5268" height="4.46727" transform="matrix(1 0 -0.5547 0.83205 97.0869 114.021)" fill="#EDEBDB"/>
<rect width="3.5268" height="4.46727" transform="matrix(1 0 -0.5547 0.83205 97.0869 114.021)" stroke="#041C2F"/>
<rect width="3.5268" height="4.46727" transform="matrix(1 0 -0.5547 0.83205 101.554 114.021)" fill="#EDEBDB"/>
<rect width="3.5268" height="4.46727" transform="matrix(1 0 -0.5547 0.83205 101.554 114.021)" stroke="#041C2F"/>
<rect width="3.5268" height="4.46727" transform="matrix(1 0 -0.5547 0.83205 106.021 114.021)" fill="#EDEBDB"/>
<rect width="3.5268" height="4.46727" transform="matrix(1 0 -0.5547 0.83205 106.021 114.021)" stroke="#041C2F"/>
<rect width="3.5268" height="4.46727" transform="matrix(1 0 -0.5547 0.83205 110.488 114.021)" fill="#EDEBDB"/>
<rect width="3.5268" height="4.46727" transform="matrix(1 0 -0.5547 0.83205 110.488 114.021)" stroke="#041C2F"/>
<rect width="3.5268" height="4.46727" transform="matrix(1 0 -0.5547 0.83205 128.356 114.021)" fill="#EDEBDB"/>
<rect width="3.5268" height="4.46727" transform="matrix(1 0 -0.5547 0.83205 128.356 114.021)" stroke="#041C2F"/>
<rect width="3.5268" height="4.46727" transform="matrix(1 0 -0.5547 0.83205 132.824 114.021)" fill="#EDEBDB"/>
<rect width="3.5268" height="4.46727" transform="matrix(1 0 -0.5547 0.83205 132.824 114.021)" stroke="#041C2F"/>
<rect width="3.5268" height="4.46727" transform="matrix(1 0 -0.5547 0.83205 137.292 114.021)" fill="#EDEBDB"/>
<rect width="3.5268" height="4.46727" transform="matrix(1 0 -0.5547 0.83205 137.292 114.021)" stroke="#041C2F"/>
<rect width="3.5268" height="4.46727" transform="matrix(1 0 -0.5547 0.83205 141.759 114.021)" fill="#EDEBDB"/>
<rect width="3.5268" height="4.46727" transform="matrix(1 0 -0.5547 0.83205 141.759 114.021)" stroke="#041C2F"/>
<rect width="54.4574" height="7.52383" transform="matrix(1 0 -0.5547 0.83205 129.394 105.414)" fill="#EDEBDB"/>
<rect width="54.4574" height="7.52383" transform="matrix(1 0 -0.5547 0.83205 129.394 105.414)" stroke="#041C2F"/>
<path d="M72.616 88.876C72.5413 88.876 72.472 88.8653 72.408 88.844C72.2053 88.8013 72.0613 88.6787 71.976 88.476C71.912 88.2947 71.928 88.092 72.024 87.868C72.1307 87.644 72.2693 87.3933 72.44 87.116C72.504 87.02 72.5627 86.924 72.616 86.828C72.68 86.7213 72.7333 86.6253 72.776 86.54C72.7973 86.508 72.8133 86.4813 72.824 86.46C72.8347 86.428 72.8453 86.4013 72.856 86.38C72.536 86.3267 72.1627 86.316 71.736 86.348C71.32 86.3693 70.8507 86.4493 70.328 86.588C69.8693 86.7053 69.3733 86.86 68.84 87.052C68.3173 87.2333 67.7627 87.452 67.176 87.708C67.0587 87.7507 66.9413 87.7507 66.824 87.708C66.7067 87.6653 66.6213 87.5853 66.568 87.468C66.504 87.3507 66.4987 87.228 66.552 87.1C66.6053 86.9613 66.6907 86.8707 66.808 86.828C67.4053 86.5613 67.976 86.332 68.52 86.14C69.0747 85.9373 69.5973 85.7773 70.088 85.66C71.4 85.3293 72.472 85.276 73.304 85.5C73.5493 85.564 73.72 85.7133 73.816 85.948C73.912 86.1827 73.8907 86.444 73.752 86.732C73.6133 87.02 73.448 87.3187 73.256 87.628C73.2453 87.6493 73.2293 87.676 73.208 87.708C73.1867 87.74 73.1653 87.7773 73.144 87.82C73.3893 87.7667 73.752 87.66 74.232 87.5C74.712 87.34 75.3733 87.1053 76.216 86.796C76.3333 86.7533 76.4507 86.764 76.568 86.828C76.696 86.8813 76.7813 86.972 76.824 87.1C76.8773 87.2173 76.8773 87.34 76.824 87.468C76.7707 87.5853 76.6747 87.6707 76.536 87.724C76.0453 87.8947 75.5973 88.0493 75.192 88.188C74.7867 88.3267 74.424 88.444 74.104 88.54C73.6773 88.668 73.352 88.7587 73.128 88.812C72.904 88.8547 72.7333 88.876 72.616 88.876ZM78.5499 88.556C78.4965 88.556 78.4539 88.5507 78.4219 88.54C78.2512 88.4973 78.1285 88.4333 78.0539 88.348C77.9899 88.252 77.9472 88.1773 77.9259 88.124C77.8512 87.8893 77.8779 87.6493 78.0059 87.404C78.1339 87.148 78.2992 86.8813 78.5019 86.604C78.5659 86.5187 78.6245 86.428 78.6779 86.332C78.7419 86.2253 78.7952 86.1347 78.8379 86.06C78.8485 86.0493 78.8645 86.028 78.8859 85.996C78.8219 86.0173 78.7419 86.0493 78.6459 86.092C78.5605 86.1347 78.4592 86.1987 78.3419 86.284C78.1499 86.4013 77.9472 86.556 77.7339 86.748C77.5205 86.9293 77.3019 87.1213 77.0779 87.324C77.0245 87.3667 76.9659 87.4147 76.9019 87.468C76.8485 87.5213 76.7952 87.5747 76.7419 87.628C76.6459 87.7133 76.5339 87.756 76.4059 87.756C76.2672 87.7453 76.1552 87.6867 76.0699 87.58C75.9739 87.484 75.9312 87.372 75.9419 87.244C75.9525 87.1053 76.0059 86.9933 76.1019 86.908C76.1552 86.8547 76.2139 86.8013 76.2779 86.748C76.3312 86.6947 76.3845 86.6467 76.4379 86.604C76.7792 86.2947 77.1152 86.012 77.4459 85.756C77.7765 85.4893 78.1019 85.2867 78.4219 85.148C78.7419 85.0093 79.0512 84.9827 79.3499 85.068C79.5312 85.1107 79.6592 85.1853 79.7339 85.292C79.8192 85.388 79.8672 85.4733 79.8779 85.548C79.9739 85.7827 79.9525 86.0333 79.8139 86.3C79.6752 86.556 79.4992 86.8387 79.2859 87.148C79.2645 87.1693 79.2379 87.2067 79.2059 87.26C79.1845 87.3027 79.1579 87.3453 79.1259 87.388C79.2859 87.324 79.4939 87.244 79.7499 87.148C80.0059 87.052 80.3152 86.9347 80.6779 86.796C80.8165 86.7533 80.9445 86.764 81.0619 86.828C81.1792 86.8813 81.2592 86.972 81.3019 87.1C81.3552 87.2173 81.3499 87.34 81.2859 87.468C81.2325 87.5853 81.1472 87.6707 81.0299 87.724C80.6885 87.8413 80.3792 87.948 80.1019 88.044C79.8245 88.14 79.5899 88.2253 79.3979 88.3C79.2912 88.3427 79.1952 88.38 79.1099 88.412C79.0352 88.4333 78.9659 88.4547 78.9019 88.476C78.8272 88.4973 78.7632 88.5187 78.7099 88.54C78.6565 88.5507 78.6032 88.556 78.5499 88.556ZM82.1081 89.948C82.0335 89.948 81.9588 89.9373 81.8841 89.916C81.8095 89.9053 81.7348 89.8947 81.6601 89.884C81.4681 89.8307 81.3348 89.7187 81.2601 89.548C81.1641 89.3347 81.1641 89.0787 81.2601 88.78C81.3668 88.4707 81.5375 88.076 81.7721 87.596C81.8148 87.5107 81.8575 87.4147 81.9001 87.308C81.9535 87.2013 82.0015 87.1 82.0441 87.004C81.9055 87.0573 81.7561 87.148 81.5961 87.276C81.4468 87.3933 81.2921 87.516 81.1321 87.644C81.0255 87.7187 80.9081 87.7507 80.7801 87.74C80.6415 87.7187 80.5295 87.66 80.4441 87.564C80.3695 87.4573 80.3428 87.34 80.3641 87.212C80.3748 87.084 80.4281 86.972 80.5241 86.876C80.6735 86.7693 80.8281 86.652 80.9881 86.524C81.1588 86.396 81.3295 86.2893 81.5001 86.204C81.9375 85.98 82.3375 85.9213 82.7001 86.028C82.8708 86.06 82.9988 86.1667 83.0841 86.348C83.1695 86.5187 83.1641 86.732 83.0681 86.988C82.9828 87.244 82.8335 87.5907 82.6201 88.028C82.5668 88.156 82.5081 88.284 82.4441 88.412C82.3908 88.54 82.3375 88.6627 82.2841 88.78C82.2735 88.8227 82.2575 88.86 82.2361 88.892C82.2255 88.924 82.2148 88.956 82.2041 88.988C82.4281 88.956 82.7535 88.844 83.1801 88.652C83.6175 88.4493 84.2041 88.0547 84.9401 87.468C85.3348 87.1587 85.6921 86.86 86.0121 86.572C86.3321 86.2733 86.5881 86.028 86.7801 85.836C86.9721 85.644 87.0681 85.548 87.0681 85.548C87.1961 85.3987 87.3508 85.3507 87.5321 85.404C87.6175 85.4147 87.6868 85.452 87.7401 85.516C87.7935 85.5693 87.8361 85.6227 87.8681 85.676C87.9428 85.8253 87.9481 86.0013 87.8841 86.204C87.8308 86.396 87.7135 86.7107 87.5321 87.148C87.4681 87.2867 87.4041 87.4253 87.3401 87.564C87.2868 87.7027 87.2335 87.8307 87.1801 87.948C87.1695 87.9907 87.1588 88.028 87.1481 88.06C87.1481 88.0813 87.1428 88.1027 87.1321 88.124C87.3348 88.092 87.5481 88.0067 87.7721 87.868C88.0068 87.7187 88.2308 87.5533 88.4441 87.372C88.6681 87.1907 88.8548 87.036 89.0041 86.908C89.1108 86.812 89.2281 86.7693 89.3561 86.78C89.4841 86.7907 89.5961 86.844 89.6921 86.94C89.7775 87.0467 89.8148 87.164 89.8041 87.292C89.8041 87.42 89.7508 87.532 89.6441 87.628C89.3135 87.916 88.9721 88.188 88.6201 88.444C88.2788 88.7 87.9321 88.892 87.5801 89.02C87.2388 89.1373 86.8921 89.1533 86.5401 89.068C86.3695 88.9933 86.2468 88.8867 86.1721 88.748C86.1081 88.5987 86.0868 88.4333 86.1081 88.252C86.1401 88.0707 86.2041 87.8467 86.3001 87.58C86.1828 87.6867 86.0601 87.788 85.9321 87.884C85.8148 87.98 85.6868 88.0867 85.5481 88.204C84.0761 89.3667 82.9295 89.948 82.1081 89.948ZM91.4718 88.556C91.4184 88.556 91.3758 88.5507 91.3438 88.54C91.1731 88.4973 91.0504 88.4333 90.9758 88.348C90.9118 88.252 90.8691 88.1773 90.8478 88.124C90.7731 87.8893 90.7998 87.6493 90.9278 87.404C91.0558 87.148 91.2211 86.8813 91.4238 86.604C91.4878 86.5187 91.5464 86.428 91.5998 86.332C91.6638 86.2253 91.7171 86.1347 91.7598 86.06C91.7704 86.0493 91.7864 86.028 91.8078 85.996C91.7438 86.0173 91.6638 86.0493 91.5678 86.092C91.4824 86.1347 91.3811 86.1987 91.2638 86.284C91.0718 86.4013 90.8691 86.556 90.6558 86.748C90.4424 86.9293 90.2238 87.1213 89.9998 87.324C89.9464 87.3667 89.8878 87.4147 89.8238 87.468C89.7704 87.5213 89.7171 87.5747 89.6638 87.628C89.5678 87.7133 89.4558 87.756 89.3277 87.756C89.1891 87.7453 89.0771 87.6867 88.9917 87.58C88.8957 87.484 88.8531 87.372 88.8637 87.244C88.8744 87.1053 88.9277 86.9933 89.0237 86.908C89.0771 86.8547 89.1357 86.8013 89.1997 86.748C89.2531 86.6947 89.3064 86.6467 89.3598 86.604C89.7011 86.2947 90.0371 86.012 90.3678 85.756C90.6984 85.4893 91.0238 85.2867 91.3438 85.148C91.6638 85.0093 91.9731 84.9827 92.2718 85.068C92.4531 85.1107 92.5811 85.1853 92.6558 85.292C92.7411 85.388 92.7891 85.4733 92.7998 85.548C92.8958 85.7827 92.8744 86.0333 92.7358 86.3C92.5971 86.556 92.4211 86.8387 92.2078 87.148C92.1864 87.1693 92.1598 87.2067 92.1278 87.26C92.1064 87.3027 92.0798 87.3453 92.0478 87.388C92.2078 87.324 92.4158 87.244 92.6718 87.148C92.9278 87.052 93.2371 86.9347 93.5998 86.796C93.7384 86.7533 93.8664 86.764 93.9838 86.828C94.1011 86.8813 94.1811 86.972 94.2238 87.1C94.2771 87.2173 94.2718 87.34 94.2078 87.468C94.1544 87.5853 94.0691 87.6707 93.9518 87.724C93.6104 87.8413 93.3011 87.948 93.0238 88.044C92.7464 88.14 92.5118 88.2253 92.3198 88.3C92.2131 88.3427 92.1171 88.38 92.0318 88.412C91.9571 88.4333 91.8878 88.4547 91.8238 88.476C91.7491 88.4973 91.6851 88.5187 91.6318 88.54C91.5784 88.5507 91.5251 88.556 91.4718 88.556ZM95.03 89.948C94.9553 89.948 94.8807 89.9373 94.806 89.916C94.7313 89.9053 94.6567 89.8947 94.582 89.884C94.39 89.8307 94.2567 89.7187 94.182 89.548C94.086 89.3347 94.086 89.0787 94.182 88.78C94.2887 88.4707 94.4593 88.076 94.694 87.596C94.7367 87.5107 94.7793 87.4147 94.822 87.308C94.8753 87.2013 94.9233 87.1 94.966 87.004C94.8273 87.0573 94.678 87.148 94.518 87.276C94.3687 87.3933 94.214 87.516 94.054 87.644C93.9473 87.7187 93.83 87.7507 93.702 87.74C93.5633 87.7187 93.4513 87.66 93.366 87.564C93.2913 87.4573 93.2647 87.34 93.286 87.212C93.2967 87.084 93.35 86.972 93.446 86.876C93.5953 86.7693 93.75 86.652 93.91 86.524C94.0807 86.396 94.2513 86.2893 94.422 86.204C94.8593 85.98 95.2593 85.9213 95.622 86.028C95.7927 86.06 95.9207 86.1667 96.006 86.348C96.0913 86.5187 96.086 86.732 95.99 86.988C95.9047 87.244 95.7553 87.5907 95.542 88.028C95.4887 88.156 95.43 88.284 95.366 88.412C95.3127 88.54 95.2593 88.6627 95.206 88.78C95.1953 88.8227 95.1793 88.86 95.158 88.892C95.1473 88.924 95.1367 88.956 95.126 88.988C95.35 88.956 95.6753 88.844 96.102 88.652C96.5393 88.4493 97.126 88.0547 97.862 87.468C98.2567 87.1587 98.614 86.86 98.934 86.572C99.254 86.2733 99.51 86.028 99.702 85.836C99.894 85.644 99.99 85.548 99.99 85.548C100.118 85.3987 100.273 85.3507 100.454 85.404C100.539 85.4147 100.609 85.452 100.662 85.516C100.715 85.5693 100.758 85.6227 100.79 85.676C100.865 85.8253 100.87 86.0013 100.806 86.204C100.753 86.396 100.635 86.7107 100.454 87.148C100.39 87.2867 100.326 87.4253 100.262 87.564C100.209 87.7027 100.155 87.8307 100.102 87.948C100.091 87.9907 100.081 88.028 100.07 88.06C100.07 88.0813 100.065 88.1027 100.054 88.124C100.257 88.092 100.47 88.0067 100.694 87.868C100.929 87.7187 101.153 87.5533 101.366 87.372C101.59 87.1907 101.777 87.036 101.926 86.908C102.033 86.812 102.15 86.7693 102.278 86.78C102.406 86.7907 102.518 86.844 102.614 86.94C102.699 87.0467 102.737 87.164 102.726 87.292C102.726 87.42 102.673 87.532 102.566 87.628C102.235 87.916 101.894 88.188 101.542 88.444C101.201 88.7 100.854 88.892 100.502 89.02C100.161 89.1373 99.814 89.1533 99.462 89.068C99.2913 88.9933 99.1687 88.8867 99.094 88.748C99.03 88.5987 99.0087 88.4333 99.03 88.252C99.062 88.0707 99.126 87.8467 99.222 87.58C99.1047 87.6867 98.982 87.788 98.854 87.884C98.7367 87.98 98.6087 88.0867 98.47 88.204C96.998 89.3667 95.8513 89.948 95.03 89.948ZM104.394 88.556C104.34 88.556 104.298 88.5507 104.266 88.54C104.095 88.4973 103.972 88.4333 103.898 88.348C103.834 88.252 103.791 88.1773 103.77 88.124C103.695 87.8893 103.722 87.6493 103.85 87.404C103.978 87.148 104.143 86.8813 104.346 86.604C104.41 86.5187 104.468 86.428 104.522 86.332C104.586 86.2253 104.639 86.1347 104.682 86.06C104.692 86.0493 104.708 86.028 104.73 85.996C104.666 86.0173 104.586 86.0493 104.49 86.092C104.404 86.1347 104.303 86.1987 104.186 86.284C103.994 86.4013 103.791 86.556 103.578 86.748C103.364 86.9293 103.146 87.1213 102.922 87.324C102.868 87.3667 102.81 87.4147 102.746 87.468C102.692 87.5213 102.639 87.5747 102.586 87.628C102.49 87.7133 102.378 87.756 102.25 87.756C102.111 87.7453 101.999 87.6867 101.914 87.58C101.818 87.484 101.775 87.372 101.786 87.244C101.796 87.1053 101.85 86.9933 101.946 86.908C101.999 86.8547 102.058 86.8013 102.122 86.748C102.175 86.6947 102.228 86.6467 102.282 86.604C102.623 86.2947 102.959 86.012 103.29 85.756C103.62 85.4893 103.946 85.2867 104.266 85.148C104.586 85.0093 104.895 84.9827 105.194 85.068C105.375 85.1107 105.503 85.1853 105.578 85.292C105.663 85.388 105.711 85.4733 105.722 85.548C105.818 85.7827 105.796 86.0333 105.658 86.3C105.519 86.556 105.343 86.8387 105.13 87.148C105.108 87.1693 105.082 87.2067 105.05 87.26C105.028 87.3027 105.002 87.3453 104.97 87.388C105.13 87.324 105.338 87.244 105.594 87.148C105.85 87.052 106.159 86.9347 106.522 86.796C106.66 86.7533 106.788 86.764 106.906 86.828C107.023 86.8813 107.103 86.972 107.146 87.1C107.199 87.2173 107.194 87.34 107.13 87.468C107.076 87.5853 106.991 87.6707 106.874 87.724C106.532 87.8413 106.223 87.948 105.946 88.044C105.668 88.14 105.434 88.2253 105.242 88.3C105.135 88.3427 105.039 88.38 104.954 88.412C104.879 88.4333 104.81 88.4547 104.746 88.476C104.671 88.4973 104.607 88.5187 104.554 88.54C104.5 88.5507 104.447 88.556 104.394 88.556Z" fill="black" fill-opacity="0.8"/>
<path d="M118.648 89.036C118.52 89.036 118.413 88.9987 118.328 88.924C118.157 88.7853 118.109 88.6093 118.184 88.396C118.184 88.3853 118.221 88.2573 118.296 88.012C118.381 87.7667 118.477 87.4893 118.584 87.18C118.637 86.9987 118.685 86.844 118.728 86.716C118.771 86.5773 118.808 86.4547 118.84 86.348C118.552 86.4547 118.2 86.588 117.784 86.748C117.368 86.8973 116.931 87.0573 116.472 87.228C116.024 87.3987 115.587 87.564 115.16 87.724C115.043 87.7667 114.925 87.7613 114.808 87.708C114.68 87.644 114.589 87.548 114.536 87.42C114.493 87.3027 114.504 87.1853 114.568 87.068C114.621 86.94 114.712 86.8493 114.84 86.796C115.32 86.6253 115.816 86.4493 116.328 86.268C116.84 86.076 117.315 85.9 117.752 85.74C118.189 85.5693 118.547 85.4307 118.824 85.324C119.101 85.2173 119.24 85.164 119.24 85.164C119.293 85.1533 119.347 85.148 119.4 85.148C119.453 85.1373 119.501 85.1427 119.544 85.164C119.693 85.1853 119.8 85.2707 119.864 85.42C119.917 85.5053 119.939 85.6173 119.928 85.756C119.928 85.884 119.901 86.0707 119.848 86.316C119.816 86.4547 119.773 86.6093 119.72 86.78C119.677 86.94 119.619 87.1267 119.544 87.34C119.533 87.3827 119.523 87.42 119.512 87.452C119.501 87.484 119.491 87.5213 119.48 87.564C119.907 87.3293 120.429 87.084 121.048 86.828C121.165 86.7747 121.283 86.7747 121.4 86.828C121.528 86.8707 121.613 86.9507 121.656 87.068C121.72 87.1853 121.725 87.308 121.672 87.436C121.619 87.564 121.533 87.6547 121.416 87.708C120.936 87.9213 120.504 88.124 120.12 88.316C119.747 88.508 119.448 88.6627 119.224 88.78C119 88.8973 118.888 88.956 118.888 88.956C118.824 89.0093 118.744 89.036 118.648 89.036ZM122.499 89.948C122.424 89.948 122.349 89.9373 122.275 89.916C122.2 89.9053 122.125 89.8947 122.051 89.884C121.859 89.8307 121.725 89.7187 121.651 89.548C121.555 89.3347 121.555 89.0787 121.651 88.78C121.757 88.4707 121.928 88.076 122.163 87.596C122.205 87.5107 122.248 87.4147 122.291 87.308C122.344 87.2013 122.392 87.1 122.435 87.004C122.296 87.0573 122.147 87.148 121.987 87.276C121.837 87.3933 121.683 87.516 121.523 87.644C121.416 87.7187 121.299 87.7507 121.171 87.74C121.032 87.7187 120.92 87.66 120.835 87.564C120.76 87.4573 120.733 87.34 120.755 87.212C120.765 87.084 120.819 86.972 120.915 86.876C121.064 86.7693 121.219 86.652 121.379 86.524C121.549 86.396 121.72 86.2893 121.891 86.204C122.328 85.98 122.728 85.9213 123.091 86.028C123.261 86.06 123.389 86.1667 123.475 86.348C123.56 86.5187 123.555 86.732 123.459 86.988C123.373 87.244 123.224 87.5907 123.011 88.028C122.957 88.156 122.899 88.284 122.835 88.412C122.781 88.54 122.728 88.6627 122.675 88.78C122.664 88.8227 122.648 88.86 122.627 88.892C122.616 88.924 122.605 88.956 122.595 88.988C122.819 88.956 123.144 88.844 123.571 88.652C124.008 88.4493 124.595 88.0547 125.331 87.468C125.725 87.1587 126.083 86.86 126.403 86.572C126.723 86.2733 126.979 86.028 127.171 85.836C127.363 85.644 127.459 85.548 127.459 85.548C127.587 85.3987 127.741 85.3507 127.923 85.404C128.008 85.4147 128.077 85.452 128.131 85.516C128.184 85.5693 128.227 85.6227 128.259 85.676C128.333 85.8253 128.339 86.0013 128.275 86.204C128.221 86.396 128.104 86.7107 127.923 87.148C127.859 87.2867 127.795 87.4253 127.731 87.564C127.677 87.7027 127.624 87.8307 127.571 87.948C127.56 87.9907 127.549 88.028 127.539 88.06C127.539 88.0813 127.533 88.1027 127.523 88.124C127.725 88.092 127.939 88.0067 128.163 87.868C128.397 87.7187 128.621 87.5533 128.835 87.372C129.059 87.1907 129.245 87.036 129.395 86.908C129.501 86.812 129.619 86.7693 129.747 86.78C129.875 86.7907 129.987 86.844 130.083 86.94C130.168 87.0467 130.205 87.164 130.195 87.292C130.195 87.42 130.141 87.532 130.035 87.628C129.704 87.916 129.363 88.188 129.011 88.444C128.669 88.7 128.323 88.892 127.971 89.02C127.629 89.1373 127.283 89.1533 126.931 89.068C126.76 88.9933 126.637 88.8867 126.563 88.748C126.499 88.5987 126.477 88.4333 126.499 88.252C126.531 88.0707 126.595 87.8467 126.691 87.58C126.573 87.6867 126.451 87.788 126.323 87.884C126.205 87.98 126.077 88.0867 125.939 88.204C124.467 89.3667 123.32 89.948 122.499 89.948ZM135.35 88.876C135.276 88.876 135.206 88.8653 135.142 88.844C134.94 88.8013 134.796 88.6787 134.71 88.476C134.646 88.2947 134.662 88.092 134.758 87.868C134.865 87.644 135.004 87.3933 135.174 87.116C135.238 87.02 135.297 86.924 135.35 86.828C135.414 86.7213 135.468 86.6253 135.51 86.54C135.532 86.508 135.548 86.4813 135.558 86.46C135.569 86.428 135.58 86.4013 135.59 86.38C135.27 86.3267 134.897 86.316 134.47 86.348C134.054 86.3693 133.585 86.4493 133.062 86.588C132.604 86.7053 132.108 86.86 131.574 87.052C131.052 87.2333 130.497 87.452 129.91 87.708C129.793 87.7507 129.676 87.7507 129.558 87.708C129.441 87.6653 129.356 87.5853 129.302 87.468C129.238 87.3507 129.233 87.228 129.286 87.1C129.34 86.9613 129.425 86.8707 129.542 86.828C130.14 86.5613 130.71 86.332 131.254 86.14C131.809 85.9373 132.332 85.7773 132.822 85.66C134.134 85.3293 135.206 85.276 136.038 85.5C136.284 85.564 136.454 85.7133 136.55 85.948C136.646 86.1827 136.625 86.444 136.486 86.732C136.348 87.02 136.182 87.3187 135.99 87.628C135.98 87.6493 135.964 87.676 135.942 87.708C135.921 87.74 135.9 87.7773 135.878 87.82C136.124 87.7667 136.486 87.66 136.966 87.5C137.446 87.34 138.108 87.1053 138.95 86.796C139.068 86.7533 139.185 86.764 139.302 86.828C139.43 86.8813 139.516 86.972 139.558 87.1C139.612 87.2173 139.612 87.34 139.558 87.468C139.505 87.5853 139.409 87.6707 139.27 87.724C138.78 87.8947 138.332 88.0493 137.926 88.188C137.521 88.3267 137.158 88.444 136.838 88.54C136.412 88.668 136.086 88.7587 135.862 88.812C135.638 88.8547 135.468 88.876 135.35 88.876ZM141.284 88.556C141.231 88.556 141.188 88.5507 141.156 88.54C140.986 88.4973 140.863 88.4333 140.788 88.348C140.724 88.252 140.682 88.1773 140.66 88.124C140.586 87.8893 140.612 87.6493 140.74 87.404C140.868 87.148 141.034 86.8813 141.236 86.604C141.3 86.5187 141.359 86.428 141.412 86.332C141.476 86.2253 141.53 86.1347 141.572 86.06C141.583 86.0493 141.599 86.028 141.62 85.996C141.556 86.0173 141.476 86.0493 141.38 86.092C141.295 86.1347 141.194 86.1987 141.076 86.284C140.884 86.4013 140.682 86.556 140.468 86.748C140.255 86.9293 140.036 87.1213 139.812 87.324C139.759 87.3667 139.7 87.4147 139.636 87.468C139.583 87.5213 139.53 87.5747 139.476 87.628C139.38 87.7133 139.268 87.756 139.14 87.756C139.002 87.7453 138.89 87.6867 138.804 87.58C138.708 87.484 138.666 87.372 138.676 87.244C138.687 87.1053 138.74 86.9933 138.836 86.908C138.89 86.8547 138.948 86.8013 139.012 86.748C139.066 86.6947 139.119 86.6467 139.172 86.604C139.514 86.2947 139.85 86.012 140.18 85.756C140.511 85.4893 140.836 85.2867 141.156 85.148C141.476 85.0093 141.786 84.9827 142.084 85.068C142.266 85.1107 142.394 85.1853 142.468 85.292C142.554 85.388 142.602 85.4733 142.612 85.548C142.708 85.7827 142.687 86.0333 142.548 86.3C142.41 86.556 142.234 86.8387 142.02 87.148C141.999 87.1693 141.972 87.2067 141.94 87.26C141.919 87.3027 141.892 87.3453 141.86 87.388C142.02 87.324 142.228 87.244 142.484 87.148C142.74 87.052 143.05 86.9347 143.412 86.796C143.551 86.7533 143.679 86.764 143.796 86.828C143.914 86.8813 143.994 86.972 144.036 87.1C144.09 87.2173 144.084 87.34 144.02 87.468C143.967 87.5853 143.882 87.6707 143.764 87.724C143.423 87.8413 143.114 87.948 142.836 88.044C142.559 88.14 142.324 88.2253 142.132 88.3C142.026 88.3427 141.93 88.38 141.844 88.412C141.77 88.4333 141.7 88.4547 141.636 88.476C141.562 88.4973 141.498 88.5187 141.444 88.54C141.391 88.5507 141.338 88.556 141.284 88.556ZM144.843 89.948C144.768 89.948 144.693 89.9373 144.618 89.916C144.544 89.9053 144.469 89.8947 144.395 89.884C144.203 89.8307 144.069 89.7187 143.995 89.548C143.899 89.3347 143.899 89.0787 143.995 88.78C144.101 88.4707 144.272 88.076 144.507 87.596C144.549 87.5107 144.592 87.4147 144.635 87.308C144.688 87.2013 144.736 87.1 144.779 87.004C144.64 87.0573 144.491 87.148 144.331 87.276C144.181 87.3933 144.027 87.516 143.867 87.644C143.76 87.7187 143.643 87.7507 143.514 87.74C143.376 87.7187 143.264 87.66 143.178 87.564C143.104 87.4573 143.077 87.34 143.098 87.212C143.109 87.084 143.162 86.972 143.258 86.876C143.408 86.7693 143.562 86.652 143.723 86.524C143.893 86.396 144.064 86.2893 144.235 86.204C144.672 85.98 145.072 85.9213 145.435 86.028C145.605 86.06 145.733 86.1667 145.819 86.348C145.904 86.5187 145.899 86.732 145.803 86.988C145.717 87.244 145.568 87.5907 145.355 88.028C145.301 88.156 145.243 88.284 145.179 88.412C145.125 88.54 145.072 88.6627 145.019 88.78C145.008 88.8227 144.992 88.86 144.971 88.892C144.96 88.924 144.949 88.956 144.939 88.988C145.163 88.956 145.488 88.844 145.914 88.652C146.352 88.4493 146.939 88.0547 147.674 87.468C148.069 87.1587 148.427 86.86 148.747 86.572C149.067 86.2733 149.323 86.028 149.515 85.836C149.707 85.644 149.803 85.548 149.803 85.548C149.931 85.3987 150.085 85.3507 150.267 85.404C150.352 85.4147 150.421 85.452 150.475 85.516C150.528 85.5693 150.571 85.6227 150.603 85.676C150.677 85.8253 150.683 86.0013 150.619 86.204C150.565 86.396 150.448 86.7107 150.267 87.148C150.203 87.2867 150.139 87.4253 150.075 87.564C150.021 87.7027 149.968 87.8307 149.915 87.948C149.904 87.9907 149.893 88.028 149.883 88.06C149.883 88.0813 149.877 88.1027 149.867 88.124C150.069 88.092 150.283 88.0067 150.507 87.868C150.741 87.7187 150.965 87.5533 151.179 87.372C151.403 87.1907 151.589 87.036 151.739 86.908C151.845 86.812 151.963 86.7693 152.091 86.78C152.219 86.7907 152.331 86.844 152.427 86.94C152.512 87.0467 152.549 87.164 152.539 87.292C152.539 87.42 152.485 87.532 152.378 87.628C152.048 87.916 151.707 88.188 151.355 88.444C151.013 88.7 150.667 88.892 150.315 89.02C149.973 89.1373 149.627 89.1533 149.275 89.068C149.104 88.9933 148.981 88.8867 148.907 88.748C148.843 88.5987 148.821 88.4333 148.843 88.252C148.875 88.0707 148.939 87.8467 149.035 87.58C148.917 87.6867 148.795 87.788 148.667 87.884C148.549 87.98 148.421 88.0867 148.283 88.204C146.811 89.3667 145.664 89.948 144.843 89.948ZM154.206 88.556C154.153 88.556 154.11 88.5507 154.078 88.54C153.907 88.4973 153.785 88.4333 153.71 88.348C153.646 88.252 153.603 88.1773 153.582 88.124C153.507 87.8893 153.534 87.6493 153.662 87.404C153.79 87.148 153.955 86.8813 154.158 86.604C154.222 86.5187 154.281 86.428 154.334 86.332C154.398 86.2253 154.451 86.1347 154.494 86.06C154.505 86.0493 154.521 86.028 154.542 85.996C154.478 86.0173 154.398 86.0493 154.302 86.092C154.217 86.1347 154.115 86.1987 153.998 86.284C153.806 86.4013 153.603 86.556 153.39 86.748C153.177 86.9293 152.958 87.1213 152.734 87.324C152.681 87.3667 152.622 87.4147 152.558 87.468C152.505 87.5213 152.451 87.5747 152.398 87.628C152.302 87.7133 152.19 87.756 152.062 87.756C151.923 87.7453 151.811 87.6867 151.726 87.58C151.63 87.484 151.587 87.372 151.598 87.244C151.609 87.1053 151.662 86.9933 151.758 86.908C151.811 86.8547 151.87 86.8013 151.934 86.748C151.987 86.6947 152.041 86.6467 152.094 86.604C152.435 86.2947 152.771 86.012 153.102 85.756C153.433 85.4893 153.758 85.2867 154.078 85.148C154.398 85.0093 154.707 84.9827 155.006 85.068C155.187 85.1107 155.315 85.1853 155.39 85.292C155.475 85.388 155.523 85.4733 155.534 85.548C155.63 85.7827 155.609 86.0333 155.47 86.3C155.331 86.556 155.155 86.8387 154.942 87.148C154.921 87.1693 154.894 87.2067 154.862 87.26C154.841 87.3027 154.814 87.3453 154.782 87.388C154.942 87.324 155.15 87.244 155.406 87.148C155.662 87.052 155.971 86.9347 156.334 86.796C156.473 86.7533 156.601 86.764 156.718 86.828C156.835 86.8813 156.915 86.972 156.958 87.1C157.011 87.2173 157.006 87.34 156.942 87.468C156.889 87.5853 156.803 87.6707 156.686 87.724C156.345 87.8413 156.035 87.948 155.758 88.044C155.481 88.14 155.246 88.2253 155.054 88.3C154.947 88.3427 154.851 88.38 154.766 88.412C154.691 88.4333 154.622 88.4547 154.558 88.476C154.483 88.4973 154.419 88.5187 154.366 88.54C154.313 88.5507 154.259 88.556 154.206 88.556ZM162.1 88.876C162.026 88.876 161.956 88.8653 161.892 88.844C161.69 88.8013 161.546 88.6787 161.46 88.476C161.396 88.2947 161.412 88.092 161.508 87.868C161.615 87.644 161.754 87.3933 161.924 87.116C161.988 87.02 162.047 86.924 162.1 86.828C162.164 86.7213 162.218 86.6253 162.26 86.54C162.282 86.508 162.298 86.4813 162.308 86.46C162.319 86.428 162.33 86.4013 162.34 86.38C162.02 86.3267 161.647 86.316 161.22 86.348C160.804 86.3693 160.335 86.4493 159.812 86.588C159.354 86.7053 158.858 86.86 158.324 87.052C157.802 87.2333 157.247 87.452 156.66 87.708C156.543 87.7507 156.426 87.7507 156.308 87.708C156.191 87.6653 156.106 87.5853 156.052 87.468C155.988 87.3507 155.983 87.228 156.036 87.1C156.09 86.9613 156.175 86.8707 156.292 86.828C156.89 86.5613 157.46 86.332 158.004 86.14C158.559 85.9373 159.082 85.7773 159.572 85.66C160.884 85.3293 161.956 85.276 162.788 85.5C163.034 85.564 163.204 85.7133 163.3 85.948C163.396 86.1827 163.375 86.444 163.236 86.732C163.098 87.02 162.932 87.3187 162.74 87.628C162.73 87.6493 162.714 87.676 162.692 87.708C162.671 87.74 162.65 87.7773 162.628 87.82C162.874 87.7667 163.236 87.66 163.716 87.5C164.196 87.34 164.858 87.1053 165.7 86.796C165.818 86.7533 165.935 86.764 166.052 86.828C166.18 86.8813 166.266 86.972 166.308 87.1C166.362 87.2173 166.362 87.34 166.308 87.468C166.255 87.5853 166.159 87.6707 166.02 87.724C165.53 87.8947 165.082 88.0493 164.676 88.188C164.271 88.3267 163.908 88.444 163.588 88.54C163.162 88.668 162.836 88.7587 162.612 88.812C162.388 88.8547 162.218 88.876 162.1 88.876Z" fill="black" fill-opacity="0.8"/>
<path d="M131.28 110.948C131.205 110.948 131.131 110.937 131.056 110.916C130.981 110.905 130.907 110.895 130.832 110.884C130.64 110.831 130.507 110.719 130.432 110.548C130.336 110.335 130.336 110.079 130.432 109.78C130.539 109.471 130.709 109.076 130.944 108.596C130.987 108.511 131.029 108.415 131.072 108.308C131.125 108.201 131.173 108.1 131.216 108.004C131.077 108.057 130.928 108.148 130.768 108.276C130.619 108.393 130.464 108.516 130.304 108.644C130.197 108.719 130.08 108.751 129.952 108.74C129.813 108.719 129.701 108.66 129.616 108.564C129.541 108.457 129.515 108.34 129.536 108.212C129.547 108.084 129.6 107.972 129.696 107.876C129.845 107.769 130 107.652 130.16 107.524C130.331 107.396 130.501 107.289 130.672 107.204C131.109 106.98 131.509 106.921 131.872 107.028C132.043 107.06 132.171 107.167 132.256 107.348C132.341 107.519 132.336 107.732 132.24 107.988C132.155 108.244 132.005 108.591 131.792 109.028C131.739 109.156 131.68 109.284 131.616 109.412C131.563 109.54 131.509 109.663 131.456 109.78C131.445 109.823 131.429 109.86 131.408 109.892C131.397 109.924 131.387 109.956 131.376 109.988C131.6 109.956 131.925 109.844 132.352 109.652C132.789 109.449 133.376 109.055 134.112 108.468C134.507 108.159 134.864 107.86 135.184 107.572C135.504 107.273 135.76 107.028 135.952 106.836C136.144 106.644 136.24 106.548 136.24 106.548C136.368 106.399 136.523 106.351 136.704 106.404C136.789 106.415 136.859 106.452 136.912 106.516C136.965 106.569 137.008 106.623 137.04 106.676C137.115 106.825 137.12 107.001 137.056 107.204C137.003 107.396 136.885 107.711 136.704 108.148C136.64 108.287 136.576 108.425 136.512 108.564C136.459 108.703 136.405 108.831 136.352 108.948C136.341 108.991 136.331 109.028 136.32 109.06C136.32 109.081 136.315 109.103 136.304 109.124C136.507 109.092 136.72 109.007 136.944 108.868C137.179 108.719 137.403 108.553 137.616 108.372C137.84 108.191 138.027 108.036 138.176 107.908C138.283 107.812 138.4 107.769 138.528 107.78C138.656 107.791 138.768 107.844 138.864 107.94C138.949 108.047 138.987 108.164 138.976 108.292C138.976 108.42 138.923 108.532 138.816 108.628C138.485 108.916 138.144 109.188 137.792 109.444C137.451 109.7 137.104 109.892 136.752 110.02C136.411 110.137 136.064 110.153 135.712 110.068C135.541 109.993 135.419 109.887 135.344 109.748C135.28 109.599 135.259 109.433 135.28 109.252C135.312 109.071 135.376 108.847 135.472 108.58C135.355 108.687 135.232 108.788 135.104 108.884C134.987 108.98 134.859 109.087 134.72 109.204C133.248 110.367 132.101 110.948 131.28 110.948ZM140.644 109.556C140.59 109.556 140.548 109.551 140.516 109.54C140.345 109.497 140.222 109.433 140.148 109.348C140.084 109.252 140.041 109.177 140.02 109.124C139.945 108.889 139.972 108.649 140.1 108.404C140.228 108.148 140.393 107.881 140.596 107.604C140.66 107.519 140.718 107.428 140.772 107.332C140.836 107.225 140.889 107.135 140.932 107.06C140.942 107.049 140.958 107.028 140.98 106.996C140.916 107.017 140.836 107.049 140.74 107.092C140.654 107.135 140.553 107.199 140.436 107.284C140.244 107.401 140.041 107.556 139.828 107.748C139.614 107.929 139.396 108.121 139.172 108.324C139.118 108.367 139.06 108.415 138.996 108.468C138.942 108.521 138.889 108.575 138.836 108.628C138.74 108.713 138.628 108.756 138.5 108.756C138.361 108.745 138.249 108.687 138.164 108.58C138.068 108.484 138.025 108.372 138.036 108.244C138.046 108.105 138.1 107.993 138.196 107.908C138.249 107.855 138.308 107.801 138.372 107.748C138.425 107.695 138.478 107.647 138.532 107.604C138.873 107.295 139.209 107.012 139.54 106.756C139.87 106.489 140.196 106.287 140.516 106.148C140.836 106.009 141.145 105.983 141.444 106.068C141.625 106.111 141.753 106.185 141.828 106.292C141.913 106.388 141.961 106.473 141.972 106.548C142.068 106.783 142.046 107.033 141.908 107.3C141.769 107.556 141.593 107.839 141.38 108.148C141.358 108.169 141.332 108.207 141.3 108.26C141.278 108.303 141.252 108.345 141.22 108.388C141.38 108.324 141.588 108.244 141.844 108.148C142.1 108.052 142.409 107.935 142.772 107.796C142.91 107.753 143.038 107.764 143.156 107.828C143.273 107.881 143.353 107.972 143.396 108.1C143.449 108.217 143.444 108.34 143.38 108.468C143.326 108.585 143.241 108.671 143.124 108.724C142.782 108.841 142.473 108.948 142.196 109.044C141.918 109.14 141.684 109.225 141.492 109.3C141.385 109.343 141.289 109.38 141.204 109.412C141.129 109.433 141.06 109.455 140.996 109.476C140.921 109.497 140.857 109.519 140.804 109.54C140.75 109.551 140.697 109.556 140.644 109.556ZM148.538 109.876C148.463 109.876 148.394 109.865 148.33 109.844C148.127 109.801 147.983 109.679 147.898 109.476C147.834 109.295 147.85 109.092 147.946 108.868C148.053 108.644 148.191 108.393 148.362 108.116C148.426 108.02 148.485 107.924 148.538 107.828C148.602 107.721 148.655 107.625 148.698 107.54C148.719 107.508 148.735 107.481 148.746 107.46C148.757 107.428 148.767 107.401 148.778 107.38C148.458 107.327 148.085 107.316 147.658 107.348C147.242 107.369 146.773 107.449 146.25 107.588C145.791 107.705 145.295 107.86 144.762 108.052C144.239 108.233 143.685 108.452 143.098 108.708C142.981 108.751 142.863 108.751 142.746 108.708C142.629 108.665 142.543 108.585 142.49 108.468C142.426 108.351 142.421 108.228 142.474 108.1C142.527 107.961 142.613 107.871 142.73 107.828C143.327 107.561 143.898 107.332 144.442 107.14C144.997 106.937 145.519 106.777 146.01 106.66C147.322 106.329 148.394 106.276 149.226 106.5C149.471 106.564 149.642 106.713 149.738 106.948C149.834 107.183 149.813 107.444 149.674 107.732C149.535 108.02 149.37 108.319 149.178 108.628C149.167 108.649 149.151 108.676 149.13 108.708C149.109 108.74 149.087 108.777 149.066 108.82C149.311 108.767 149.674 108.66 150.154 108.5C150.634 108.34 151.295 108.105 152.138 107.796C152.255 107.753 152.373 107.764 152.49 107.828C152.618 107.881 152.703 107.972 152.746 108.1C152.799 108.217 152.799 108.34 152.746 108.468C152.693 108.585 152.597 108.671 152.458 108.724C151.967 108.895 151.519 109.049 151.114 109.188C150.709 109.327 150.346 109.444 150.026 109.54C149.599 109.668 149.274 109.759 149.05 109.812C148.826 109.855 148.655 109.876 148.538 109.876ZM154.472 109.556C154.418 109.556 154.376 109.551 154.344 109.54C154.173 109.497 154.05 109.433 153.976 109.348C153.912 109.252 153.869 109.177 153.848 109.124C153.773 108.889 153.8 108.649 153.928 108.404C154.056 108.148 154.221 107.881 154.424 107.604C154.488 107.519 154.546 107.428 154.6 107.332C154.664 107.225 154.717 107.135 154.76 107.06C154.77 107.049 154.786 107.028 154.808 106.996C154.744 107.017 154.664 107.049 154.568 107.092C154.482 107.135 154.381 107.199 154.264 107.284C154.072 107.401 153.869 107.556 153.656 107.748C153.442 107.929 153.224 108.121 153 108.324C152.946 108.367 152.888 108.415 152.824 108.468C152.77 108.521 152.717 108.575 152.664 108.628C152.568 108.713 152.456 108.756 152.328 108.756C152.189 108.745 152.077 108.687 151.992 108.58C151.896 108.484 151.853 108.372 151.864 108.244C151.874 108.105 151.928 107.993 152.024 107.908C152.077 107.855 152.136 107.801 152.2 107.748C152.253 107.695 152.306 107.647 152.36 107.604C152.701 107.295 153.037 107.012 153.368 106.756C153.698 106.489 154.024 106.287 154.344 106.148C154.664 106.009 154.973 105.983 155.272 106.068C155.453 106.111 155.581 106.185 155.656 106.292C155.741 106.388 155.789 106.473 155.8 106.548C155.896 106.783 155.874 107.033 155.736 107.3C155.597 107.556 155.421 107.839 155.208 108.148C155.186 108.169 155.16 108.207 155.128 108.26C155.106 108.303 155.08 108.345 155.048 108.388C155.208 108.324 155.416 108.244 155.672 108.148C155.928 108.052 156.237 107.935 156.6 107.796C156.738 107.753 156.866 107.764 156.984 107.828C157.101 107.881 157.181 107.972 157.224 108.1C157.277 108.217 157.272 108.34 157.208 108.468C157.154 108.585 157.069 108.671 156.952 108.724C156.61 108.841 156.301 108.948 156.024 109.044C155.746 109.14 155.512 109.225 155.32 109.3C155.213 109.343 155.117 109.38 155.032 109.412C154.957 109.433 154.888 109.455 154.824 109.476C154.749 109.497 154.685 109.519 154.632 109.54C154.578 109.551 154.525 109.556 154.472 109.556ZM160.398 110.036C160.27 110.036 160.163 109.999 160.078 109.924C159.907 109.785 159.859 109.609 159.934 109.396C159.934 109.385 159.971 109.257 160.046 109.012C160.131 108.767 160.227 108.489 160.334 108.18C160.387 107.999 160.435 107.844 160.478 107.716C160.521 107.577 160.558 107.455 160.59 107.348C160.302 107.455 159.95 107.588 159.534 107.748C159.118 107.897 158.681 108.057 158.222 108.228C157.774 108.399 157.337 108.564 156.91 108.724C156.793 108.767 156.675 108.761 156.558 108.708C156.43 108.644 156.339 108.548 156.286 108.42C156.243 108.303 156.254 108.185 156.318 108.068C156.371 107.94 156.462 107.849 156.59 107.796C157.07 107.625 157.566 107.449 158.078 107.268C158.59 107.076 159.065 106.9 159.502 106.74C159.939 106.569 160.297 106.431 160.574 106.324C160.851 106.217 160.99 106.164 160.99 106.164C161.043 106.153 161.097 106.148 161.15 106.148C161.203 106.137 161.251 106.143 161.294 106.164C161.443 106.185 161.55 106.271 161.614 106.42C161.667 106.505 161.689 106.617 161.678 106.756C161.678 106.884 161.651 107.071 161.598 107.316C161.566 107.455 161.523 107.609 161.47 107.78C161.427 107.94 161.369 108.127 161.294 108.34C161.283 108.383 161.273 108.42 161.262 108.452C161.251 108.484 161.241 108.521 161.23 108.564C161.657 108.329 162.179 108.084 162.798 107.828C162.915 107.775 163.033 107.775 163.15 107.828C163.278 107.871 163.363 107.951 163.406 108.068C163.47 108.185 163.475 108.308 163.422 108.436C163.369 108.564 163.283 108.655 163.166 108.708C162.686 108.921 162.254 109.124 161.87 109.316C161.497 109.508 161.198 109.663 160.974 109.78C160.75 109.897 160.638 109.956 160.638 109.956C160.574 110.009 160.494 110.036 160.398 110.036ZM168.585 109.876C168.51 109.876 168.441 109.865 168.377 109.844C168.174 109.801 168.03 109.679 167.945 109.476C167.881 109.295 167.897 109.092 167.993 108.868C168.099 108.644 168.238 108.393 168.409 108.116C168.473 108.02 168.531 107.924 168.585 107.828C168.649 107.721 168.702 107.625 168.745 107.54C168.766 107.508 168.782 107.481 168.793 107.46C168.803 107.428 168.814 107.401 168.825 107.38C168.505 107.327 168.131 107.316 167.705 107.348C167.289 107.369 166.819 107.449 166.297 107.588C165.838 107.705 165.342 107.86 164.809 108.052C164.286 108.233 163.731 108.452 163.145 108.708C163.027 108.751 162.91 108.751 162.793 108.708C162.675 108.665 162.59 108.585 162.537 108.468C162.473 108.351 162.467 108.228 162.521 108.1C162.574 107.961 162.659 107.871 162.777 107.828C163.374 107.561 163.945 107.332 164.489 107.14C165.043 106.937 165.566 106.777 166.057 106.66C167.369 106.329 168.441 106.276 169.273 106.5C169.518 106.564 169.689 106.713 169.785 106.948C169.881 107.183 169.859 107.444 169.721 107.732C169.582 108.02 169.417 108.319 169.225 108.628C169.214 108.649 169.198 108.676 169.177 108.708C169.155 108.74 169.134 108.777 169.113 108.82C169.358 108.767 169.721 108.66 170.201 108.5C170.681 108.34 171.342 108.105 172.185 107.796C172.302 107.753 172.419 107.764 172.537 107.828C172.665 107.881 172.75 107.972 172.793 108.1C172.846 108.217 172.846 108.34 172.793 108.468C172.739 108.585 172.643 108.671 172.505 108.724C172.014 108.895 171.566 109.049 171.161 109.188C170.755 109.327 170.393 109.444 170.073 109.54C169.646 109.668 169.321 109.759 169.097 109.812C168.873 109.855 168.702 109.876 168.585 109.876Z" fill="black" fill-opacity="0.8"/>
<path d="M17.3975 52.3094L100 4.6188L182.603 52.3094V147.691L100 195.381L17.3975 147.691V52.3094Z" stroke="#1173C4" stroke-width="8"/>
</svg>
