<svg width="150" height="101" viewBox="0 0 150 101" fill="none" xmlns="http://www.w3.org/2000/svg">
<rect y="0.0405884" width="150" height="100" fill="#041C2F"/>
<path fill-rule="evenodd" clip-rule="evenodd" d="M71.8358 52H33.0543H33.0541C24.4866 52 17.5413 58.9454 17.5413 67.5129V67.5141L17.5407 67.5129C17.1966 80.0737 15.333 81.197 12.6122 82.8368C12.4128 82.957 12.2088 83.08 12.0005 83.2104C17.1223 83.6372 20.321 82.8916 23.0514 79.3705C25.7521 81.6511 29.2426 83.0257 33.0541 83.0257H33.0543H71.8358C71.836 83.0257 71.8361 83.0257 71.8363 83.0257C80.4036 83.0255 87.3486 76.0802 87.3486 67.5129C87.3486 58.9455 80.4036 52.0002 71.8363 52C71.8361 52 71.836 52 71.8358 52Z" fill="#1173C4"/>
<path fill-rule="evenodd" clip-rule="evenodd" d="M32.6342 41.8819C31.9406 41.9767 31.2324 42.0257 30.5128 42.0257C21.9453 42.0257 15 35.0804 15 26.5129C15 17.9453 21.9453 11 30.5128 11C30.7656 11 31.017 11.006 31.2668 11.018H119.541C119.791 11.006 120.042 11 120.295 11C128.863 11 135.808 17.9453 135.808 26.5129V26.5141L135.809 26.5129C136.153 39.0737 138.016 40.197 140.737 41.8368C140.936 41.957 141.14 42.08 141.349 42.2104C136.227 42.6372 133.028 41.8916 130.298 38.3705C127.597 40.6511 124.107 42.0257 120.295 42.0257C120.12 42.0257 119.946 42.0228 119.773 42.0171L32.6342 41.8819Z" fill="#1173C4"/>
<path d="M29.598 27.6392V33H27.0263V20.6364H29.5256V25.3633H29.6342C29.8435 24.8159 30.1816 24.3873 30.6484 24.0774C31.1153 23.7635 31.7009 23.6065 32.4052 23.6065C33.0491 23.6065 33.6106 23.7474 34.0895 24.0291C34.5724 24.3068 34.9467 24.7073 35.2124 25.2305C35.482 25.7496 35.6148 26.3714 35.6108 27.0959V33H33.0391V27.5547C33.0431 26.9832 32.8982 26.5385 32.6044 26.2205C32.3146 25.9026 31.9081 25.7436 31.3849 25.7436C31.0348 25.7436 30.7249 25.8181 30.4553 25.967C30.1896 26.1159 29.9804 26.3332 29.8274 26.619C29.6785 26.9007 29.602 27.2408 29.598 27.6392ZM41.6905 33.1811C40.7367 33.1811 39.9157 32.9879 39.2275 32.6016C38.5433 32.2112 38.016 31.6598 37.6458 30.9474C37.2755 30.2311 37.0904 29.3839 37.0904 28.4059C37.0904 27.4521 37.2755 26.6149 37.6458 25.8945C38.016 25.1741 38.5372 24.6127 39.2094 24.2102C39.8855 23.8078 40.6783 23.6065 41.5879 23.6065C42.1996 23.6065 42.7691 23.7051 43.2964 23.9023C43.8276 24.0955 44.2904 24.3873 44.6848 24.7777C45.0833 25.1681 45.3932 25.6591 45.6145 26.2507C45.8359 26.8383 45.9466 27.5265 45.9466 28.3153V29.0217H38.1167V27.4279H43.5258C43.5258 27.0576 43.4453 26.7296 43.2843 26.4439C43.1233 26.1581 42.8999 25.9348 42.6142 25.7738C42.3325 25.6088 42.0044 25.5263 41.6302 25.5263C41.2398 25.5263 40.8937 25.6168 40.5918 25.7979C40.294 25.975 40.0606 26.2145 39.8915 26.5163C39.7225 26.8142 39.636 27.1462 39.6319 27.5124V29.0277C39.6319 29.4865 39.7165 29.8829 39.8855 30.217C40.0585 30.551 40.302 30.8086 40.616 30.9897C40.9299 31.1708 41.3022 31.2614 41.7328 31.2614C42.0185 31.2614 42.2801 31.2211 42.5176 31.1406C42.755 31.0601 42.9583 30.9394 43.1273 30.7784C43.2964 30.6174 43.4251 30.4202 43.5137 30.1868L45.8922 30.3438C45.7715 30.9152 45.524 31.4143 45.1497 31.8409C44.7794 32.2635 44.3005 32.5935 43.7129 32.831C43.1293 33.0644 42.4552 33.1811 41.6905 33.1811ZM48.7935 36.4773C48.4675 36.4773 48.1617 36.4511 47.8759 36.3988C47.5942 36.3505 47.3608 36.2881 47.1756 36.2116L47.7552 34.2919C48.057 34.3845 48.3287 34.4348 48.5702 34.4428C48.8157 34.4509 49.027 34.3945 49.204 34.2738C49.3851 34.1531 49.532 33.9478 49.6447 33.658L49.7957 33.2656L46.4693 23.7273H49.1738L51.0936 30.5369H51.1902L53.128 23.7273H55.8507L52.2466 34.0021C52.0736 34.5012 51.8381 34.9358 51.5403 35.3061C51.2465 35.6804 50.8743 35.9682 50.4235 36.1694C49.9727 36.3746 49.4294 36.4773 48.7935 36.4773ZM59.2108 31.3097L59.1444 31.9737C59.0921 32.505 58.9914 33.0342 58.8425 33.5614C58.6977 34.0927 58.5447 34.5736 58.3837 35.0043C58.2268 35.4349 58.1 35.773 58.0034 36.0185H56.3372C56.3976 35.781 56.4801 35.449 56.5847 35.0224C56.6894 34.5998 56.788 34.1249 56.8805 33.5977C56.9731 33.0704 57.0315 32.5331 57.0556 31.9858L57.0858 31.3097H59.2108ZM66.4049 33L63.8814 23.7273H66.4834L67.9202 29.9574H68.0047L69.5018 23.7273H72.0555L73.5768 29.9212H73.6552L75.0679 23.7273H77.6638L75.1464 33H72.4237L70.83 27.1683H70.7153L69.1215 33H66.4049ZM81.5098 33.1751C80.9182 33.1751 80.391 33.0724 79.9282 32.8672C79.4653 32.6579 79.0991 32.35 78.8294 31.9435C78.5638 31.533 78.431 31.0219 78.431 30.4102C78.431 29.895 78.5256 29.4624 78.7147 29.1122C78.9039 28.7621 79.1615 28.4804 79.4875 28.267C79.8135 28.0537 80.1837 27.8928 80.5983 27.7841C81.0168 27.6754 81.4555 27.599 81.9143 27.5547C82.4536 27.4983 82.8883 27.446 83.2183 27.3977C83.5483 27.3454 83.7878 27.2689 83.9367 27.1683C84.0856 27.0677 84.16 26.9188 84.16 26.7216V26.6854C84.16 26.303 84.0393 26.0072 83.7978 25.7979C83.5604 25.5887 83.2223 25.484 82.7836 25.484C82.3208 25.484 81.9525 25.5866 81.6789 25.7919C81.4052 25.9931 81.2241 26.2467 81.1355 26.5526L78.757 26.3594C78.8777 25.7959 79.1152 25.3089 79.4693 24.8984C79.8235 24.4839 80.2803 24.166 80.8397 23.9446C81.4032 23.7192 82.0552 23.6065 82.7957 23.6065C83.3108 23.6065 83.8039 23.6669 84.2747 23.7876C84.7496 23.9084 85.1702 24.0955 85.5365 24.3491C85.9067 24.6026 86.1985 24.9286 86.4118 25.3271C86.6251 25.7215 86.7318 26.1944 86.7318 26.7457V33H84.2929V31.7141H84.2204C84.0715 32.0039 83.8723 32.2595 83.6228 32.4808C83.3732 32.6982 83.0734 32.8692 82.7233 32.994C82.3731 33.1147 81.9686 33.1751 81.5098 33.1751ZM82.2463 31.4002C82.6246 31.4002 82.9587 31.3258 83.2485 31.1768C83.5382 31.0239 83.7656 30.8187 83.9306 30.5611C84.0956 30.3035 84.1782 30.0117 84.1782 29.6857V28.7017C84.0977 28.754 83.987 28.8023 83.8461 28.8466C83.7093 28.8868 83.5543 28.9251 83.3813 28.9613C83.2082 28.9935 83.0352 29.0237 82.8621 29.0518C82.689 29.076 82.5321 29.0981 82.3912 29.1183C82.0894 29.1625 81.8258 29.233 81.6004 29.3295C81.375 29.4261 81.1999 29.5569 81.0752 29.7219C80.9504 29.8829 80.888 30.0842 80.888 30.3256C80.888 30.6758 81.0148 30.9434 81.2684 31.1286C81.5259 31.3097 81.8519 31.4002 82.2463 31.4002ZM96.2722 26.3714L93.9178 26.5163C93.8775 26.3151 93.791 26.134 93.6582 25.973C93.5254 25.808 93.3503 25.6772 93.133 25.5806C92.9197 25.48 92.6641 25.4297 92.3663 25.4297C91.9678 25.4297 91.6318 25.5142 91.3581 25.6832C91.0844 25.8482 90.9476 26.0696 90.9476 26.3473C90.9476 26.5687 91.0361 26.7558 91.2132 26.9087C91.3903 27.0617 91.6942 27.1844 92.1248 27.277L93.8031 27.6151C94.7046 27.8002 95.3767 28.098 95.8194 28.5085C96.2621 28.919 96.4835 29.4583 96.4835 30.1264C96.4835 30.7341 96.3044 31.2674 95.9462 31.7262C95.592 32.185 95.105 32.5432 94.4853 32.8008C93.8695 33.0543 93.1591 33.1811 92.3542 33.1811C91.1267 33.1811 90.1487 32.9255 89.4203 32.4144C88.6958 31.8993 88.2712 31.199 88.1465 30.3136L90.6759 30.1808C90.7524 30.555 90.9375 30.8408 91.2313 31.038C91.5251 31.2312 91.9014 31.3278 92.3602 31.3278C92.811 31.3278 93.1732 31.2412 93.4469 31.0682C93.7246 30.8911 93.8655 30.6637 93.8695 30.386C93.8655 30.1526 93.7669 29.9614 93.5737 29.8125C93.3805 29.6596 93.0827 29.5429 92.6802 29.4624L91.0744 29.1424C90.1688 28.9613 89.4947 28.6474 89.052 28.2006C88.6133 27.7539 88.394 27.1844 88.394 26.4922C88.394 25.8965 88.555 25.3834 88.8769 24.9528C89.2029 24.5221 89.6597 24.1901 90.2473 23.9567C90.8389 23.7232 91.5312 23.6065 92.324 23.6065C93.4952 23.6065 94.4168 23.854 95.0889 24.3491C95.7651 24.8441 96.1595 25.5182 96.2722 26.3714ZM105.648 26.3714L103.294 26.5163C103.253 26.3151 103.167 26.134 103.034 25.973C102.901 25.808 102.726 25.6772 102.509 25.5806C102.296 25.48 102.04 25.4297 101.742 25.4297C101.344 25.4297 101.008 25.5142 100.734 25.6832C100.46 25.8482 100.324 26.0696 100.324 26.3473C100.324 26.5687 100.412 26.7558 100.589 26.9087C100.766 27.0617 101.07 27.1844 101.501 27.277L103.179 27.6151C104.08 27.8002 104.753 28.098 105.195 28.5085C105.638 28.919 105.859 29.4583 105.859 30.1264C105.859 30.7341 105.68 31.2674 105.322 31.7262C104.968 32.185 104.481 32.5432 103.861 32.8008C103.245 33.0543 102.535 33.1811 101.73 33.1811C100.503 33.1811 99.5246 32.9255 98.7962 32.4144C98.0717 31.8993 97.6471 31.199 97.5224 30.3136L100.052 30.1808C100.128 30.555 100.313 30.8408 100.607 31.038C100.901 31.2312 101.277 31.3278 101.736 31.3278C102.187 31.3278 102.549 31.2412 102.823 31.0682C103.1 30.8911 103.241 30.6637 103.245 30.386C103.241 30.1526 103.143 29.9614 102.95 29.8125C102.756 29.6596 102.459 29.5429 102.056 29.4624L100.45 29.1424C99.5447 28.9613 98.8706 28.6474 98.4279 28.2006C97.9892 27.7539 97.7699 27.1844 97.7699 26.4922C97.7699 25.8965 97.9309 25.3834 98.2528 24.9528C98.5788 24.5221 99.0356 24.1901 99.6232 23.9567C100.215 23.7232 100.907 23.6065 101.7 23.6065C102.871 23.6065 103.793 23.854 104.465 24.3491C105.141 24.8441 105.535 25.5182 105.648 26.3714ZM113.255 29.0518V23.7273H115.827V33H113.358V31.3157H113.261C113.052 31.859 112.704 32.2957 112.217 32.6257C111.734 32.9557 111.144 33.1207 110.448 33.1207C109.828 33.1207 109.283 32.9799 108.812 32.6982C108.341 32.4164 107.973 32.016 107.707 31.4968C107.446 30.9776 107.313 30.3558 107.309 29.6314V23.7273H109.881V29.1726C109.885 29.7199 110.031 30.1526 110.321 30.4705C110.611 30.7885 110.999 30.9474 111.486 30.9474C111.796 30.9474 112.086 30.877 112.356 30.7362C112.625 30.5913 112.843 30.378 113.008 30.0962C113.177 29.8145 113.259 29.4664 113.255 29.0518ZM117.714 36.4773V23.7273H120.249V25.2848H120.364C120.477 25.0353 120.64 24.7817 120.853 24.5241C121.071 24.2625 121.352 24.0452 121.698 23.8722C122.048 23.6951 122.483 23.6065 123.002 23.6065C123.678 23.6065 124.302 23.7836 124.874 24.1378C125.445 24.4879 125.902 25.0172 126.244 25.7255C126.586 26.4298 126.757 27.3132 126.757 28.3757C126.757 29.41 126.59 30.2834 126.256 30.9957C125.926 31.7041 125.475 32.2414 124.904 32.6076C124.336 32.9698 123.701 33.1509 122.996 33.1509C122.497 33.1509 122.073 33.0684 121.722 32.9034C121.376 32.7384 121.093 32.5311 120.871 32.2816C120.65 32.0281 120.481 31.7725 120.364 31.5149H120.286V36.4773H117.714ZM120.231 28.3636C120.231 28.915 120.308 29.396 120.461 29.8065C120.614 30.217 120.835 30.5369 121.125 30.7663C121.415 30.9917 121.767 31.1044 122.181 31.1044C122.6 31.1044 122.954 30.9897 123.244 30.7603C123.534 30.5269 123.753 30.2049 123.902 29.7944C124.055 29.3799 124.131 28.9029 124.131 28.3636C124.131 27.8284 124.057 27.3575 123.908 26.951C123.759 26.5445 123.54 26.2266 123.25 25.9972C122.96 25.7678 122.604 25.6531 122.181 25.6531C121.763 25.6531 121.409 25.7637 121.119 25.9851C120.833 26.2064 120.614 26.5204 120.461 26.9268C120.308 27.3333 120.231 27.8123 120.231 28.3636Z" fill="#FFFBFC"/>
<circle cx="52.5" cy="67.5" r="4.5" fill="#D9D9D9" fill-opacity="0.66"/>
<circle cx="65.5" cy="67.5" r="4.5" fill="#D9D9D9"/>
<circle cx="39.5" cy="67.5" r="4.5" fill="#D9D9D9" fill-opacity="0.33"/>
</svg>
