<svg width="200" height="200" viewBox="0 0 200 200" fill="none" xmlns="http://www.w3.org/2000/svg">
<path d="M100 0L186.603 50V150L100 200L13.3975 150V50L100 0Z" fill="#041C2F"/>
<path d="M17.3975 52.3094L100 4.6188L182.603 52.3094V147.691L100 195.381L17.3975 147.691V52.3094Z" stroke="#1173C4" stroke-width="8"/>
<path fill-rule="evenodd" clip-rule="evenodd" d="M99.1798 44H137.961H137.962C146.529 44 153.474 50.9454 153.474 59.5129V59.5141L153.475 59.5129C153.819 72.0737 155.683 73.197 158.403 74.8368C158.603 74.957 158.807 75.08 159.015 75.2104C153.893 75.6372 150.695 74.8916 147.964 71.3705C145.264 73.6511 141.773 75.0257 137.962 75.0257H137.961H99.1798C99.1796 75.0257 99.1795 75.0257 99.1793 75.0257C90.6121 75.0255 83.667 68.0802 83.667 59.5129C83.667 50.9455 90.6121 44.0002 99.1793 44C99.1795 44 99.1796 44 99.1798 44Z" fill="#1173C4"/>
<path fill-rule="evenodd" clip-rule="evenodd" d="M99.1798 120H137.961H137.962C146.529 120 153.474 126.945 153.474 135.513V135.514L153.475 135.513C153.819 148.074 155.683 149.197 158.403 150.837C158.603 150.957 158.807 151.08 159.015 151.21C153.893 151.637 150.695 150.892 147.964 147.371C145.264 149.651 141.773 151.026 137.962 151.026H137.961H99.1798C99.1796 151.026 99.1795 151.026 99.1793 151.026C90.6121 151.026 83.667 144.08 83.667 135.513C83.667 126.945 90.6121 120 99.1793 120C99.1795 120 99.1796 120 99.1798 120Z" fill="#1173C4"/>
<path fill-rule="evenodd" clip-rule="evenodd" d="M54.3494 82H120.279L120.279 82.0007C128.778 82.0802 135.644 88.9948 135.644 97.5129C135.644 106.08 128.698 113.026 120.131 113.026C119.46 113.026 118.8 112.983 118.152 112.901L54.3494 113.036V113.023C54.251 113.025 54.1523 113.026 54.0535 113.026C50.2419 113.026 46.7515 111.651 44.0508 109.371C41.3203 112.892 38.1217 113.637 32.9998 113.21C33.2082 113.08 33.4122 112.957 33.6116 112.837C36.3324 111.197 38.196 110.074 38.5401 97.5129L38.5407 97.5141V97.5129C38.5407 88.9453 45.486 82 54.0535 82C54.1523 82 54.251 82.0009 54.3494 82.0028V82Z" fill="#1173C4"/>
<path d="M60.0128 94.3938V96.3256H54.2898V94.3938H60.0128ZM55.5998 103.667V93.7237C55.5998 93.0516 55.7306 92.4942 55.9922 92.0514C56.2578 91.6087 56.62 91.2767 57.0788 91.0554C57.5376 90.834 58.0588 90.7233 58.6424 90.7233C59.0368 90.7233 59.397 90.7535 59.723 90.8139C60.053 90.8742 60.2985 90.9286 60.4595 90.9769L60.0007 92.9087C59.9001 92.8765 59.7753 92.8463 59.6264 92.8181C59.4815 92.79 59.3326 92.7759 59.1797 92.7759C58.8014 92.7759 58.5378 92.8644 58.3888 93.0415C58.2399 93.2146 58.1655 93.4581 58.1655 93.772V103.667H55.5998ZM61.4139 103.667V94.3938H63.9071V96.0117H64.0037C64.1728 95.4362 64.4565 95.0015 64.8549 94.7077C65.2534 94.4099 65.7122 94.261 66.2314 94.261C66.3602 94.261 66.499 94.269 66.6479 94.2851C66.7968 94.3012 66.9276 94.3233 67.0403 94.3515V96.6335C66.9196 96.5973 66.7526 96.5651 66.5393 96.5369C66.3259 96.5087 66.1308 96.4946 65.9537 96.4946C65.5754 96.4946 65.2373 96.5771 64.9395 96.7421C64.6457 96.9031 64.4122 97.1285 64.2392 97.4183C64.0701 97.7081 63.9856 98.0421 63.9856 98.4204V103.667H61.4139ZM68.2 103.667V94.3938H70.7717V103.667H68.2ZM69.4919 93.1985C69.1095 93.1985 68.7815 93.0717 68.5078 92.8181C68.2382 92.5606 68.1034 92.2527 68.1034 91.8945C68.1034 91.5403 68.2382 91.2365 68.5078 90.9829C68.7815 90.7253 69.1095 90.5965 69.4919 90.5965C69.8742 90.5965 70.2002 90.7253 70.4698 90.9829C70.7435 91.2365 70.8803 91.5403 70.8803 91.8945C70.8803 92.2527 70.7435 92.5606 70.4698 92.8181C70.2002 93.0717 69.8742 93.1985 69.4919 93.1985ZM76.8876 103.848C75.9338 103.848 75.1128 103.654 74.4246 103.268C73.7404 102.878 73.2132 102.326 72.8429 101.614C72.4726 100.898 72.2875 100.05 72.2875 99.0724C72.2875 98.1186 72.4726 97.2814 72.8429 96.561C73.2132 95.8406 73.7343 95.2792 74.4065 94.8767C75.0826 94.4743 75.8754 94.273 76.785 94.273C77.3968 94.273 77.9662 94.3716 78.4935 94.5688C79.0247 94.762 79.4875 95.0538 79.882 95.4442C80.2804 95.8346 80.5903 96.3256 80.8116 96.9172C81.033 97.5048 81.1437 98.193 81.1437 98.9818V99.6882H73.3138V98.0944H78.7229C78.7229 97.7242 78.6424 97.3961 78.4814 97.1104C78.3204 96.8246 78.097 96.6013 77.8113 96.4403C77.5296 96.2753 77.2016 96.1928 76.8273 96.1928C76.4369 96.1928 76.0908 96.2833 75.7889 96.4644C75.4911 96.6415 75.2577 96.881 75.0886 97.1828C74.9196 97.4807 74.8331 97.8127 74.829 98.1789V99.6942C74.829 100.153 74.9136 100.549 75.0826 100.883C75.2557 101.218 75.4991 101.475 75.8131 101.656C76.127 101.837 76.4993 101.928 76.9299 101.928C77.2156 101.928 77.4772 101.888 77.7147 101.807C77.9522 101.727 78.1554 101.606 78.3244 101.445C78.4935 101.284 78.6223 101.087 78.7108 100.853L81.0893 101.01C80.9686 101.582 80.7211 102.081 80.3468 102.507C79.9765 102.93 79.4976 103.26 78.91 103.497C78.3264 103.731 77.6523 103.848 76.8876 103.848ZM85.2237 98.3057V103.667H82.6519V94.3938H85.1029V96.0298H85.2116C85.4169 95.4905 85.761 95.0639 86.2439 94.75C86.7269 94.432 87.3125 94.273 88.0007 94.273C88.6446 94.273 89.206 94.4139 89.685 94.6956C90.1639 94.9773 90.5362 95.3798 90.8018 95.903C91.0674 96.4222 91.2002 97.042 91.2002 97.7624V103.667H88.6285V98.2212C88.6325 97.6537 88.4876 97.211 88.1938 96.8931C87.9 96.5711 87.4956 96.4101 86.9804 96.4101C86.6343 96.4101 86.3284 96.4846 86.0628 96.6335C85.8012 96.7824 85.596 96.9997 85.447 97.2855C85.3022 97.5672 85.2277 97.9073 85.2237 98.3057ZM96.474 103.817C95.7697 103.817 95.1318 103.636 94.5603 103.274C93.9929 102.908 93.5421 102.371 93.2081 101.662C92.878 100.95 92.713 100.077 92.713 99.0422C92.713 97.9797 92.8841 97.0963 93.2262 96.392C93.5683 95.6837 94.023 95.1544 94.5905 94.8043C95.162 94.4501 95.7878 94.273 96.468 94.273C96.9872 94.273 97.4198 94.3616 97.7659 94.5387C98.1161 94.7117 98.3978 94.9291 98.6111 95.1907C98.8284 95.4482 98.9935 95.7018 99.1061 95.9513H99.1846V91.3029H101.75V103.667H99.2148V102.181H99.1061C98.9854 102.439 98.8144 102.695 98.593 102.948C98.3757 103.198 98.0919 103.405 97.7418 103.57C97.3957 103.735 96.9731 103.817 96.474 103.817ZM97.289 101.771C97.7036 101.771 98.0537 101.658 98.3395 101.433C98.6292 101.203 98.8506 100.883 99.0035 100.473C99.1605 100.062 99.239 99.5815 99.239 99.0301C99.239 98.4788 99.1625 97.9998 99.0096 97.5934C98.8566 97.1869 98.6353 96.8729 98.3455 96.6516C98.0557 96.4302 97.7036 96.3196 97.289 96.3196C96.8664 96.3196 96.5103 96.4343 96.2205 96.6637C95.9307 96.8931 95.7114 97.211 95.5625 97.6175C95.4136 98.024 95.3391 98.4949 95.3391 99.0301C95.3391 99.5694 95.4136 100.046 95.5625 100.461C95.7154 100.871 95.9347 101.193 96.2205 101.427C96.5103 101.656 96.8664 101.771 97.289 101.771ZM106.266 91.3029V103.667H103.695V91.3029H106.266ZM109.744 107.144C109.418 107.144 109.112 107.118 108.827 107.065C108.545 107.017 108.312 106.955 108.126 106.878L108.706 104.958C109.008 105.051 109.279 105.101 109.521 105.109C109.766 105.117 109.978 105.061 110.155 104.94C110.336 104.82 110.483 104.614 110.596 104.325L110.746 103.932L107.42 94.3938H110.125L112.044 101.203H112.141L114.079 94.3938H116.801L113.197 104.669C113.024 105.168 112.789 105.602 112.491 105.973C112.197 106.347 111.825 106.635 111.374 106.836C110.924 107.041 110.38 107.144 109.744 107.144ZM117.948 103.667V94.3938H120.441V96.0117H120.537C120.706 95.4362 120.99 95.0015 121.389 94.7077C121.787 94.4099 122.246 94.261 122.765 94.261C122.894 94.261 123.033 94.269 123.182 94.2851C123.33 94.3012 123.461 94.3233 123.574 94.3515V96.6335C123.453 96.5973 123.286 96.5651 123.073 96.5369C122.86 96.5087 122.664 96.4946 122.487 96.4946C122.109 96.4946 121.771 96.5771 121.473 96.7421C121.179 96.9031 120.946 97.1285 120.773 97.4183C120.604 97.7081 120.519 98.0421 120.519 98.4204V103.667H117.948Z" fill="#FFFBFC"/>
</svg>
