<svg width="150" height="101" viewBox="0 0 150 101" fill="none" xmlns="http://www.w3.org/2000/svg">
<rect y="0.0405884" width="150" height="100" fill="#38B873"/>
<path d="M14.409 71.7827L8.04906 65.641L28.1418 44.8344L34.5017 50.9761L14.409 71.7827Z" fill="#FFFBFC"/>
<path d="M20.0489 65.331L14.0873 71.4717L29.6145 86.4661L35.5598 80.3096L20.0489 65.331Z" fill="#FFFBFC"/>
<path d="M150.001 68.4725L67.9601 65.2283" stroke="url(#paint0_linear_198_5663)" stroke-width="10"/>
<path d="M69.6165 65.45C64.1564 64.9305 58.9514 62.5173 54.9308 58.5987C50.4296 54.2116 47.7778 48.2932 47.5534 42.1331C47.3289 35.973 49.5499 30.0704 53.7325 25.7117C57.915 21.3529 63.72 18.8911 69.8827 18.8628C76.0453 18.8346 82.0661 21.242 86.633 25.5606C91.1999 29.8792 93.9428 35.759 94.2641 41.9187C94.5854 48.0783 92.4589 54.0187 88.3481 58.4453C84.2373 62.8719 78.4753 65.426 72.3177 65.551L40.9585 65.4762" stroke="#FFFBFC" stroke-width="10"/>
<path d="M47.5525 42.1324C47.7769 48.2925 50.4287 54.2109 54.9299 58.598C58.9505 62.5166 64.1556 64.9298 69.6156 65.4493" stroke="url(#paint1_linear_198_5663)" stroke-width="10"/>
<path d="M94.2093 41.9189C94.5306 48.0785 92.4041 54.0189 88.2933 58.4455C84.1825 62.8721 78.4206 65.4262 72.263 65.5513L18.5599 65.5515" stroke="#FFFBFC" stroke-width="10"/>
<defs>
<linearGradient id="paint0_linear_198_5663" x1="65.5398" y1="65.2314" x2="98.5" y2="63.0406" gradientUnits="userSpaceOnUse">
<stop offset="0.315" stop-color="#ADADAD"/>
<stop offset="0.77" stop-color="#FFFBFC"/>
</linearGradient>
<linearGradient id="paint1_linear_198_5663" x1="62.3522" y1="67.6454" x2="52.6087" y2="58.2362" gradientUnits="userSpaceOnUse">
<stop stop-color="#9C9C9C"/>
<stop offset="1" stop-color="#FFFBFC"/>
</linearGradient>
</defs>
</svg>
