<svg width="200" height="200" viewBox="0 0 200 200" fill="none" xmlns="http://www.w3.org/2000/svg">
<path d="M100 0L186.603 50V150L100 200L13.3975 150V50L100 0Z" fill="#38B873"/>
<path d="M43.409 109.742L37.0491 103.6L57.1418 82.7937L63.5017 88.9354L43.409 109.742Z" fill="#FFFBFC"/>
<path d="M49.0489 103.29L43.0873 109.431L58.6145 124.425L64.5598 118.269L49.0489 103.29Z" fill="#FFFBFC"/>
<path d="M180.838 104.082L96.9324 103.386" stroke="url(#paint0_linear_198_5657)" stroke-width="10"/>
<path d="M98.6165 103.409C93.1564 102.89 87.9514 100.477 83.9308 96.5581C79.4296 92.171 76.7778 86.2526 76.5534 80.0925C76.3289 73.9324 78.5499 68.0298 82.7325 63.671C86.915 59.3123 92.72 56.8505 98.8827 56.8222C105.045 56.7939 111.066 59.2014 115.633 63.52C120.2 67.8386 122.943 73.7184 123.264 79.878C123.585 86.0377 121.459 91.9781 117.348 96.4047C113.237 100.831 107.475 103.385 101.318 103.51L69.9585 103.436" stroke="#FFFBFC" stroke-width="10"/>
<path d="M76.5525 80.0918C76.7769 86.2519 79.4287 92.1703 83.9299 96.5574C87.9505 100.476 93.1556 102.889 98.6156 103.409" stroke="url(#paint1_linear_198_5657)" stroke-width="10"/>
<path d="M123.209 79.8783C123.531 86.0379 121.404 91.9783 117.293 96.4049C113.183 100.831 107.421 103.386 101.263 103.511L47.5599 103.511" stroke="#FFFBFC" stroke-width="10"/>
<path d="M59.449 148.477V135.727H61.9845V137.285H62.0992C62.2119 137.035 62.3749 136.782 62.5882 136.524C62.8055 136.263 63.0873 136.045 63.4334 135.872C63.7835 135.695 64.2182 135.607 64.7373 135.607C65.4135 135.607 66.0373 135.784 66.6088 136.138C67.1803 136.488 67.6371 137.017 67.9792 137.725C68.3213 138.43 68.4923 139.313 68.4923 140.376C68.4923 141.41 68.3253 142.283 67.9913 142.996C67.6612 143.704 67.2105 144.241 66.639 144.608C66.0715 144.97 65.4356 145.151 64.7313 145.151C64.2323 145.151 63.8077 145.068 63.4575 144.903C63.1114 144.738 62.8277 144.531 62.6063 144.282C62.385 144.028 62.2159 143.772 62.0992 143.515H62.0207V148.477H59.449ZM61.9664 140.364C61.9664 140.915 62.0429 141.396 62.1958 141.806C62.3487 142.217 62.5701 142.537 62.8599 142.766C63.1496 142.992 63.5018 143.104 63.9163 143.104C64.3349 143.104 64.689 142.99 64.9788 142.76C65.2686 142.527 65.4879 142.205 65.6368 141.794C65.7898 141.38 65.8663 140.903 65.8663 140.364C65.8663 139.828 65.7918 139.357 65.6429 138.951C65.494 138.545 65.2746 138.227 64.9849 137.997C64.6951 137.768 64.3389 137.653 63.9163 137.653C63.4978 137.653 63.1436 137.764 62.8538 137.985C62.5681 138.206 62.3487 138.52 62.1958 138.927C62.0429 139.333 61.9664 139.812 61.9664 140.364ZM72.6085 139.639V145H70.0368V132.636H72.5361V137.363H72.6448C72.854 136.816 73.1921 136.387 73.659 136.077C74.1258 135.763 74.7114 135.607 75.4157 135.607C76.0597 135.607 76.6211 135.747 77.1 136.029C77.583 136.307 77.9573 136.707 78.2229 137.23C78.4925 137.75 78.6253 138.371 78.6213 139.096V145H76.0496V139.555C76.0536 138.983 75.9087 138.538 75.6149 138.221C75.3252 137.903 74.9187 137.744 74.3955 137.744C74.0453 137.744 73.7354 137.818 73.4658 137.967C73.2002 138.116 72.9909 138.333 72.8379 138.619C72.689 138.901 72.6126 139.241 72.6085 139.639ZM80.4752 145V135.727H83.0469V145H80.4752ZM81.7671 134.532C81.3848 134.532 81.0568 134.405 80.7831 134.152C80.5134 133.894 80.3786 133.586 80.3786 133.228C80.3786 132.874 80.5134 132.57 80.7831 132.316C81.0568 132.059 81.3848 131.93 81.7671 131.93C82.1494 131.93 82.4754 132.059 82.7451 132.316C83.0188 132.57 83.1556 132.874 83.1556 133.228C83.1556 133.586 83.0188 133.894 82.7451 134.152C82.4754 134.405 82.1494 134.532 81.7671 134.532ZM87.5088 139.639V145H84.937V135.727H87.388V137.363H87.4967C87.702 136.824 88.0461 136.397 88.529 136.083C89.012 135.766 89.5976 135.607 90.2858 135.607C90.9297 135.607 91.4911 135.747 91.9701 136.029C92.449 136.311 92.8213 136.713 93.0869 137.237C93.3525 137.756 93.4853 138.375 93.4853 139.096V145H90.9136V139.555C90.9176 138.987 90.7727 138.545 90.4789 138.227C90.1851 137.905 89.7807 137.744 89.2655 137.744C88.9194 137.744 88.6135 137.818 88.3479 137.967C88.0863 138.116 87.881 138.333 87.7321 138.619C87.5873 138.901 87.5128 139.241 87.5088 139.639ZM100.274 135.727V137.659H94.6902V135.727H100.274ZM95.958 133.506H98.5297V142.151C98.5297 142.388 98.566 142.573 98.6384 142.706C98.7108 142.835 98.8115 142.925 98.9402 142.978C99.0731 143.03 99.226 143.056 99.3991 143.056C99.5198 143.056 99.6405 143.046 99.7613 143.026C99.882 143.002 99.9746 142.984 100.039 142.972L100.443 144.885C100.315 144.926 100.134 144.972 99.9001 145.024C99.6667 145.08 99.383 145.115 99.0489 145.127C98.4291 145.151 97.8858 145.068 97.4189 144.879C96.9561 144.69 96.5959 144.396 96.3383 143.998C96.0808 143.599 95.954 143.096 95.958 142.489V133.506ZM105.906 145.181C104.952 145.181 104.131 144.988 103.443 144.602C102.759 144.211 102.231 143.66 101.861 142.947C101.491 142.231 101.306 141.384 101.306 140.406C101.306 139.452 101.491 138.615 101.861 137.895C102.231 137.174 102.753 136.613 103.425 136.21C104.101 135.808 104.894 135.607 105.803 135.607C106.415 135.607 106.984 135.705 107.512 135.902C108.043 136.096 108.506 136.387 108.9 136.778C109.299 137.168 109.609 137.659 109.83 138.251C110.051 138.838 110.162 139.527 110.162 140.315V141.022H102.332V139.428H107.741C107.741 139.058 107.661 138.73 107.5 138.444C107.339 138.158 107.115 137.935 106.83 137.774C106.548 137.609 106.22 137.526 105.846 137.526C105.455 137.526 105.109 137.617 104.807 137.798C104.509 137.975 104.276 138.214 104.107 138.516C103.938 138.814 103.851 139.146 103.847 139.512V141.028C103.847 141.487 103.932 141.883 104.101 142.217C104.274 142.551 104.517 142.809 104.831 142.99C105.145 143.171 105.518 143.261 105.948 143.261C106.234 143.261 106.496 143.221 106.733 143.141C106.97 143.06 107.174 142.939 107.343 142.778C107.512 142.617 107.641 142.42 107.729 142.187L110.108 142.344C109.987 142.915 109.739 143.414 109.365 143.841C108.995 144.263 108.516 144.594 107.928 144.831C107.345 145.064 106.671 145.181 105.906 145.181ZM111.67 145V135.727H114.163V137.345H114.26C114.429 136.77 114.713 136.335 115.111 136.041C115.51 135.743 115.968 135.594 116.488 135.594C116.616 135.594 116.755 135.603 116.904 135.619C117.053 135.635 117.184 135.657 117.297 135.685V137.967C117.176 137.931 117.009 137.899 116.796 137.87C116.582 137.842 116.387 137.828 116.21 137.828C115.832 137.828 115.494 137.911 115.196 138.076C114.902 138.237 114.669 138.462 114.495 138.752C114.326 139.042 114.242 139.376 114.242 139.754V145H111.67ZM127.383 135.727L124.142 145H121.244L118.002 135.727H120.719L122.644 142.362H122.741L124.661 135.727H127.383ZM130.925 145.175C130.333 145.175 129.806 145.072 129.343 144.867C128.88 144.658 128.514 144.35 128.244 143.944C127.979 143.533 127.846 143.022 127.846 142.41C127.846 141.895 127.94 141.462 128.129 141.112C128.319 140.762 128.576 140.48 128.902 140.267C129.228 140.054 129.598 139.893 130.013 139.784C130.432 139.675 130.87 139.599 131.329 139.555C131.868 139.498 132.303 139.446 132.633 139.398C132.963 139.345 133.203 139.269 133.351 139.168C133.5 139.068 133.575 138.919 133.575 138.722V138.685C133.575 138.303 133.454 138.007 133.213 137.798C132.975 137.589 132.637 137.484 132.198 137.484C131.736 137.484 131.367 137.587 131.094 137.792C130.82 137.993 130.639 138.247 130.55 138.553L128.172 138.359C128.292 137.796 128.53 137.309 128.884 136.898C129.238 136.484 129.695 136.166 130.254 135.945C130.818 135.719 131.47 135.607 132.21 135.607C132.726 135.607 133.219 135.667 133.689 135.788C134.164 135.908 134.585 136.096 134.951 136.349C135.321 136.603 135.613 136.929 135.827 137.327C136.04 137.721 136.147 138.194 136.147 138.746V145H133.708V143.714H133.635C133.486 144.004 133.287 144.259 133.038 144.481C132.788 144.698 132.488 144.869 132.138 144.994C131.788 145.115 131.383 145.175 130.925 145.175ZM131.661 143.4C132.039 143.4 132.373 143.326 132.663 143.177C132.953 143.024 133.18 142.819 133.345 142.561C133.51 142.304 133.593 142.012 133.593 141.686V140.702C133.512 140.754 133.402 140.802 133.261 140.847C133.124 140.887 132.969 140.925 132.796 140.961C132.623 140.993 132.45 141.024 132.277 141.052C132.104 141.076 131.947 141.098 131.806 141.118C131.504 141.163 131.241 141.233 131.015 141.33C130.79 141.426 130.615 141.557 130.49 141.722C130.365 141.883 130.303 142.084 130.303 142.326C130.303 142.676 130.43 142.943 130.683 143.129C130.941 143.31 131.267 143.4 131.661 143.4ZM140.543 132.636V145H137.972V132.636H140.543Z" fill="#FFFBFC"/>
<path d="M17.3975 52.3094L100 4.6188L182.603 52.3094V147.691L100 195.381L17.3975 147.691V52.3094Z" stroke="#356F2A" stroke-width="8"/>
<defs>
<linearGradient id="paint0_linear_198_5657" x1="94.5107" y1="105.242" x2="129.907" y2="130.877" gradientUnits="userSpaceOnUse">
<stop offset="0.135" stop-color="#ADADAD"/>
<stop offset="0.705" stop-color="#FFFBFC"/>
</linearGradient>
<linearGradient id="paint1_linear_198_5657" x1="91.3522" y1="105.605" x2="81.6087" y2="96.1956" gradientUnits="userSpaceOnUse">
<stop stop-color="#9C9C9C"/>
<stop offset="1" stop-color="#FFFBFC"/>
</linearGradient>
</defs>
</svg>
