<svg width="200" height="200" viewBox="0 0 200 200" fill="none" xmlns="http://www.w3.org/2000/svg">
<path d="M100 0L186.603 50V150L100 200L13.3975 150V50L100 0Z" fill="#041C2F"/>
<path d="M100 0L186.603 50V150L100 200L13.3975 150V50L100 0Z" fill="#041C2F"/>
<path d="M55.9209 145.181C54.9711 145.181 54.1541 144.98 53.4699 144.577C52.7897 144.171 52.2665 143.607 51.9003 142.887C51.5381 142.167 51.357 141.338 51.357 140.4C51.357 139.45 51.5401 138.617 51.9063 137.901C52.2766 137.18 52.8018 136.619 53.482 136.216C54.1621 135.81 54.9711 135.607 55.9088 135.607C56.7178 135.607 57.4261 135.753 58.0338 136.047C58.6415 136.341 59.1225 136.754 59.4766 137.285C59.8308 137.816 60.026 138.44 60.0622 139.156H57.6354C57.567 138.693 57.3859 138.321 57.0921 138.039C56.8023 137.754 56.422 137.611 55.9511 137.611C55.5526 137.611 55.2045 137.719 54.9067 137.937C54.6129 138.15 54.3835 138.462 54.2185 138.873C54.0535 139.283 53.971 139.78 53.971 140.364C53.971 140.955 54.0515 141.458 54.2124 141.873C54.3774 142.287 54.6089 142.603 54.9067 142.821C55.2045 143.038 55.5526 143.147 55.9511 143.147C56.2449 143.147 56.5085 143.086 56.7419 142.966C56.9794 142.845 57.1746 142.67 57.3275 142.44C57.4845 142.207 57.5871 141.927 57.6354 141.601H60.0622C60.022 142.31 59.8288 142.933 59.4827 143.473C59.1406 144.008 58.6677 144.426 58.064 144.728C57.4603 145.03 56.7459 145.181 55.9209 145.181ZM64.1105 139.639V145H61.5388V132.636H64.0381V137.363H64.1468C64.356 136.816 64.6941 136.387 65.161 136.077C65.6278 135.763 66.2134 135.607 66.9177 135.607C67.5616 135.607 68.1231 135.747 68.602 136.029C69.085 136.307 69.4593 136.707 69.7249 137.23C69.9945 137.75 70.1273 138.371 70.1233 139.096V145H67.5516V139.555C67.5556 138.983 67.4107 138.538 67.1169 138.221C66.8271 137.903 66.4207 137.744 65.8975 137.744C65.5473 137.744 65.2374 137.818 64.9678 137.967C64.7021 138.116 64.4929 138.333 64.3399 138.619C64.191 138.901 64.1146 139.241 64.1105 139.639ZM76.203 145.181C75.2492 145.181 74.4282 144.988 73.74 144.602C73.0558 144.211 72.5286 143.66 72.1583 142.947C71.788 142.231 71.6029 141.384 71.6029 140.406C71.6029 139.452 71.788 138.615 72.1583 137.895C72.5286 137.174 73.0498 136.613 73.7219 136.21C74.398 135.808 75.1909 135.607 76.1004 135.607C76.7122 135.607 77.2816 135.705 77.8089 135.902C78.3401 136.096 78.803 136.387 79.1974 136.778C79.5958 137.168 79.9057 137.659 80.1271 138.251C80.3484 138.838 80.4591 139.527 80.4591 140.315V141.022H72.6292V139.428H78.0383C78.0383 139.058 77.9578 138.73 77.7968 138.444C77.6358 138.158 77.4124 137.935 77.1267 137.774C76.845 137.609 76.517 137.526 76.1427 137.526C75.7523 137.526 75.4062 137.617 75.1043 137.798C74.8065 137.975 74.5731 138.214 74.404 138.516C74.235 138.814 74.1485 139.146 74.1445 139.512V141.028C74.1445 141.487 74.229 141.883 74.398 142.217C74.5711 142.551 74.8146 142.809 75.1285 142.99C75.4424 143.171 75.8147 143.261 76.2453 143.261C76.5311 143.261 76.7927 143.221 77.0301 143.141C77.2676 143.06 77.4708 142.939 77.6398 142.778C77.8089 142.617 77.9377 142.42 78.0262 142.187L80.4048 142.344C80.284 142.915 80.0365 143.414 79.6622 143.841C79.2919 144.263 78.813 144.594 78.2254 144.831C77.6418 145.064 76.9677 145.181 76.203 145.181ZM86.157 145.181C85.2072 145.181 84.3902 144.98 83.706 144.577C83.0258 144.171 82.5026 143.607 82.1364 142.887C81.7742 142.167 81.5931 141.338 81.5931 140.4C81.5931 139.45 81.7762 138.617 82.1424 137.901C82.5127 137.18 83.0379 136.619 83.7181 136.216C84.3982 135.81 85.2072 135.607 86.1449 135.607C86.9539 135.607 87.6622 135.753 88.2699 136.047C88.8776 136.341 89.3586 136.754 89.7127 137.285C90.0669 137.816 90.2621 138.44 90.2983 139.156H87.8715C87.803 138.693 87.6219 138.321 87.3281 138.039C87.0384 137.754 86.658 137.611 86.1872 137.611C85.7887 137.611 85.4406 137.719 85.1428 137.937C84.849 138.15 84.6196 138.462 84.4546 138.873C84.2896 139.283 84.2071 139.78 84.2071 140.364C84.2071 140.955 84.2875 141.458 84.4485 141.873C84.6135 142.287 84.845 142.603 85.1428 142.821C85.4406 143.038 85.7887 143.147 86.1872 143.147C86.481 143.147 86.7446 143.086 86.978 142.966C87.2155 142.845 87.4106 142.67 87.5636 142.44C87.7205 142.207 87.8232 141.927 87.8715 141.601H90.2983C90.2581 142.31 90.0649 142.933 89.7188 143.473C89.3767 144.008 88.9038 144.426 88.3001 144.728C87.6964 145.03 86.982 145.181 86.157 145.181ZM94.1051 142.332L94.1112 139.247H94.4855L97.4556 135.727H100.408L96.4173 140.388H95.8076L94.1051 142.332ZM91.7749 145V132.636H94.3466V145H91.7749ZM97.5703 145L94.8417 140.961L96.5561 139.144L100.583 145H97.5703ZM103.329 145L100.805 135.727H103.407L104.844 141.957H104.928L106.426 135.727H108.979L110.5 141.921H110.579L111.992 135.727H114.587L112.07 145H109.347L107.754 139.168H107.639L106.045 145H103.329ZM115.789 145V135.727H118.283V137.345H118.379C118.548 136.77 118.832 136.335 119.23 136.041C119.629 135.743 120.088 135.594 120.607 135.594C120.736 135.594 120.874 135.603 121.023 135.619C121.172 135.635 121.303 135.657 121.416 135.685V137.967C121.295 137.931 121.128 137.899 120.915 137.87C120.701 137.842 120.506 137.828 120.329 137.828C119.951 137.828 119.613 137.911 119.315 138.076C119.021 138.237 118.788 138.462 118.615 138.752C118.446 139.042 118.361 139.376 118.361 139.754V145H115.789ZM122.575 145V135.727H125.147V145H122.575ZM123.867 134.532C123.485 134.532 123.157 134.405 122.883 134.152C122.614 133.894 122.479 133.586 122.479 133.228C122.479 132.874 122.614 132.57 122.883 132.316C123.157 132.059 123.485 131.93 123.867 131.93C124.25 131.93 124.576 132.059 124.845 132.316C125.119 132.57 125.256 132.874 125.256 133.228C125.256 133.586 125.119 133.894 124.845 134.152C124.576 134.405 124.25 134.532 123.867 134.532ZM131.969 135.727V137.659H126.385V135.727H131.969ZM127.653 133.506H130.225V142.151C130.225 142.388 130.261 142.573 130.333 142.706C130.406 142.835 130.506 142.925 130.635 142.978C130.768 143.03 130.921 143.056 131.094 143.056C131.215 143.056 131.336 143.046 131.456 143.026C131.577 143.002 131.67 142.984 131.734 142.972L132.138 144.885C132.01 144.926 131.829 144.972 131.595 145.024C131.362 145.08 131.078 145.115 130.744 145.127C130.124 145.151 129.581 145.068 129.114 144.879C128.651 144.69 128.291 144.396 128.033 143.998C127.776 143.599 127.649 143.096 127.653 142.489V133.506ZM137.601 145.181C136.647 145.181 135.826 144.988 135.138 144.602C134.454 144.211 133.926 143.66 133.556 142.947C133.186 142.231 133.001 141.384 133.001 140.406C133.001 139.452 133.186 138.615 133.556 137.895C133.926 137.174 134.448 136.613 135.12 136.21C135.796 135.808 136.589 135.607 137.498 135.607C138.11 135.607 138.68 135.705 139.207 135.902C139.738 136.096 140.201 136.387 140.595 136.778C140.994 137.168 141.304 137.659 141.525 138.251C141.746 138.838 141.857 139.527 141.857 140.315V141.022H134.027V139.428H139.436C139.436 139.058 139.356 138.73 139.195 138.444C139.034 138.158 138.81 137.935 138.525 137.774C138.243 137.609 137.915 137.526 137.541 137.526C137.15 137.526 136.804 137.617 136.502 137.798C136.204 137.975 135.971 138.214 135.802 138.516C135.633 138.814 135.546 139.146 135.542 139.512V141.028C135.542 141.487 135.627 141.883 135.796 142.217C135.969 142.551 136.212 142.809 136.526 142.99C136.84 143.171 137.213 143.261 137.643 143.261C137.929 143.261 138.191 143.221 138.428 143.141C138.665 143.06 138.869 142.939 139.038 142.778C139.207 142.617 139.336 142.42 139.424 142.187L141.803 142.344C141.682 142.915 141.434 143.414 141.06 143.841C140.69 144.263 140.211 144.594 139.623 144.831C139.04 145.064 138.366 145.181 137.601 145.181ZM143.365 145V135.727H145.858V137.345H145.955C146.124 136.77 146.408 136.335 146.806 136.041C147.205 135.743 147.664 135.594 148.183 135.594C148.312 135.594 148.45 135.603 148.599 135.619C148.748 135.635 148.879 135.657 148.992 135.685V137.967C148.871 137.931 148.704 137.899 148.491 137.87C148.277 137.842 148.082 137.828 147.905 137.828C147.527 137.828 147.189 137.911 146.891 138.076C146.597 138.237 146.364 138.462 146.191 138.752C146.021 139.042 145.937 139.376 145.937 139.754V145H143.365Z" fill="#FFFBFC"/>
<path d="M74.9528 57.2879H184V123.216H31.001L74.9528 57.2879Z" fill="#1173C4"/>
<path d="M74.9528 57.2879H184V123.216H31.001L74.9528 57.2879Z" stroke="#041C2F"/>
<rect width="120.852" height="7.52383" transform="matrix(1 0 -0.5547 0.83205 65.0791 84.0894)" fill="#EDEBDB"/>
<rect width="120.852" height="7.52383" transform="matrix(1 0 -0.5547 0.83205 65.0791 84.0894)" stroke="#041C2F"/>
<rect width="3.5268" height="4.46727" transform="matrix(1 0 -0.5547 0.83205 45.125 114.021)" fill="#EDEBDB"/>
<rect width="3.5268" height="4.46727" transform="matrix(1 0 -0.5547 0.83205 45.125 114.021)" stroke="#041C2F"/>
<rect width="3.5268" height="4.46727" transform="matrix(1 0 -0.5547 0.83205 49.5928 114.021)" fill="#EDEBDB"/>
<rect width="3.5268" height="4.46727" transform="matrix(1 0 -0.5547 0.83205 49.5928 114.021)" stroke="#041C2F"/>
<rect width="3.5268" height="4.46727" transform="matrix(1 0 -0.5547 0.83205 54.0596 114.021)" fill="#EDEBDB"/>
<rect width="3.5268" height="4.46727" transform="matrix(1 0 -0.5547 0.83205 54.0596 114.021)" stroke="#041C2F"/>
<rect width="3.5268" height="4.46727" transform="matrix(1 0 -0.5547 0.83205 58.5264 114.021)" fill="#EDEBDB"/>
<rect width="3.5268" height="4.46727" transform="matrix(1 0 -0.5547 0.83205 58.5264 114.021)" stroke="#041C2F"/>
<rect width="3.5268" height="4.46727" transform="matrix(1 0 -0.5547 0.83205 62.9932 114.021)" fill="#EDEBDB"/>
<rect width="3.5268" height="4.46727" transform="matrix(1 0 -0.5547 0.83205 62.9932 114.021)" stroke="#041C2F"/>
<rect width="3.5268" height="4.46727" transform="matrix(1 0 -0.5547 0.83205 67.4609 114.021)" fill="#EDEBDB"/>
<rect width="3.5268" height="4.46727" transform="matrix(1 0 -0.5547 0.83205 67.4609 114.021)" stroke="#041C2F"/>
<rect width="3.5268" height="4.46727" transform="matrix(1 0 -0.5547 0.83205 71.9287 114.021)" fill="#EDEBDB"/>
<rect width="3.5268" height="4.46727" transform="matrix(1 0 -0.5547 0.83205 71.9287 114.021)" stroke="#041C2F"/>
<rect width="3.5268" height="4.46727" transform="matrix(1 0 -0.5547 0.83205 76.3955 114.021)" fill="#EDEBDB"/>
<rect width="3.5268" height="4.46727" transform="matrix(1 0 -0.5547 0.83205 76.3955 114.021)" stroke="#041C2F"/>
<rect width="3.5268" height="4.46727" transform="matrix(1 0 -0.5547 0.83205 97.0869 114.021)" fill="#EDEBDB"/>
<rect width="3.5268" height="4.46727" transform="matrix(1 0 -0.5547 0.83205 97.0869 114.021)" stroke="#041C2F"/>
<rect width="3.5268" height="4.46727" transform="matrix(1 0 -0.5547 0.83205 101.554 114.021)" fill="#EDEBDB"/>
<rect width="3.5268" height="4.46727" transform="matrix(1 0 -0.5547 0.83205 101.554 114.021)" stroke="#041C2F"/>
<rect width="3.5268" height="4.46727" transform="matrix(1 0 -0.5547 0.83205 106.021 114.021)" fill="#EDEBDB"/>
<rect width="3.5268" height="4.46727" transform="matrix(1 0 -0.5547 0.83205 106.021 114.021)" stroke="#041C2F"/>
<rect width="3.5268" height="4.46727" transform="matrix(1 0 -0.5547 0.83205 110.488 114.021)" fill="#EDEBDB"/>
<rect width="3.5268" height="4.46727" transform="matrix(1 0 -0.5547 0.83205 110.488 114.021)" stroke="#041C2F"/>
<rect width="3.5268" height="4.46727" transform="matrix(1 0 -0.5547 0.83205 128.356 114.021)" fill="#EDEBDB"/>
<rect width="3.5268" height="4.46727" transform="matrix(1 0 -0.5547 0.83205 128.356 114.021)" stroke="#041C2F"/>
<rect width="3.5268" height="4.46727" transform="matrix(1 0 -0.5547 0.83205 132.824 114.021)" fill="#EDEBDB"/>
<rect width="3.5268" height="4.46727" transform="matrix(1 0 -0.5547 0.83205 132.824 114.021)" stroke="#041C2F"/>
<rect width="3.5268" height="4.46727" transform="matrix(1 0 -0.5547 0.83205 137.292 114.021)" fill="#EDEBDB"/>
<rect width="3.5268" height="4.46727" transform="matrix(1 0 -0.5547 0.83205 137.292 114.021)" stroke="#041C2F"/>
<rect width="3.5268" height="4.46727" transform="matrix(1 0 -0.5547 0.83205 141.759 114.021)" fill="#EDEBDB"/>
<rect width="3.5268" height="4.46727" transform="matrix(1 0 -0.5547 0.83205 141.759 114.021)" stroke="#041C2F"/>
<rect width="54.4574" height="7.52383" transform="matrix(1 0 -0.5547 0.83205 129.394 105.414)" fill="#EDEBDB"/>
<rect width="54.4574" height="7.52383" transform="matrix(1 0 -0.5547 0.83205 129.394 105.414)" stroke="#041C2F"/>
<path d="M72.616 88.876C72.5413 88.876 72.472 88.8653 72.408 88.844C72.2053 88.8013 72.0613 88.6787 71.976 88.476C71.912 88.2947 71.928 88.092 72.024 87.868C72.1307 87.644 72.2693 87.3933 72.44 87.116C72.504 87.02 72.5627 86.924 72.616 86.828C72.68 86.7213 72.7333 86.6253 72.776 86.54C72.7973 86.508 72.8133 86.4813 72.824 86.46C72.8347 86.428 72.8453 86.4013 72.856 86.38C72.536 86.3267 72.1627 86.316 71.736 86.348C71.32 86.3693 70.8507 86.4493 70.328 86.588C69.8693 86.7053 69.3733 86.86 68.84 87.052C68.3173 87.2333 67.7627 87.452 67.176 87.708C67.0587 87.7507 66.9413 87.7507 66.824 87.708C66.7067 87.6653 66.6213 87.5853 66.568 87.468C66.504 87.3507 66.4987 87.228 66.552 87.1C66.6053 86.9613 66.6907 86.8707 66.808 86.828C67.4053 86.5613 67.976 86.332 68.52 86.14C69.0747 85.9373 69.5973 85.7773 70.088 85.66C71.4 85.3293 72.472 85.276 73.304 85.5C73.5493 85.564 73.72 85.7133 73.816 85.948C73.912 86.1827 73.8907 86.444 73.752 86.732C73.6133 87.02 73.448 87.3187 73.256 87.628C73.2453 87.6493 73.2293 87.676 73.208 87.708C73.1867 87.74 73.1653 87.7773 73.144 87.82C73.3893 87.7667 73.752 87.66 74.232 87.5C74.712 87.34 75.3733 87.1053 76.216 86.796C76.3333 86.7533 76.4507 86.764 76.568 86.828C76.696 86.8813 76.7813 86.972 76.824 87.1C76.8773 87.2173 76.8773 87.34 76.824 87.468C76.7707 87.5853 76.6747 87.6707 76.536 87.724C76.0453 87.8947 75.5973 88.0493 75.192 88.188C74.7867 88.3267 74.424 88.444 74.104 88.54C73.6773 88.668 73.352 88.7587 73.128 88.812C72.904 88.8547 72.7333 88.876 72.616 88.876ZM78.5499 88.556C78.4965 88.556 78.4539 88.5507 78.4219 88.54C78.2512 88.4973 78.1285 88.4333 78.0539 88.348C77.9899 88.252 77.9472 88.1773 77.9259 88.124C77.8512 87.8893 77.8779 87.6493 78.0059 87.404C78.1339 87.148 78.2992 86.8813 78.5019 86.604C78.5659 86.5187 78.6245 86.428 78.6779 86.332C78.7419 86.2253 78.7952 86.1347 78.8379 86.06C78.8485 86.0493 78.8645 86.028 78.8859 85.996C78.8219 86.0173 78.7419 86.0493 78.6459 86.092C78.5605 86.1347 78.4592 86.1987 78.3419 86.284C78.1499 86.4013 77.9472 86.556 77.7339 86.748C77.5205 86.9293 77.3019 87.1213 77.0779 87.324C77.0245 87.3667 76.9659 87.4147 76.9019 87.468C76.8485 87.5213 76.7952 87.5747 76.7419 87.628C76.6459 87.7133 76.5339 87.756 76.4059 87.756C76.2672 87.7453 76.1552 87.6867 76.0699 87.58C75.9739 87.484 75.9312 87.372 75.9419 87.244C75.9525 87.1053 76.0059 86.9933 76.1019 86.908C76.1552 86.8547 76.2139 86.8013 76.2779 86.748C76.3312 86.6947 76.3845 86.6467 76.4379 86.604C76.7792 86.2947 77.1152 86.012 77.4459 85.756C77.7765 85.4893 78.1019 85.2867 78.4219 85.148C78.7419 85.0093 79.0512 84.9827 79.3499 85.068C79.5312 85.1107 79.6592 85.1853 79.7339 85.292C79.8192 85.388 79.8672 85.4733 79.8779 85.548C79.9739 85.7827 79.9525 86.0333 79.8139 86.3C79.6752 86.556 79.4992 86.8387 79.2859 87.148C79.2645 87.1693 79.2379 87.2067 79.2059 87.26C79.1845 87.3027 79.1579 87.3453 79.1259 87.388C79.2859 87.324 79.4939 87.244 79.7499 87.148C80.0059 87.052 80.3152 86.9347 80.6779 86.796C80.8165 86.7533 80.9445 86.764 81.0619 86.828C81.1792 86.8813 81.2592 86.972 81.3019 87.1C81.3552 87.2173 81.3499 87.34 81.2859 87.468C81.2325 87.5853 81.1472 87.6707 81.0299 87.724C80.6885 87.8413 80.3792 87.948 80.1019 88.044C79.8245 88.14 79.5899 88.2253 79.3979 88.3C79.2912 88.3427 79.1952 88.38 79.1099 88.412C79.0352 88.4333 78.9659 88.4547 78.9019 88.476C78.8272 88.4973 78.7632 88.5187 78.7099 88.54C78.6565 88.5507 78.6032 88.556 78.5499 88.556ZM82.1081 89.948C82.0335 89.948 81.9588 89.9373 81.8841 89.916C81.8095 89.9053 81.7348 89.8947 81.6601 89.884C81.4681 89.8307 81.3348 89.7187 81.2601 89.548C81.1641 89.3347 81.1641 89.0787 81.2601 88.78C81.3668 88.4707 81.5375 88.076 81.7721 87.596C81.8148 87.5107 81.8575 87.4147 81.9001 87.308C81.9535 87.2013 82.0015 87.1 82.0441 87.004C81.9055 87.0573 81.7561 87.148 81.5961 87.276C81.4468 87.3933 81.2921 87.516 81.1321 87.644C81.0255 87.7187 80.9081 87.7507 80.7801 87.74C80.6415 87.7187 80.5295 87.66 80.4441 87.564C80.3695 87.4573 80.3428 87.34 80.3641 87.212C80.3748 87.084 80.4281 86.972 80.5241 86.876C80.6735 86.7693 80.8281 86.652 80.9881 86.524C81.1588 86.396 81.3295 86.2893 81.5001 86.204C81.9375 85.98 82.3375 85.9213 82.7001 86.028C82.8708 86.06 82.9988 86.1667 83.0841 86.348C83.1695 86.5187 83.1641 86.732 83.0681 86.988C82.9828 87.244 82.8335 87.5907 82.6201 88.028C82.5668 88.156 82.5081 88.284 82.4441 88.412C82.3908 88.54 82.3375 88.6627 82.2841 88.78C82.2735 88.8227 82.2575 88.86 82.2361 88.892C82.2255 88.924 82.2148 88.956 82.2041 88.988C82.4281 88.956 82.7535 88.844 83.1801 88.652C83.6175 88.4493 84.2041 88.0547 84.9401 87.468C85.3348 87.1587 85.6921 86.86 86.0121 86.572C86.3321 86.2733 86.5881 86.028 86.7801 85.836C86.9721 85.644 87.0681 85.548 87.0681 85.548C87.1961 85.3987 87.3508 85.3507 87.5321 85.404C87.6175 85.4147 87.6868 85.452 87.7401 85.516C87.7935 85.5693 87.8361 85.6227 87.8681 85.676C87.9428 85.8253 87.9481 86.0013 87.8841 86.204C87.8308 86.396 87.7135 86.7107 87.5321 87.148C87.4681 87.2867 87.4041 87.4253 87.3401 87.564C87.2868 87.7027 87.2335 87.8307 87.1801 87.948C87.1695 87.9907 87.1588 88.028 87.1481 88.06C87.1481 88.0813 87.1428 88.1027 87.1321 88.124C87.3348 88.092 87.5481 88.0067 87.7721 87.868C88.0068 87.7187 88.2308 87.5533 88.4441 87.372C88.6681 87.1907 88.8548 87.036 89.0041 86.908C89.1108 86.812 89.2281 86.7693 89.3561 86.78C89.4841 86.7907 89.5961 86.844 89.6921 86.94C89.7775 87.0467 89.8148 87.164 89.8041 87.292C89.8041 87.42 89.7508 87.532 89.6441 87.628C89.3135 87.916 88.9721 88.188 88.6201 88.444C88.2788 88.7 87.9321 88.892 87.5801 89.02C87.2388 89.1373 86.8921 89.1533 86.5401 89.068C86.3695 88.9933 86.2468 88.8867 86.1721 88.748C86.1081 88.5987 86.0868 88.4333 86.1081 88.252C86.1401 88.0707 86.2041 87.8467 86.3001 87.58C86.1828 87.6867 86.0601 87.788 85.9321 87.884C85.8148 87.98 85.6868 88.0867 85.5481 88.204C84.0761 89.3667 82.9295 89.948 82.1081 89.948ZM91.4718 88.556C91.4184 88.556 91.3758 88.5507 91.3438 88.54C91.1731 88.4973 91.0504 88.4333 90.9758 88.348C90.9118 88.252 90.8691 88.1773 90.8478 88.124C90.7731 87.8893 90.7998 87.6493 90.9278 87.404C91.0558 87.148 91.2211 86.8813 91.4238 86.604C91.4878 86.5187 91.5464 86.428 91.5998 86.332C91.6638 86.2253 91.7171 86.1347 91.7598 86.06C91.7704 86.0493 91.7864 86.028 91.8078 85.996C91.7438 86.0173 91.6638 86.0493 91.5678 86.092C91.4824 86.1347 91.3811 86.1987 91.2638 86.284C91.0718 86.4013 90.8691 86.556 90.6558 86.748C90.4424 86.9293 90.2238 87.1213 89.9998 87.324C89.9464 87.3667 89.8878 87.4147 89.8238 87.468C89.7704 87.5213 89.7171 87.5747 89.6638 87.628C89.5678 87.7133 89.4558 87.756 89.3277 87.756C89.1891 87.7453 89.0771 87.6867 88.9917 87.58C88.8957 87.484 88.8531 87.372 88.8637 87.244C88.8744 87.1053 88.9277 86.9933 89.0237 86.908C89.0771 86.8547 89.1357 86.8013 89.1997 86.748C89.2531 86.6947 89.3064 86.6467 89.3598 86.604C89.7011 86.2947 90.0371 86.012 90.3678 85.756C90.6984 85.4893 91.0238 85.2867 91.3438 85.148C91.6638 85.0093 91.9731 84.9827 92.2718 85.068C92.4531 85.1107 92.5811 85.1853 92.6558 85.292C92.7411 85.388 92.7891 85.4733 92.7998 85.548C92.8958 85.7827 92.8744 86.0333 92.7358 86.3C92.5971 86.556 92.4211 86.8387 92.2078 87.148C92.1864 87.1693 92.1598 87.2067 92.1278 87.26C92.1064 87.3027 92.0798 87.3453 92.0478 87.388C92.2078 87.324 92.4158 87.244 92.6718 87.148C92.9278 87.052 93.2371 86.9347 93.5998 86.796C93.7384 86.7533 93.8664 86.764 93.9838 86.828C94.1011 86.8813 94.1811 86.972 94.2238 87.1C94.2771 87.2173 94.2718 87.34 94.2078 87.468C94.1544 87.5853 94.0691 87.6707 93.9518 87.724C93.6104 87.8413 93.3011 87.948 93.0238 88.044C92.7464 88.14 92.5118 88.2253 92.3198 88.3C92.2131 88.3427 92.1171 88.38 92.0318 88.412C91.9571 88.4333 91.8878 88.4547 91.8238 88.476C91.7491 88.4973 91.6851 88.5187 91.6318 88.54C91.5784 88.5507 91.5251 88.556 91.4718 88.556ZM95.03 89.948C94.9553 89.948 94.8807 89.9373 94.806 89.916C94.7313 89.9053 94.6567 89.8947 94.582 89.884C94.39 89.8307 94.2567 89.7187 94.182 89.548C94.086 89.3347 94.086 89.0787 94.182 88.78C94.2887 88.4707 94.4593 88.076 94.694 87.596C94.7367 87.5107 94.7793 87.4147 94.822 87.308C94.8753 87.2013 94.9233 87.1 94.966 87.004C94.8273 87.0573 94.678 87.148 94.518 87.276C94.3687 87.3933 94.214 87.516 94.054 87.644C93.9473 87.7187 93.83 87.7507 93.702 87.74C93.5633 87.7187 93.4513 87.66 93.366 87.564C93.2913 87.4573 93.2647 87.34 93.286 87.212C93.2967 87.084 93.35 86.972 93.446 86.876C93.5953 86.7693 93.75 86.652 93.91 86.524C94.0807 86.396 94.2513 86.2893 94.422 86.204C94.8593 85.98 95.2593 85.9213 95.622 86.028C95.7927 86.06 95.9207 86.1667 96.006 86.348C96.0913 86.5187 96.086 86.732 95.99 86.988C95.9047 87.244 95.7553 87.5907 95.542 88.028C95.4887 88.156 95.43 88.284 95.366 88.412C95.3127 88.54 95.2593 88.6627 95.206 88.78C95.1953 88.8227 95.1793 88.86 95.158 88.892C95.1473 88.924 95.1367 88.956 95.126 88.988C95.35 88.956 95.6753 88.844 96.102 88.652C96.5393 88.4493 97.126 88.0547 97.862 87.468C98.2567 87.1587 98.614 86.86 98.934 86.572C99.254 86.2733 99.51 86.028 99.702 85.836C99.894 85.644 99.99 85.548 99.99 85.548C100.118 85.3987 100.273 85.3507 100.454 85.404C100.539 85.4147 100.609 85.452 100.662 85.516C100.715 85.5693 100.758 85.6227 100.79 85.676C100.865 85.8253 100.87 86.0013 100.806 86.204C100.753 86.396 100.635 86.7107 100.454 87.148C100.39 87.2867 100.326 87.4253 100.262 87.564C100.209 87.7027 100.155 87.8307 100.102 87.948C100.091 87.9907 100.081 88.028 100.07 88.06C100.07 88.0813 100.065 88.1027 100.054 88.124C100.257 88.092 100.47 88.0067 100.694 87.868C100.929 87.7187 101.153 87.5533 101.366 87.372C101.59 87.1907 101.777 87.036 101.926 86.908C102.033 86.812 102.15 86.7693 102.278 86.78C102.406 86.7907 102.518 86.844 102.614 86.94C102.699 87.0467 102.737 87.164 102.726 87.292C102.726 87.42 102.673 87.532 102.566 87.628C102.235 87.916 101.894 88.188 101.542 88.444C101.201 88.7 100.854 88.892 100.502 89.02C100.161 89.1373 99.814 89.1533 99.462 89.068C99.2913 88.9933 99.1687 88.8867 99.094 88.748C99.03 88.5987 99.0087 88.4333 99.03 88.252C99.062 88.0707 99.126 87.8467 99.222 87.58C99.1047 87.6867 98.982 87.788 98.854 87.884C98.7367 87.98 98.6087 88.0867 98.47 88.204C96.998 89.3667 95.8513 89.948 95.03 89.948ZM104.394 88.556C104.34 88.556 104.298 88.5507 104.266 88.54C104.095 88.4973 103.972 88.4333 103.898 88.348C103.834 88.252 103.791 88.1773 103.77 88.124C103.695 87.8893 103.722 87.6493 103.85 87.404C103.978 87.148 104.143 86.8813 104.346 86.604C104.41 86.5187 104.468 86.428 104.522 86.332C104.586 86.2253 104.639 86.1347 104.682 86.06C104.692 86.0493 104.708 86.028 104.73 85.996C104.666 86.0173 104.586 86.0493 104.49 86.092C104.404 86.1347 104.303 86.1987 104.186 86.284C103.994 86.4013 103.791 86.556 103.578 86.748C103.364 86.9293 103.146 87.1213 102.922 87.324C102.868 87.3667 102.81 87.4147 102.746 87.468C102.692 87.5213 102.639 87.5747 102.586 87.628C102.49 87.7133 102.378 87.756 102.25 87.756C102.111 87.7453 101.999 87.6867 101.914 87.58C101.818 87.484 101.775 87.372 101.786 87.244C101.796 87.1053 101.85 86.9933 101.946 86.908C101.999 86.8547 102.058 86.8013 102.122 86.748C102.175 86.6947 102.228 86.6467 102.282 86.604C102.623 86.2947 102.959 86.012 103.29 85.756C103.62 85.4893 103.946 85.2867 104.266 85.148C104.586 85.0093 104.895 84.9827 105.194 85.068C105.375 85.1107 105.503 85.1853 105.578 85.292C105.663 85.388 105.711 85.4733 105.722 85.548C105.818 85.7827 105.796 86.0333 105.658 86.3C105.519 86.556 105.343 86.8387 105.13 87.148C105.108 87.1693 105.082 87.2067 105.05 87.26C105.028 87.3027 105.002 87.3453 104.97 87.388C105.13 87.324 105.338 87.244 105.594 87.148C105.85 87.052 106.159 86.9347 106.522 86.796C106.66 86.7533 106.788 86.764 106.906 86.828C107.023 86.8813 107.103 86.972 107.146 87.1C107.199 87.2173 107.194 87.34 107.13 87.468C107.076 87.5853 106.991 87.6707 106.874 87.724C106.532 87.8413 106.223 87.948 105.946 88.044C105.668 88.14 105.434 88.2253 105.242 88.3C105.135 88.3427 105.039 88.38 104.954 88.412C104.879 88.4333 104.81 88.4547 104.746 88.476C104.671 88.4973 104.607 88.5187 104.554 88.54C104.5 88.5507 104.447 88.556 104.394 88.556Z" fill="black" fill-opacity="0.8"/>
<path d="M118.998 89.036C118.87 89.036 118.763 88.9987 118.678 88.924C118.507 88.7853 118.459 88.6093 118.534 88.396C118.534 88.3853 118.571 88.2573 118.646 88.012C118.731 87.7667 118.827 87.4893 118.934 87.18C118.987 86.9987 119.035 86.844 119.078 86.716C119.12 86.5773 119.158 86.4547 119.19 86.348C118.902 86.4547 118.55 86.588 118.134 86.748C117.718 86.8973 117.28 87.0573 116.822 87.228C116.374 87.3987 115.936 87.564 115.51 87.724C115.392 87.7667 115.275 87.7613 115.158 87.708C115.03 87.644 114.939 87.548 114.886 87.42C114.843 87.3027 114.854 87.1853 114.918 87.068C114.971 86.94 115.062 86.8493 115.19 86.796C115.67 86.6253 116.166 86.4493 116.678 86.268C117.19 86.076 117.664 85.9 118.102 85.74C118.539 85.5693 118.896 85.4307 119.174 85.324C119.451 85.2173 119.59 85.164 119.59 85.164C119.643 85.1533 119.696 85.148 119.75 85.148C119.803 85.1373 119.851 85.1427 119.894 85.164C120.043 85.1853 120.15 85.2707 120.214 85.42C120.267 85.5053 120.288 85.6173 120.278 85.756C120.278 85.884 120.251 86.0707 120.198 86.316C120.166 86.4547 120.123 86.6093 120.07 86.78C120.027 86.94 119.968 87.1267 119.894 87.34C119.883 87.3827 119.872 87.42 119.862 87.452C119.851 87.484 119.84 87.5213 119.83 87.564C120.256 87.3293 120.779 87.084 121.398 86.828C121.515 86.7747 121.632 86.7747 121.75 86.828C121.878 86.8707 121.963 86.9507 122.006 87.068C122.07 87.1853 122.075 87.308 122.022 87.436C121.968 87.564 121.883 87.6547 121.766 87.708C121.286 87.9213 120.854 88.124 120.47 88.316C120.096 88.508 119.798 88.6627 119.574 88.78C119.35 88.8973 119.238 88.956 119.238 88.956C119.174 89.0093 119.094 89.036 118.998 89.036Z" fill="black" fill-opacity="0.8"/>
<path fill-rule="evenodd" clip-rule="evenodd" d="M181.096 62.7817C180.828 62.2987 180.188 62.0538 179.666 62.2348L145.63 74.0425C145.199 74.1919 144.984 74.5844 145.072 74.9885L142.884 75.7473L142.655 75.0629L141.559 74.6463C139.89 75.9511 135.537 77.9993 131.485 75.7537C126.138 81.5723 123.62 84.2661 122.26 85.5452L122.526 86.0241L133.687 81.9573C133.551 81.2481 133.937 80.566 134.693 80.3036C135.431 80.0476 136.301 80.2673 136.87 80.7972L138.766 80.1064L139.372 81.1994L137.445 81.8349C137.552 82.5246 137.167 83.179 136.429 83.4348C135.673 83.6971 134.778 83.4599 134.211 82.9014L122.868 86.6414L123.133 87.1202C125.244 87.1953 129.454 87.5552 138.487 88.3854C139.144 84.5058 143.997 83.3607 146.341 83.2731L146.697 82.3529L146.214 81.754L148.402 80.9949C148.718 81.3183 149.228 81.4578 149.657 81.3088L183.694 69.5012C184.216 69.3201 184.421 68.7818 184.154 68.2988L181.096 62.7817Z" fill="#041C2F" fill-opacity="0.15"/>
<rect width="1.96756" height="39.3802" rx="0.983778" transform="matrix(0.691572 0.722308 -0.830139 0.557556 178.415 51.4521)" fill="url(#paint0_linear_198_5661)"/>
<rect width="2.05657" height="38.7744" rx="1" transform="matrix(0.691572 0.722308 -0.830139 0.557556 173.527 47.2096)" fill="url(#paint1_linear_198_5661)"/>
<path fill-rule="evenodd" clip-rule="evenodd" d="M151.591 70.9509L146.841 65.9903L139.87 70.6722L139.479 70.0657L138.286 69.9597C136.931 71.6958 133.077 74.8973 128.5 73.8155C124.55 80.9792 122.679 84.3076 121.626 85.9334L122.005 86.329L132.198 79.2608C131.873 78.594 132.075 77.8154 132.757 77.3576C133.422 76.9106 134.345 76.9039 135.046 77.2857L136.799 76.0703L137.663 76.973L135.865 78.1422C136.157 78.7979 135.949 79.5499 135.283 79.9966C134.602 80.4541 133.652 80.4504 132.945 80.0411L122.493 86.8388L122.872 87.2344C124.996 86.7271 129.281 85.9207 138.488 84.2475C138.221 80.2708 142.79 77.8151 145.108 77.0843L145.243 76.0862L144.619 75.6332L151.591 70.9509Z" fill="#041C2F"/>
<rect width="8.30797" height="39.601" rx="1" transform="matrix(0.691572 0.722308 -0.830139 0.557556 174.215 46.7495)" fill="#EDEBDB"/>
<path d="M17.3975 52.3094L100 4.6188L182.603 52.3094V147.691L100 195.381L17.3975 147.691V52.3094Z" stroke="#1173C4" stroke-width="8"/>
<defs>
<linearGradient id="paint0_linear_198_5661" x1="0" y1="19.6901" x2="1.96756" y2="19.6901" gradientUnits="userSpaceOnUse">
<stop offset="0.605" stop-color="#EDEBDB"/>
<stop offset="1" stop-color="#87867D"/>
</linearGradient>
<linearGradient id="paint1_linear_198_5661" x1="0" y1="19.3872" x2="2.05657" y2="19.3872" gradientUnits="userSpaceOnUse">
<stop stop-color="#66849C"/>
<stop offset="0.495" stop-color="#EDEBDB"/>
</linearGradient>
</defs>
</svg>
