<svg width="150" height="101" viewBox="0 0 150 101" fill="none" xmlns="http://www.w3.org/2000/svg">
<rect y="0.0405884" width="150" height="100" fill="#041C2F"/>
<path d="M47.3668 18H150V79H6L47.3668 18Z" fill="#1173C4"/>
<path d="M47.3668 18H150V79H6L47.3668 18Z" stroke="#041C2F"/>
<path d="M37.6439 42.7284H150V48.5414H33.7686L37.6439 42.7284Z" fill="#EDEBDB"/>
<path d="M37.6439 42.7284H150V48.5414H33.7686L37.6439 42.7284Z" stroke="#041C2F"/>
<rect width="3.27483" height="4.14812" transform="matrix(1 0 -0.5547 0.83205 19.1152 70.5217)" fill="#EDEBDB"/>
<rect width="3.27483" height="4.14812" transform="matrix(1 0 -0.5547 0.83205 19.1152 70.5217)" stroke="#041C2F"/>
<rect width="3.27483" height="4.14812" transform="matrix(1 0 -0.5547 0.83205 23.2637 70.5217)" fill="#EDEBDB"/>
<rect width="3.27483" height="4.14812" transform="matrix(1 0 -0.5547 0.83205 23.2637 70.5217)" stroke="#041C2F"/>
<rect width="3.27483" height="4.14812" transform="matrix(1 0 -0.5547 0.83205 27.4111 70.5217)" fill="#EDEBDB"/>
<rect width="3.27483" height="4.14812" transform="matrix(1 0 -0.5547 0.83205 27.4111 70.5217)" stroke="#041C2F"/>
<rect width="3.27483" height="4.14812" transform="matrix(1 0 -0.5547 0.83205 31.5586 70.5217)" fill="#EDEBDB"/>
<rect width="3.27483" height="4.14812" transform="matrix(1 0 -0.5547 0.83205 31.5586 70.5217)" stroke="#041C2F"/>
<rect width="3.27483" height="4.14812" transform="matrix(1 0 -0.5547 0.83205 35.707 70.5217)" fill="#EDEBDB"/>
<rect width="3.27483" height="4.14812" transform="matrix(1 0 -0.5547 0.83205 35.707 70.5217)" stroke="#041C2F"/>
<rect width="3.27483" height="4.14812" transform="matrix(1 0 -0.5547 0.83205 39.8555 70.5217)" fill="#EDEBDB"/>
<rect width="3.27483" height="4.14812" transform="matrix(1 0 -0.5547 0.83205 39.8555 70.5217)" stroke="#041C2F"/>
<rect width="3.27483" height="4.14812" transform="matrix(1 0 -0.5547 0.83205 44.0039 70.5217)" fill="#EDEBDB"/>
<rect width="3.27483" height="4.14812" transform="matrix(1 0 -0.5547 0.83205 44.0039 70.5217)" stroke="#041C2F"/>
<rect width="3.27483" height="4.14812" transform="matrix(1 0 -0.5547 0.83205 48.1514 70.5217)" fill="#EDEBDB"/>
<rect width="3.27483" height="4.14812" transform="matrix(1 0 -0.5547 0.83205 48.1514 70.5217)" stroke="#041C2F"/>
<rect width="3.27483" height="4.14812" transform="matrix(1 0 -0.5547 0.83205 67.3643 70.5217)" fill="#EDEBDB"/>
<rect width="3.27483" height="4.14812" transform="matrix(1 0 -0.5547 0.83205 67.3643 70.5217)" stroke="#041C2F"/>
<rect width="3.27483" height="4.14812" transform="matrix(1 0 -0.5547 0.83205 71.5117 70.5217)" fill="#EDEBDB"/>
<rect width="3.27483" height="4.14812" transform="matrix(1 0 -0.5547 0.83205 71.5117 70.5217)" stroke="#041C2F"/>
<rect width="3.27483" height="4.14812" transform="matrix(1 0 -0.5547 0.83205 75.6611 70.5217)" fill="#EDEBDB"/>
<rect width="3.27483" height="4.14812" transform="matrix(1 0 -0.5547 0.83205 75.6611 70.5217)" stroke="#041C2F"/>
<rect width="3.27483" height="4.14812" transform="matrix(1 0 -0.5547 0.83205 79.8086 70.5217)" fill="#EDEBDB"/>
<rect width="3.27483" height="4.14812" transform="matrix(1 0 -0.5547 0.83205 79.8086 70.5217)" stroke="#041C2F"/>
<rect width="3.27483" height="4.14812" transform="matrix(1 0 -0.5547 0.83205 96.4004 70.5217)" fill="#EDEBDB"/>
<rect width="3.27483" height="4.14812" transform="matrix(1 0 -0.5547 0.83205 96.4004 70.5217)" stroke="#041C2F"/>
<rect width="3.27483" height="4.14812" transform="matrix(1 0 -0.5547 0.83205 100.549 70.5217)" fill="#EDEBDB"/>
<rect width="3.27483" height="4.14812" transform="matrix(1 0 -0.5547 0.83205 100.549 70.5217)" stroke="#041C2F"/>
<rect width="3.27483" height="4.14812" transform="matrix(1 0 -0.5547 0.83205 104.697 70.5217)" fill="#EDEBDB"/>
<rect width="3.27483" height="4.14812" transform="matrix(1 0 -0.5547 0.83205 104.697 70.5217)" stroke="#041C2F"/>
<rect width="3.27483" height="4.14812" transform="matrix(1 0 -0.5547 0.83205 108.845 70.5217)" fill="#EDEBDB"/>
<rect width="3.27483" height="4.14812" transform="matrix(1 0 -0.5547 0.83205 108.845 70.5217)" stroke="#041C2F"/>
<path d="M97.3626 62.529H149.999V68.3419H93.4873L97.3626 62.529Z" fill="#EDEBDB"/>
<path d="M97.3626 62.529H149.999V68.3419H93.4873L97.3626 62.529Z" stroke="#041C2F"/>
<path d="M43.914 46.454C43.8487 46.454 43.788 46.4447 43.732 46.426C43.5547 46.3887 43.4287 46.2813 43.354 46.104C43.298 45.9453 43.312 45.768 43.396 45.572C43.4893 45.376 43.6107 45.1567 43.76 44.914C43.816 44.83 43.8673 44.746 43.914 44.662C43.97 44.5687 44.0167 44.4847 44.054 44.41C44.0727 44.382 44.0867 44.3587 44.096 44.34C44.1053 44.312 44.1147 44.2887 44.124 44.27C43.844 44.2233 43.5173 44.214 43.144 44.242C42.78 44.2607 42.3693 44.3307 41.912 44.452C41.5107 44.5547 41.0767 44.69 40.61 44.858C40.1527 45.0167 39.6673 45.208 39.154 45.432C39.0513 45.4693 38.9487 45.4693 38.846 45.432C38.7433 45.3947 38.6687 45.3247 38.622 45.222C38.566 45.1193 38.5613 45.012 38.608 44.9C38.6547 44.7787 38.7293 44.6993 38.832 44.662C39.3547 44.4287 39.854 44.228 40.33 44.06C40.8153 43.8827 41.2727 43.7427 41.702 43.64C42.85 43.3507 43.788 43.304 44.516 43.5C44.7307 43.556 44.88 43.6867 44.964 43.892C45.048 44.0973 45.0293 44.326 44.908 44.578C44.7867 44.83 44.642 45.0913 44.474 45.362C44.4647 45.3807 44.4507 45.404 44.432 45.432C44.4133 45.46 44.3947 45.4927 44.376 45.53C44.5907 45.4833 44.908 45.39 45.328 45.25C45.748 45.11 46.3267 44.9047 47.064 44.634C47.1667 44.5967 47.2693 44.606 47.372 44.662C47.484 44.7087 47.5587 44.788 47.596 44.9C47.6427 45.0027 47.6427 45.11 47.596 45.222C47.5493 45.3247 47.4653 45.3993 47.344 45.446C46.9147 45.5953 46.5227 45.7307 46.168 45.852C45.8133 45.9733 45.496 46.076 45.216 46.16C44.8427 46.272 44.558 46.3513 44.362 46.398C44.166 46.4353 44.0167 46.454 43.914 46.454ZM49.1061 46.174C49.0595 46.174 49.0221 46.1693 48.9941 46.16C48.8448 46.1227 48.7375 46.0667 48.6721 45.992C48.6161 45.908 48.5788 45.8427 48.5601 45.796C48.4948 45.5907 48.5181 45.3807 48.6301 45.166C48.7421 44.942 48.8868 44.7087 49.0641 44.466C49.1201 44.3913 49.1715 44.312 49.2181 44.228C49.2741 44.1347 49.3208 44.0553 49.3581 43.99C49.3675 43.9807 49.3815 43.962 49.4001 43.934C49.3441 43.9527 49.2741 43.9807 49.1901 44.018C49.1155 44.0553 49.0268 44.1113 48.9241 44.186C48.7561 44.2887 48.5788 44.424 48.3921 44.592C48.2055 44.7507 48.0141 44.9187 47.8181 45.096C47.7715 45.1333 47.7201 45.1753 47.6641 45.222C47.6175 45.2687 47.5708 45.3153 47.5241 45.362C47.4401 45.4367 47.3421 45.474 47.2301 45.474C47.1088 45.4647 47.0108 45.4133 46.9361 45.32C46.8521 45.236 46.8148 45.138 46.8241 45.026C46.8335 44.9047 46.8801 44.8067 46.9641 44.732C47.0108 44.6853 47.0621 44.6387 47.1181 44.592C47.1648 44.5453 47.2115 44.5033 47.2581 44.466C47.5568 44.1953 47.8508 43.948 48.1401 43.724C48.4295 43.4907 48.7141 43.3133 48.9941 43.192C49.2741 43.0707 49.5448 43.0473 49.8061 43.122C49.9648 43.1593 50.0768 43.2247 50.1421 43.318C50.2168 43.402 50.2588 43.4767 50.2681 43.542C50.3521 43.7473 50.3335 43.9667 50.2121 44.2C50.0908 44.424 49.9368 44.6713 49.7501 44.942C49.7315 44.9607 49.7081 44.9933 49.6801 45.04C49.6615 45.0773 49.6381 45.1147 49.6101 45.152C49.7501 45.096 49.9321 45.026 50.1561 44.942C50.3801 44.858 50.6508 44.7553 50.9681 44.634C51.0895 44.5967 51.2015 44.606 51.3041 44.662C51.4068 44.7087 51.4768 44.788 51.5141 44.9C51.5608 45.0027 51.5561 45.11 51.5001 45.222C51.4535 45.3247 51.3788 45.3993 51.2761 45.446C50.9775 45.5487 50.7068 45.642 50.4641 45.726C50.2215 45.81 50.0161 45.8847 49.8481 45.95C49.7548 45.9873 49.6708 46.02 49.5961 46.048C49.5308 46.0667 49.4701 46.0853 49.4141 46.104C49.3488 46.1227 49.2928 46.1413 49.2461 46.16C49.1995 46.1693 49.1528 46.174 49.1061 46.174ZM52.2196 47.392C52.1543 47.392 52.0889 47.3827 52.0236 47.364C51.9583 47.3547 51.8929 47.3453 51.8276 47.336C51.6596 47.2893 51.5429 47.1913 51.4776 47.042C51.3936 46.8553 51.3936 46.6313 51.4776 46.37C51.5709 46.0993 51.7203 45.754 51.9256 45.334C51.9629 45.2593 52.0003 45.1753 52.0376 45.082C52.0843 44.9887 52.1263 44.9 52.1636 44.816C52.0423 44.8627 51.9116 44.942 51.7716 45.054C51.6409 45.1567 51.5056 45.264 51.3656 45.376C51.2723 45.4413 51.1696 45.4693 51.0576 45.46C50.9363 45.4413 50.8383 45.39 50.7636 45.306C50.6983 45.2127 50.6749 45.11 50.6936 44.998C50.7029 44.886 50.7496 44.788 50.8336 44.704C50.9643 44.6107 51.0996 44.508 51.2396 44.396C51.3889 44.284 51.5383 44.1907 51.6876 44.116C52.0703 43.92 52.4203 43.8687 52.7376 43.962C52.8869 43.99 52.9989 44.0833 53.0736 44.242C53.1483 44.3913 53.1436 44.578 53.0596 44.802C52.9849 45.026 52.8543 45.3293 52.6676 45.712C52.6209 45.824 52.5696 45.936 52.5136 46.048C52.4669 46.16 52.4203 46.2673 52.3736 46.37C52.3643 46.4073 52.3503 46.44 52.3316 46.468C52.3223 46.496 52.3129 46.524 52.3036 46.552C52.4996 46.524 52.7843 46.426 53.1576 46.258C53.5403 46.0807 54.0536 45.7353 54.6976 45.222C55.0429 44.9513 55.3556 44.69 55.6356 44.438C55.9156 44.1767 56.1396 43.962 56.3076 43.794C56.4756 43.626 56.5596 43.542 56.5596 43.542C56.6716 43.4113 56.8069 43.3693 56.9656 43.416C57.0403 43.4253 57.1009 43.458 57.1476 43.514C57.1943 43.5607 57.2316 43.6073 57.2596 43.654C57.3249 43.7847 57.3296 43.9387 57.2736 44.116C57.2269 44.284 57.1243 44.5593 56.9656 44.942C56.9096 45.0633 56.8536 45.1847 56.7976 45.306C56.7509 45.4273 56.7043 45.5393 56.6576 45.642C56.6483 45.6793 56.6389 45.712 56.6296 45.74C56.6296 45.7587 56.6249 45.7773 56.6156 45.796C56.7929 45.768 56.9796 45.6933 57.1756 45.572C57.3809 45.4413 57.5769 45.2967 57.7636 45.138C57.9596 44.9793 58.1229 44.844 58.2536 44.732C58.3469 44.648 58.4496 44.6107 58.5616 44.62C58.6736 44.6293 58.7716 44.676 58.8556 44.76C58.9303 44.8533 58.9629 44.956 58.9536 45.068C58.9536 45.18 58.9069 45.278 58.8136 45.362C58.5243 45.614 58.2256 45.852 57.9176 46.076C57.6189 46.3 57.3156 46.468 57.0076 46.58C56.7089 46.6827 56.4056 46.6967 56.0976 46.622C55.9483 46.5567 55.8409 46.4633 55.7756 46.342C55.7196 46.2113 55.7009 46.0667 55.7196 45.908C55.7476 45.7493 55.8036 45.5533 55.8876 45.32C55.7849 45.4133 55.6776 45.502 55.5656 45.586C55.4629 45.67 55.3509 45.7633 55.2296 45.866C53.9416 46.8833 52.9383 47.392 52.2196 47.392ZM60.4128 46.174C60.3661 46.174 60.3288 46.1693 60.3008 46.16C60.1514 46.1227 60.0441 46.0667 59.9788 45.992C59.9228 45.908 59.8854 45.8427 59.8668 45.796C59.8014 45.5907 59.8248 45.3807 59.9368 45.166C60.0488 44.942 60.1934 44.7087 60.3708 44.466C60.4268 44.3913 60.4781 44.312 60.5248 44.228C60.5808 44.1347 60.6274 44.0553 60.6648 43.99C60.6741 43.9807 60.6881 43.962 60.7068 43.934C60.6508 43.9527 60.5808 43.9807 60.4968 44.018C60.4221 44.0553 60.3334 44.1113 60.2308 44.186C60.0628 44.2887 59.8854 44.424 59.6988 44.592C59.5121 44.7507 59.3208 44.9187 59.1248 45.096C59.0781 45.1333 59.0268 45.1753 58.9708 45.222C58.9241 45.2687 58.8774 45.3153 58.8308 45.362C58.7468 45.4367 58.6488 45.474 58.5368 45.474C58.4154 45.4647 58.3174 45.4133 58.2428 45.32C58.1588 45.236 58.1214 45.138 58.1308 45.026C58.1401 44.9047 58.1868 44.8067 58.2708 44.732C58.3174 44.6853 58.3688 44.6387 58.4248 44.592C58.4714 44.5453 58.5181 44.5033 58.5648 44.466C58.8634 44.1953 59.1574 43.948 59.4468 43.724C59.7361 43.4907 60.0208 43.3133 60.3008 43.192C60.5808 43.0707 60.8514 43.0473 61.1128 43.122C61.2714 43.1593 61.3834 43.2247 61.4488 43.318C61.5234 43.402 61.5654 43.4767 61.5748 43.542C61.6588 43.7473 61.6401 43.9667 61.5188 44.2C61.3974 44.424 61.2434 44.6713 61.0568 44.942C61.0381 44.9607 61.0148 44.9933 60.9868 45.04C60.9681 45.0773 60.9448 45.1147 60.9168 45.152C61.0568 45.096 61.2388 45.026 61.4628 44.942C61.6868 44.858 61.9574 44.7553 62.2748 44.634C62.3961 44.5967 62.5081 44.606 62.6108 44.662C62.7134 44.7087 62.7834 44.788 62.8208 44.9C62.8674 45.0027 62.8628 45.11 62.8068 45.222C62.7601 45.3247 62.6854 45.3993 62.5828 45.446C62.2841 45.5487 62.0134 45.642 61.7708 45.726C61.5281 45.81 61.3228 45.8847 61.1548 45.95C61.0614 45.9873 60.9774 46.02 60.9028 46.048C60.8374 46.0667 60.7768 46.0853 60.7208 46.104C60.6554 46.1227 60.5994 46.1413 60.5528 46.16C60.5061 46.1693 60.4594 46.174 60.4128 46.174ZM63.5263 47.392C63.4609 47.392 63.3956 47.3827 63.3302 47.364C63.2649 47.3547 63.1996 47.3453 63.1343 47.336C62.9663 47.2893 62.8496 47.1913 62.7843 47.042C62.7003 46.8553 62.7003 46.6313 62.7843 46.37C62.8776 46.0993 63.0269 45.754 63.2323 45.334C63.2696 45.2593 63.3069 45.1753 63.3443 45.082C63.3909 44.9887 63.4329 44.9 63.4703 44.816C63.3489 44.8627 63.2183 44.942 63.0783 45.054C62.9476 45.1567 62.8123 45.264 62.6723 45.376C62.5789 45.4413 62.4763 45.4693 62.3642 45.46C62.2429 45.4413 62.1449 45.39 62.0702 45.306C62.0049 45.2127 61.9816 45.11 62.0002 44.998C62.0096 44.886 62.0562 44.788 62.1402 44.704C62.2709 44.6107 62.4062 44.508 62.5463 44.396C62.6956 44.284 62.8449 44.1907 62.9943 44.116C63.3769 43.92 63.7269 43.8687 64.0443 43.962C64.1936 43.99 64.3056 44.0833 64.3803 44.242C64.4549 44.3913 64.4503 44.578 64.3663 44.802C64.2916 45.026 64.1609 45.3293 63.9743 45.712C63.9276 45.824 63.8763 45.936 63.8203 46.048C63.7736 46.16 63.7269 46.2673 63.6803 46.37C63.6709 46.4073 63.6569 46.44 63.6383 46.468C63.6289 46.496 63.6196 46.524 63.6103 46.552C63.8063 46.524 64.0909 46.426 64.4642 46.258C64.8469 46.0807 65.3603 45.7353 66.0042 45.222C66.3496 44.9513 66.6623 44.69 66.9423 44.438C67.2223 44.1767 67.4463 43.962 67.6143 43.794C67.7823 43.626 67.8663 43.542 67.8663 43.542C67.9783 43.4113 68.1136 43.3693 68.2723 43.416C68.3469 43.4253 68.4076 43.458 68.4543 43.514C68.5009 43.5607 68.5383 43.6073 68.5663 43.654C68.6316 43.7847 68.6363 43.9387 68.5803 44.116C68.5336 44.284 68.4309 44.5593 68.2723 44.942C68.2163 45.0633 68.1603 45.1847 68.1043 45.306C68.0576 45.4273 68.0109 45.5393 67.9643 45.642C67.9549 45.6793 67.9456 45.712 67.9363 45.74C67.9363 45.7587 67.9316 45.7773 67.9223 45.796C68.0996 45.768 68.2863 45.6933 68.4823 45.572C68.6876 45.4413 68.8836 45.2967 69.0703 45.138C69.2663 44.9793 69.4296 44.844 69.5603 44.732C69.6536 44.648 69.7563 44.6107 69.8683 44.62C69.9803 44.6293 70.0783 44.676 70.1623 44.76C70.2369 44.8533 70.2696 44.956 70.2603 45.068C70.2603 45.18 70.2136 45.278 70.1202 45.362C69.8309 45.614 69.5323 45.852 69.2243 46.076C68.9256 46.3 68.6223 46.468 68.3143 46.58C68.0156 46.6827 67.7123 46.6967 67.4043 46.622C67.2549 46.5567 67.1476 46.4633 67.0823 46.342C67.0263 46.2113 67.0076 46.0667 67.0263 45.908C67.0543 45.7493 67.1103 45.5533 67.1943 45.32C67.0916 45.4133 66.9843 45.502 66.8723 45.586C66.7696 45.67 66.6576 45.7633 66.5363 45.866C65.2483 46.8833 64.2449 47.392 63.5263 47.392ZM71.7194 46.174C71.6728 46.174 71.6354 46.1693 71.6074 46.16C71.4581 46.1227 71.3508 46.0667 71.2854 45.992C71.2294 45.908 71.1921 45.8427 71.1734 45.796C71.1081 45.5907 71.1314 45.3807 71.2434 45.166C71.3554 44.942 71.5001 44.7087 71.6774 44.466C71.7334 44.3913 71.7848 44.312 71.8314 44.228C71.8874 44.1347 71.9341 44.0553 71.9714 43.99C71.9808 43.9807 71.9948 43.962 72.0134 43.934C71.9574 43.9527 71.8874 43.9807 71.8034 44.018C71.7288 44.0553 71.6401 44.1113 71.5374 44.186C71.3694 44.2887 71.1921 44.424 71.0054 44.592C70.8188 44.7507 70.6274 44.9187 70.4314 45.096C70.3848 45.1333 70.3334 45.1753 70.2774 45.222C70.2308 45.2687 70.1841 45.3153 70.1374 45.362C70.0534 45.4367 69.9554 45.474 69.8434 45.474C69.7221 45.4647 69.6241 45.4133 69.5494 45.32C69.4654 45.236 69.4281 45.138 69.4374 45.026C69.4468 44.9047 69.4934 44.8067 69.5774 44.732C69.6241 44.6853 69.6754 44.6387 69.7314 44.592C69.7781 44.5453 69.8248 44.5033 69.8714 44.466C70.1701 44.1953 70.4641 43.948 70.7534 43.724C71.0428 43.4907 71.3274 43.3133 71.6074 43.192C71.8874 43.0707 72.1581 43.0473 72.4194 43.122C72.5781 43.1593 72.6901 43.2247 72.7554 43.318C72.8301 43.402 72.8721 43.4767 72.8814 43.542C72.9654 43.7473 72.9468 43.9667 72.8254 44.2C72.7041 44.424 72.5501 44.6713 72.3634 44.942C72.3448 44.9607 72.3214 44.9933 72.2934 45.04C72.2748 45.0773 72.2514 45.1147 72.2234 45.152C72.3634 45.096 72.5454 45.026 72.7694 44.942C72.9934 44.858 73.2641 44.7553 73.5814 44.634C73.7028 44.5967 73.8148 44.606 73.9174 44.662C74.0201 44.7087 74.0901 44.788 74.1274 44.9C74.1741 45.0027 74.1694 45.11 74.1134 45.222C74.0668 45.3247 73.9921 45.3993 73.8894 45.446C73.5908 45.5487 73.3201 45.642 73.0774 45.726C72.8348 45.81 72.6294 45.8847 72.4614 45.95C72.3681 45.9873 72.2841 46.02 72.2094 46.048C72.1441 46.0667 72.0834 46.0853 72.0274 46.104C71.9621 46.1227 71.9061 46.1413 71.8594 46.16C71.8128 46.1693 71.7661 46.174 71.7194 46.174Z" fill="black" fill-opacity="0.8"/>
<path d="M87.192 46.594C87.08 46.594 86.9867 46.5613 86.912 46.496C86.7627 46.3747 86.7207 46.2207 86.786 46.034C86.786 46.0247 86.8187 45.9127 86.884 45.698C86.9587 45.4833 87.0427 45.2407 87.136 44.97C87.1827 44.8113 87.2247 44.676 87.262 44.564C87.2993 44.4427 87.332 44.3353 87.36 44.242C87.108 44.3353 86.8 44.452 86.436 44.592C86.072 44.7227 85.6893 44.8627 85.288 45.012C84.896 45.1613 84.5133 45.306 84.14 45.446C84.0373 45.4833 83.9347 45.4787 83.832 45.432C83.72 45.376 83.6407 45.292 83.594 45.18C83.5567 45.0773 83.566 44.9747 83.622 44.872C83.6687 44.76 83.748 44.6807 83.86 44.634C84.28 44.4847 84.714 44.3307 85.162 44.172C85.61 44.004 86.0253 43.85 86.408 43.71C86.7907 43.5607 87.1033 43.4393 87.346 43.346C87.5887 43.2527 87.71 43.206 87.71 43.206C87.7567 43.1967 87.8033 43.192 87.85 43.192C87.8967 43.1827 87.9387 43.1873 87.976 43.206C88.1067 43.2247 88.2 43.2993 88.256 43.43C88.3027 43.5047 88.3213 43.6027 88.312 43.724C88.312 43.836 88.2887 43.9993 88.242 44.214C88.214 44.3353 88.1767 44.4707 88.13 44.62C88.0927 44.76 88.0413 44.9233 87.976 45.11C87.9667 45.1473 87.9573 45.18 87.948 45.208C87.9387 45.236 87.9293 45.2687 87.92 45.306C88.2933 45.1007 88.7507 44.886 89.292 44.662C89.3947 44.6153 89.4973 44.6153 89.6 44.662C89.712 44.6993 89.7867 44.7693 89.824 44.872C89.88 44.9747 89.8847 45.082 89.838 45.194C89.7913 45.306 89.7167 45.3853 89.614 45.432C89.194 45.6187 88.816 45.796 88.48 45.964C88.1533 46.132 87.892 46.2673 87.696 46.37C87.5 46.4727 87.402 46.524 87.402 46.524C87.346 46.5707 87.276 46.594 87.192 46.594Z" fill="black" fill-opacity="0.8"/>
<path fill-rule="evenodd" clip-rule="evenodd" d="M145.406 23.0055C145.138 22.5224 144.498 22.2776 143.976 22.4586L112.506 33.3758C112.094 33.519 111.879 33.8855 111.939 34.2715L109.89 34.9822L109.678 34.3467L108.66 33.9599C107.109 35.1715 103.068 37.0734 99.3049 34.9882C94.3399 40.391 92.0024 42.8924 90.7396 44.0801L90.9861 44.5248L101.349 40.7486C101.224 40.0901 101.582 39.4567 102.284 39.213C102.969 38.9754 103.777 39.1794 104.306 39.6715L106.066 39.0299L106.629 40.0447L104.839 40.6347C104.938 41.2752 104.581 41.8831 103.896 42.1206C103.194 42.3642 102.363 42.1439 101.836 41.6251L91.3037 45.0978L91.5503 45.5427C93.5103 45.6124 97.4196 45.9467 105.806 46.7174C106.417 43.115 110.923 42.0517 113.099 41.9703L113.429 41.1159L112.981 40.56L115.032 39.8487C115.35 40.1437 115.835 40.2658 116.246 40.123L147.716 29.2058C148.238 29.0248 148.444 28.4864 148.176 28.0034L145.406 23.0055Z" fill="#041C2F" fill-opacity="0.15"/>
<rect width="1.82699" height="36.5668" rx="0.913494" transform="matrix(0.691572 0.722308 -0.830139 0.557556 142.882 12.4228)" fill="url(#paint0_linear_198_5666)"/>
<rect width="1.90964" height="36.0042" rx="0.954821" transform="matrix(0.691572 0.722308 -0.830139 0.557556 138.344 8.4834)" fill="url(#paint1_linear_198_5666)"/>
<path fill-rule="evenodd" clip-rule="evenodd" d="M117.973 30.5285L113.563 25.9223L107.09 30.2697L106.727 29.7065L105.62 29.6081C104.361 31.2201 100.782 34.193 96.5324 33.1884C92.8644 39.8405 91.1274 42.931 90.15 44.4406L90.5017 44.808L99.9664 38.2446C99.6651 37.6254 99.8526 36.9026 100.486 36.4775C101.103 36.0624 101.96 36.0562 102.611 36.4107L104.238 35.2822L105.041 36.1204L103.372 37.2059C103.643 37.8147 103.449 38.5131 102.832 38.9279C102.199 39.3528 101.317 39.3493 100.661 38.9691L90.9549 45.2814L91.3067 45.6487C93.2784 45.1776 97.2576 44.4289 105.807 42.8752C105.559 39.1826 109.802 36.9023 111.954 36.2237L112.08 35.2969L111.5 34.8762L117.973 30.5285Z" fill="#041C2F"/>
<path fill-rule="evenodd" clip-rule="evenodd" d="M150 9.81133L114.621 33.573C114.163 33.8809 113.482 33.8072 113.1 33.4083L109.148 29.2807C108.766 28.8818 108.828 28.3088 109.286 28.0008L150 0.655884V9.81133Z" fill="#EDEBDB"/>
<defs>
<linearGradient id="paint0_linear_198_5666" x1="0" y1="18.2834" x2="1.82699" y2="18.2834" gradientUnits="userSpaceOnUse">
<stop offset="0.605" stop-color="#EDEBDB"/>
<stop offset="1" stop-color="#87867D"/>
</linearGradient>
<linearGradient id="paint1_linear_198_5666" x1="0" y1="18.0021" x2="1.90964" y2="18.0021" gradientUnits="userSpaceOnUse">
<stop stop-color="#66849C"/>
<stop offset="0.495" stop-color="#EDEBDB"/>
</linearGradient>
</defs>
</svg>
